{
.appVersion = "3337";
.storedFileType = com.schriftgestaltung.glyphs;
.formatVersion = 3;
.storedFormatVersion = 1;
DisplayStrings = (
"OÃ˜00"
);
axes = (
{
name = Weight;
tag = wght;
},
{
name = Width;
tag = wdth;
}
);
customParameters = (
{
name = "Enforce Compatibility Check";
value = 1;
},
{
name = fsType;
value = (
);
},
{
name = isFixedPitch;
value = 1;
},
{
name = panose;
value = (
2,
0,
0,
9,
0,
0,
0,
0,
0,
0
);
},
{
name = "Use Typo Metrics";
value = 1;
}
);
date = "2021-02-26 07:42:34 +0000";
familyName = "M PLUS Code";
featurePrefixes = (
{
automatic = 1;
code = "languagesystem DFLT dflt;

languagesystem latn dflt;
languagesystem latn AZE;
languagesystem latn CRT;
languagesystem latn KAZ;
languagesystem latn TAT;
languagesystem latn TRK;
languagesystem latn ROM;
languagesystem latn MOL;
languagesystem latn CAT;
";
name = Languagesystems;
}
);
features = (
{
automatic = 1;
code = "feature locl;
feature sups;
feature frac;
feature ordn;
feature pnum;
feature tnum;
feature case;
";
tag = aalt;
},
{
automatic = 1;
code = "lookup ccmp_Other_1 {
	@CombiningTopAccents = [acutecomb brevecomb breveinvertedcomb caroncomb circumflexcomb commaturnedabovecomb dblgravecomb dieresiscomb dotaccentcomb gravecomb hookabovecomb hungarumlautcomb macroncomb ringcomb tildecomb];
	@CombiningNonTopAccents = [brevebelowcomb cedillacomb dieresisbelowcomb dotbelowcomb macronbelowcomb ogonekcomb horncomb];
	sub [i j]' @CombiningTopAccents by [idotless jdotless];
	sub [i j]' @CombiningNonTopAccents @CombiningTopAccents by [idotless jdotless];
} ccmp_Other_1;
";
tag = ccmp;
},
{
automatic = 1;
code = "lookup locl_latn_0 {
	script latn;
	language AZE;
	language CRT;
	language KAZ;
	language TAT;
	language TRK;
	sub i by idotaccent;
} locl_latn_0;

lookup locl_latn_1 {
	script latn;
	language ROM;
	language MOL;
	sub Scedilla by Scommaaccent;
	sub scedilla by scommaaccent;
	sub Tcedilla by Tcommaaccent;
	sub tcedilla by tcommaaccent;
} locl_latn_1;

lookup locl_latn_2 {
	script latn;

glyphs = (
{
color = 6;
glyphname = A;
kernLeft = A;
kernRight = A;
lastChange = "2021-05-05 04:42:54 +0000";
layers = (
{
anchors = (
{
name = bottom;
pos = (250,0);
},
{
name = ogonek;
pos = (435,0);
},
{
name = top;
pos = (250,730);
},
{
name = top_ring;
pos = (250,660);
}
);
layerId = "D65C9A1E-0FCA-4B2D-8EDF-9F36CA9182A1";
shapes = (
{
closed = 1;
nodes = (
(56,0,l),
(248,711,l),
(252,711,l),
(444,0,l),
(465,0,l),
(267,730,l),
(233,730,l),
(35,0,l)
);
},
{
closed = 1;
nodes = (
(385,245,l),
(385,265,l),
(115,265,l),
(115,245,l)
);
}
);
width = 500;
},
{
anchors = (
{
name = bottom;
pos = (250,0);
},
{
name = ogonek;
pos = (436,0);
},
{
name = top;
pos = (250,730);
},
{
name = top_ring;
pos = (250,630);
}
);
layerId = "E27A6A66-A1F8-4E1B-8224-7C0FE77551F2";
shapes = (
{
closed = 1;
nodes = (
(102,0,l),
(248,636,l),
(252,636,l),
(398,0,l),
(480,0,l),
(299,730,l),
(201,730,l),
(20,0,l)
);
},
{
closed = 1;
nodes = (
(388,200,l),
(388,270,l),
(112,270,l),
(112,200,l)
);
}
);
vertWidth = 1000;
width = 500;
},
{
anchors = (
{
name = bottom;
pos = (250,0);
},
{
name = ogonek;
pos = (432,0);
},
{
name = top;
pos = (250,730);
},
{
name = top_ring;
pos = (250,600);
}
);
layerId = "FC9CFCDA-9E80-4E73-BA51-8504D15957FA";
shapes = (
{
closed = 1;
nodes = (
(147,0,l),
(248,560,l),
(252,560,l),
(353,0,l),
(495,0,l),
(330,730,l),
(170,730,l),
(5,0,l)
);
},
{
closed = 1;
nodes = (
(390,155,l),
(390,275,l),
(110,275,l),
(110,155,l)
);
}
);
vertWidth = 1000;
width = 500;
},
{
anchors = (
{
name = bottom;
pos = (300,0);
},
{
name = ogonek;
pos = (517,0);
},
{
name = top;
pos = (300,730);
},
{
name = top_ring;
pos = (300,600);
}
);
layerId = "0F1A0AC1-B8D5-4257-ADED-894CB2B827EF";
shapes = (
{
closed = 1;
nodes = (
(166,0,l),
(298,560,l),
(302,560,l),
(434,0,l),
(580,0,l),
(384,730,l),
(216,730,l),
(20,0,l)
);
},
{
closed = 1;
nodes = (
(460,155,l),
(460,275,l),
(140,275,l),
(140,155,l)
);
}
);
vertWidth = 1000;
width = 600;
},
{
anchors = (
{
name = bottom;
pos = (300,0);
},
{
name = ogonek;
pos = (521,0);
},
{
name = top;
pos = (300,730);
},
{
name = top_ring;
pos = (300,630);
}
);
layerId = "72F02222-BF87-41FD-9A7E-0ABB550ED2DB";
shapes = (
{
closed = 1;
nodes = (
(119,0,l),
(298,636,l),
(302,636,l),
(481,0,l),
(565,0,l),
(351,730,l),
(249,730,l),
(35,0,l)
);
},
{
closed = 1;
nodes = (
(457,200,l),
(457,270,l),
(143,270,l),
(143,200,l)
);
}
);
vertWidth = 1000;
width = 600;
},
{
anchors = (
{
name = bottom;
pos = (300,0);
},
{
name = ogonek;
pos = (520,0);
},
{
name = top;
pos = (300,730);
},
{
name = top_ring;
pos = (300,660);
}
);
layerId = "D0C1F23C-2F9F-4D30-8C4D-098ED54EEF3D";
shapes = (
{
closed = 1;
nodes = (
(71,0,l),
(298,712,l),
(302,712,l),
(529,0,l),
(550,0,l),
(317,730,l),
(283,730,l),
(50,0,l)
);
},
{
closed = 1;
nodes = (
(453,245,l),
(453,265,l),
(147,265,l),
(147,245,l)
);
}
);
width = 600;
}
);
metricRight = "=|";
unicode = 65;
},
{
color = 10;
glyphname = AE;
kernLeft = A;
kernRight = E;
lastChange = "2021-05-05 04:42:54 +0000";
layers = (
{
anchors = (
{
name = bottom;
pos = (250,0);
},
{
name = top;
pos = (290,730);
}
);
layerId = "D65C9A1E-0FCA-4B2D-8EDF-9F36CA9182A1";
shapes = (
{
closed = 1;
nodes = (
(41,0,l),
(276,710,l),
(280,710,l),
(280,0,l),
(480,0,l),
(480,20,l),
(300,20,l),
(300,376,l),
(470,376,l),
(470,396,l),
(300,396,l),
(300,710,l),
(480,710,l),
(480,730,l),
(262,730,l),
(20,0,l)
);
},
{
closed = 1;
nodes = (
(290,245,l),
(290,265,l),
(115,265,l),
(115,245,l)
);
}
);
width = 500;
},
{
anchors = (
{
name = bottom;
pos = (250,0);
},
{
name = top;
pos = (300,730);
}
);
layerId = "E27A6A66-A1F8-4E1B-8224-7C0FE77551F2";
shapes = (
{
closed = 1;
nodes = (
(94,0,l),
(258,636,l),
(262,636,l),
(262,0,l),
(483,0,l),
(483,70,l),
(342,70,l),
(342,351,l),
(473,351,l),
(473,421,l),
(342,421,l),
(342,660,l),
(483,660,l),
(483,730,l),
(213,730,l),
(12,0,l)
);
},
{
closed = 1;
nodes = (
(298,200,l),
(298,270,l),
(112,270,l),
(112,200,l)
);
}
);
vertWidth = 1000;
width = 500;
},
{
anchors = (
{
name = bottom;
pos = (250,0);
},
{
name = top;
pos = (300,730);
}
);
layerId = "FC9CFCDA-9E80-4E73-BA51-8504D15957FA";
shapes = (
{
closed = 1;
nodes = (
(135,0,l),
(241,560,l),
(245,560,l),
(245,0,l),
(485,0,l),
(485,118,l),
(365,118,l),
(365,328,l),
(475,328,l),
(475,444,l),
(365,444,l),
(365,612,l),
(485,612,l),
(485,730,l),
(165,730,l),
(5,0,l)
);
},
{
closed = 1;
nodes = (
(305,155,l),
(305,275,l),
(110,275,l),
(110,155,l)
);
}
);
vertWidth = 1000;
width = 500;
},
{
anchors = (
{
name = bottom;
pos = (300,0);
},
{
name = top;
pos = (360,730);
}
);
layerId = "0F1A0AC1-B8D5-4257-ADED-894CB2B827EF";
shapes = (
{
closed = 1;
nodes = (
(151,0,l),
(287,560,l),
(291,560,l),
(291,0,l),
(575,0,l),
(575,118,l),
(431,118,l),
(431,328,l),
(563,328,l),
(563,444,l),
(431,444,l),
(431,612,l),
(575,612,l),
(575,730,l),
(199,730,l),
(5,0,l)
);
},
{
closed = 1;
nodes = (
(361,155,l),
(361,275,l),
(130,275,l),
(130,155,l)
);
}
);
vertWidth = 1000;
width = 600;
},
{
anchors = (
{
name = bottom;
pos = (300,0);
},
{
name = top;
pos = (345,730);
}
);
layerId = "72F02222-BF87-41FD-9A7E-0ABB550ED2DB";
shapes = (
{
closed = 1;
nodes = (
(89,0,l),
(299,635,l),
(304,635,l),
(304,0,l),
(565,0,l),
(565,70,l),
(384,70,l),
(384,351,l),
(553,351,l),
(553,421,l),
(384,421,l),
(384,660,l),
(565,660,l),
(565,730,l),
(248,730,l),
(5,0,l)
);
},
{
closed = 1;
nodes = (
(345,200,l),
(345,270,l),
(125,270,l),
(125,200,l)
);
}
);
vertWidth = 1000;
width = 600;
},
{
anchors = (
{
name = bottom;
pos = (300,0);
},
{
name = top;
pos = (330,730);
}
);
layerId = "D0C1F23C-2F9F-4D30-8C4D-098ED54EEF3D";
shapes = (
{
closed = 1;
nodes = (
(27,0,l),
(311,710,l),
(318,710,l),
(318,0,l),
(555,0,l),
(555,20,l),
(338,20,l),
(338,376,l),
(543,376,l),
(543,396,l),
(338,396,l),
(338,710,l),
(555,710,l),
(555,730,l),
(298,730,l),
(5,0,l)
);
},
{
closed = 1;
nodes = (
(328,245,l),
(328,265,l),
(119,265,l),
(119,245,l)
);
}
);
width = 600;
}
);
unicode = 198;
},
{
color = 6;
glyphname = B;
kernLeft = H;
kernRight = B;
lastChange = "2021-05-05 04:42:54 +0000";
layers = (
{
layerId = "D65C9A1E-0FCA-4B2D-8EDF-9F36CA9182A1";
shapes = (
{
closed = 1;
nodes = (
(372,-10,o),
(450,60,o),
(450,200,cs),
(450,305,o),
(406,363,o),
(311,386,c),
(311,390,l),
(390,415,o),
(432,471,o),
(432,565,cs),
(432,685,o),
(364,740,o),
(216,740,cs),
(182,740,o),
(136,737,o),
(80,728,c),
(80,2,l),
(135,-7,o),
(182,-10,o),
(216,-10,cs)
);
},
{
closed = 1;
nodes = (
(100,2,l),
(100,728,l),
(83,708,l),
(132,716,o),
(176,720,o),
(216,720,cs),
(353,720,o),
(412,673,o),
(412,565,cs),
(412,452,o),
(347,396,o),
(216,396,cs),
(90,396,l),
(90,376,l),
(216,376,ls),
(366,376,o),
(430,324,o),
(430,200,cs),
(430,71,o),
(361,10,o),
(216,10,cs),
(184,10,o),
(137,13,o),
(83,22,c)
);
}
);
width = 500;
},
{
layerId = "E27A6A66-A1F8-4E1B-8224-7C0FE77551F2";
shapes = (
{
closed = 1;
nodes = (
(380,-10,o),
(465,64,o),
(465,210,cs),
(465,308,o),
(427,366,o),
(347,389,c),
(347,393,l),
(412,418,o),
(446,473,o),
(446,555,cs),
(446,679,o),
(369,740,o),
(212,740,cs),
(177,740,o),
(126,737,o),
(65,728,c),
(65,2,l),
(125,-7,o),
(178,-10,o),
(212,-10,cs)
);
},
{
closed = 1;
nodes = (
(145,43,l),
(145,687,l),
(125,655,l),
(157,664,o),
(189,668,o),
(221,668,cs),
(320,668,o),
(365,630,o),
(365,548,cs),
(365,461,o),
(315,420,o),
(210,420,cs),
(105,420,l),
(105,352,l),
(218,352,ls),
(333,352,o),
(383,310,o),
(383,210,cs),
(383,110,o),
(331,62,o),
(221,62,cs),
(189,62,o),
(159,66,o),
(125,75,c)
);
}
);
vertWidth = 1000;
width = 500;
},
{
layerId = "FC9CFCDA-9E80-4E73-BA51-8504D15957FA";
shapes = (
{
closed = 1;
nodes = (
(395,-10,o),
(480,56,o),
(480,200,cs),
(480,308,o),
(431,376,o),
(342,392,c),
(342,396,l),
(415,413,o),
(459,477,o),
(459,565,cs),
(459,684,o),
(379,740,o),
(208,740,cs),
(168,740,o),
(115,737,o),
(50,728,c),
(50,2,l),
(114,-7,o),
(168,-10,o),
(208,-10,cs)
);
},
{
closed = 1;
nodes = (
(190,84,l),
(190,646,l),
(167,604,l),
(182,614,o),
(202,618,o),
(225,618,cs),
(287,618,o),
(317,589,o),
(317,531,cs),
(317,470,o),
(283,444,o),
(204,444,cs),
(120,444,l),
(120,328,l),
(219,328,ls),
(300,328,o),
(336,295,o),
(336,220,cs),
(336,146,o),
(301,112,o),
(225,112,cs),
(196,112,o),
(180,117,o),
(167,126,c)
);
}
);
vertWidth = 1000;
width = 500;
},
{
layerId = "0F1A0AC1-B8D5-4257-ADED-894CB2B827EF";
shapes = (
{
closed = 1;
nodes = (
(467,-10,o),
(565,55,o),
(565,200,cs),
(565,307,o),
(511,376,o),
(415,392,c),
(415,396,l),
(493,413,o),
(541,479,o),
(541,565,cs),
(541,684,o),
(447,740,o),
(247,740,cs),
(201,740,o),
(140,737,o),
(65,728,c),
(65,2,l),
(139,-7,o),
(202,-10,o),
(249,-10,cs)
);
},
{
closed = 1;
nodes = (
(205,84,l),
(205,646,l),
(181,604,l),
(203,614,o),
(233,618,o),
(266,618,cs),
(355,618,o),
(399,589,o),
(399,531,cs),
(399,473,o),
(344,444,o),
(235,444,cs),
(135,444,l),
(135,328,l),
(255,328,ls),
(370,328,o),
(421,295,o),
(421,220,cs),
(421,146,o),
(371,112,o),
(263,112,cs),
(222,112,o),
(199,117,o),
(181,126,c)
);
}
);
vertWidth = 1000;
width = 600;
},
{
layerId = "72F02222-BF87-41FD-9A7E-0ABB550ED2DB";
shapes = (
{
closed = 1;
nodes = (
(452,-10,o),
(550,57,o),
(550,200,cs),
(550,306,o),
(497,370,o),
(393,389,c),
(393,393,l),
(480,414,o),
(528,477,o),
(528,565,cs),
(528,684,o),
(440,740,o),
(252.992,740,cs),
(209,740,o),
(151,737,o),
(80,728,c),
(80,2,l),
(142,-7,o),
(199,-10,o),
(243,-10,cs)
);
},
{
closed = 1;
nodes = (
(160,43,l),
(160,687,l),
(140,655,l),
(188,664,o),
(235,668,o),
(273,668,cs),
(391,668,o),
(446,630,o),
(446,548,cs),
(446,462,o),
(380,420,o),
(246,420,cs),
(120,420,l),
(120,352,l),
(256,352,ls),
(403,352,o),
(468,309,o),
(468,210,cs),
(468,109,o),
(402,62,o),
(261,62,cs),
(215,62,o),
(176,67,o),
(140,75,c)
);
}
);
vertWidth = 1000;
width = 600;
},
{
layerId = "D0C1F23C-2F9F-4D30-8C4D-098ED54EEF3D";
shapes = (
{
closed = 1;
nodes = (
(440,-10,o),
(535,60,o),
(535,200,cs),
(535,305,o),
(483,363,o),
(370,386,c),
(370,390,l),
(467,416,o),
(514,473,o),
(514,565,cs),
(514,685,o),
(433,740,o),
(257,740,cs),
(216,740,o),
(162,737,o),
(95,728,c),
(95,2,l),
(150,-6,o),
(204,-10,o),
(250,-10,cs)
);
},
{
closed = 1;
nodes = (
(115,2,l),
(115,728,l),
(98,708,l),
(164,717,o),
(217,720,o),
(257,720,cs),
(423,720,o),
(494,672,o),
(494,565,cs),
(494,452,o),
(415,396,o),
(257,396,cs),
(105,396,l),
(105,376,l),
(257,376,ls),
(438,376,o),
(515,324,o),
(515,200,cs),
(515,72,o),
(429,10,o),
(250,10,cs),
(204,10,o),
(150,14,o),
(98,22,c)
);
}
);
width = 600;
}
);
unicode = 66;
},
{
color = 6;
glyphname = C;
kernLeft = O;
kernRight = C;
lastChange = "2021-05-05 04:42:54 +0000";
layers = (
{
anchors = (
{
name = bottom;
pos = (270,0);
},
{
name = cedi;
pos = (220,0);
},
{
name = top;
pos = (270,730);
}
);
layerId = "D65C9A1E-0FCA-4B2D-8EDF-9F36CA9182A1";
shapes = (
{
closed = 1;
nodes = (
(354,-10,o),
(389,-5,o),
(416,6,c),
(416,28,l),
(393,17,o),
(357,10,o),
(318,10,cs),
(159,10,o),
(76,121,o),
(76,335,cs),
(76,395,ls),
(76,609,o),
(152,720,o),
(297,720,cs),
(341,720,o),
(377,711,o),
(406,693,c),
(396,713,l),
(396,480,l),
(416,480,l),
(416,710,l),
(383,730,o),
(342,740,o),
(297,740,cs),
(140,740,o),
(56,620,o),
(56,395,cs),
(56,335,ls),
(56,110,o),
(147,-10,o),
(318,-10,cs)
);
}
);
width = 500;
},
{
anchors = (
{
name = bottom;
pos = (270,0);
},
{
name = cedi;
pos = (220,0);
},
{
name = top;
pos = (270,730);
}
);
layerId = "E27A6A66-A1F8-4E1B-8224-7C0FE77551F2";
shapes = (
{
closed = 1;
nodes = (
(349,-10,o),
(394,-5,o),
(427,5,c),
(427,80,l),
(395,69,o),
(354,62,o),
(318,62,cs),
(190,62,o),
(129,149,o),
(129,340,cs),
(129,390,ls),
(129,574,o),
(187,668,o),
(298,668,cs),
(332,668,o),
(361,659,o),
(387,640,c),
(347,702,l),
(347,470,l),
(427,470,l),
(427,714,l),
(392,731,o),
(346,740,o),
(300,740,cs),
(133,740,o),
(47,623,o),
(47,395,cs),
(47,335,ls),
(47,107,o),
(136,-10,o),
(310,-10,cs)
);
}
);
vertWidth = 1000;
width = 500;
},
{
anchors = (
{
name = bottom;
pos = (270,0);
},
{
name = cedi;
pos = (220,0);
},
{
name = top;
pos = (270,730);
}
);
layerId = "FC9CFCDA-9E80-4E73-BA51-8504D15957FA";
shapes = (
{
closed = 1;
nodes = (
(341,-10,o),
(396,-4,o),
(436,4,c),
(436,134,l),
(394,123,o),
(349,116,o),
(316,116,cs),
(218,116,o),
(180,179,o),
(180,345,cs),
(180,385,ls),
(180,536,o),
(220,614,o),
(296,614,cs),
(319,614,o),
(343,604,o),
(366,584,c),
(296,691,l),
(296,460,l),
(436,460,l),
(436,718,l),
(398,731,o),
(346,740,o),
(301,740,cs),
(123,740,o),
(36,626,o),
(36,395,cs),
(36,335,ls),
(36,104,o),
(123,-10,o),
(300,-10,cs)
);
}
);
vertWidth = 1000;
width = 500;
},
{
anchors = (
{
name = bottom;
pos = (320,0);
},
{
name = cedi;
pos = (260,0);
},
{
name = top;
pos = (320,730);
}
);
layerId = "0F1A0AC1-B8D5-4257-ADED-894CB2B827EF";
shapes = (
{
closed = 1;
nodes = (
(397,-10,o),
(462,-4,o),
(511,4,c),
(511,134,l),
(458,123,o),
(401,116,o),
(361,116,cs),
(241,116,o),
(195,180,o),
(195,345,cs),
(195,385,ls),
(195,532,o),
(248,614,o),
(344,614,cs),
(376,614,o),
(402,605,o),
(432,584,c),
(381,691,l),
(381,460,l),
(521,460,l),
(521,718,l),
(472,732,o),
(414,740,o),
(360,740,cs),
(155,740,o),
(51,624,o),
(51,395,cs),
(51,335,ls),
(51,104,o),
(150,-10,o),
(351,-10,cs)
);
}
);
vertWidth = 1000;
width = 600;
},
{
anchors = (
{
name = bottom;
pos = (320,0);
},
{
name = cedi;
pos = (260,0);
},
{
name = top;
pos = (320,730);
}
);
layerId = "72F02222-BF87-41FD-9A7E-0ABB550ED2DB";
shapes = (
{
closed = 1;
nodes = (
(404,-10,o),
(457,-4,o),
(496,5,c),
(496,80,l),
(458,69,o),
(409,62,o),
(367,62,cs),
(218,62,o),
(148,151,o),
(148,340,cs),
(148,390,ls),
(148,571,o),
(219,668,o),
(351,668,cs),
(391,668,o),
(425,659,o),
(456,639,c),
(426,702,l),
(426,470,l),
(506,470,l),
(506,714,l),
(463,731,o),
(411,740,o),
(358,740,cs),
(166,740,o),
(66,622,o),
(66,395,cs),
(66,335,ls),
(66,107,o),
(166,-10,o),
(360,-10,cs)
);
}
);
vertWidth = 1000;
width = 600;
},
{
anchors = (
{
name = bottom;
pos = (320,0);
},
{
name = cedi;
pos = (260,0);
},
{
name = top;
pos = (320,730);
}
);
layerId = "D0C1F23C-2F9F-4D30-8C4D-098ED54EEF3D";
shapes = (
{
closed = 1;
nodes = (
(409,-10,o),
(453,-4,o),
(481,7,c),
(481,28,l),
(456,17,o),
(411,10,o),
(367,10,cs),
(192,10,o),
(101,121,o),
(101,335,cs),
(101,395,ls),
(101,609,o),
(189,720,o),
(357,720,cs),
(406,720,o),
(447,711,o),
(481,692,c),
(471,713,l),
(471,480,l),
(491,480,l),
(491,710,l),
(454,730,o),
(409,740,o),
(357,740,cs),
(177,740,o),
(81,620,o),
(81,395,cs),
(81,335,ls),
(81,111,o),
(180,-10,o),
(367,-10,cs)
);
}
);
width = 600;
}
);
unicode = 67;
},
{
color = 10;
glyphname = Ccedilla;
kernLeft = O;
kernRight = C;
lastChange = "2021-11-23 11:08:23 +0000";
layers = (
{
layerId = "D65C9A1E-0FCA-4B2D-8EDF-9F36CA9182A1";
shapes = (
{
closed = 1;
nodes = (
(340,-220,o),
(352,-173,o),
(352,-145,cs),
(352,-79.509,o),
(297.27,-30.92,o),
(208.029,26.761,c),
(190,20,l),
(282,-45,o),
(332,-90,o),
(332,-145,cs),
(332,-191,o),
(290,-200,o),
(255,-200,cs),
(235,-200,o),
(213,-196,o),
(197,-190,c),
(197,-212,l),
(214,-217,o),
(235,-220,o),
(255,-220,cs)
);
},
{
ref = C;
}
);
width = 500;
},
{
layerId = "E27A6A66-A1F8-4E1B-8224-7C0FE77551F2";
shapes = (
{
closed = 1;
nodes = (
(311,-218,o),
(353,-186,o),
(353,-130,cs),
(353,-68.594,o),
(314.524,-8.727,o),
(243.646,42.175,c),
(176,22,l),
(242,-24,o),
(279,-74,o),
(279,-117,cs),
(279,-144,o),
(259,-153,o),
(232,-153,cs),
(213,-153,o),
(196,-150,o),
(181,-145,c),
(181,-211,l),
(198,-216,o),
(217,-218,o),
(238,-218,cs)
);
},
{
ref = C;
}
);
width = 500;
},
{
layerId = "FC9CFCDA-9E80-4E73-BA51-8504D15957FA";
shapes = (
{
closed = 1;
nodes = (
(317,-218,o),
(375,-176,o),
(375,-102,cs),
(375,-45.387,o),
(344.707,4.494,o),
(281.911,56.48,c),
(158,25,l),
(216,-12,o),
(249,-48,o),
(249,-81,cs),
(249,-103,o),
(234,-115,o),
(206,-115,cs),
(191,-115,o),
(176,-114,o),
(162,-113,c),
(162,-216,l),
(178,-217,o),
(196,-218,o),
(216,-218,cs)
);
},
{
ref = C;
}
);
width = 500;
},
{
layerId = "0F1A0AC1-B8D5-4257-ADED-894CB2B827EF";
shapes = (
{
closed = 1;
nodes = (
(356,-218,o),
(414,-176,o),
(414,-102,cs),
(414,-46.357,o),
(383.869,2.59,o),
(321.415,53.608,c),
(197,22,l),
(255,-14,o),
(288,-49,o),
(288,-81,cs),
(288,-103,o),
(273,-115,o),
(245,-115,cs),
(230,-115,o),
(215,-114,o),
(201,-113,c),
(201,-216,l),
(217,-217,o),
(235,-218,o),
(255,-218,cs)
);
},
{
ref = C;
}
);
width = 600;
},
{
layerId = "72F02222-BF87-41FD-9A7E-0ABB550ED2DB";
shapes = (
{
closed = 1;
nodes = (
(351,-218,o),
(393,-186,o),
(393,-130,cs),
(393,-69.576,o),
(354.656,-10.685,o),
(284.013,39.284,c),
(216,19,l),
(282,-26,o),
(319,-75,o),
(319,-117,cs),
(319,-144,o),
(299,-153,o),
(272,-153,cs),
(253,-153,o),
(236,-150,o),
(221,-145,c),
(221,-211,l),
(238,-216,o),
(257,-218,o),
(278,-218,cs)
);
},
{
ref = C;
}
);
width = 600;
},
{
layerId = "D0C1F23C-2F9F-4D30-8C4D-098ED54EEF3D";
shapes = (
{
closed = 1;
nodes = (
(380,-220,o),
(392,-173,o),
(392,-145,cs),
(392,-80.266,o),
(337.033,-31.699,o),
(247.447,26.137,c),
(230,19,l),
(322,-45,o),
(372,-91,o),
(372,-145,cs),
(372,-191,o),
(330,-200,o),
(295,-200,cs),
(275,-200,o),
(253,-196,o),
(237,-190,c),
(237,-212,l),
(254,-217,o),
(275,-220,o),
(295,-220,cs)
);
},
{
ref = C;
}
);
width = 600;
}
);
unicode = 199;
},
{
color = 6;
glyphname = D;
kernLeft = H;
kernRight = O;
lastChange = "2021-05-05 04:42:54 +0000";
layers = (
{
anchors = (
{
name = bottom;
pos = (230,0);
},
{
name = center;
pos = (250,365);
},
{
name = top;
pos = (230,730);
}
);
layerId = "D65C9A1E-0FCA-4B2D-8EDF-9F36CA9182A1";
shapes = (
{
closed = 1;
nodes = (
(373,-10,o),
(446,90,o),
(446,335,cs),
(446,395,ls),
(446,640,o),
(373,740,o),
(195,740,cs),
(159,740,o),
(121,736,o),
(76,728,c),
(76,2,l),
(121,-6,o),
(159,-10,o),
(195,-10,cs)
);
},
{
closed = 1;
nodes = (
(96,10,l),
(96,720,l),
(89,710,l),
(129,717,o),
(165,720,o),
(195,720,cs),
(361,720,o),
(426,629,o),
(426,395,cs),
(426,335,ls),
(426,101,o),
(361,10,o),
(195,10,cs),
(165,10,o),
(129,13,o),
(89,20,c)
);
}
);
width = 500;
},
{
anchors = (
{
name = bottom;
pos = (230,0);
},
{
name = center;
pos = (250,365);
},
{
name = top;
pos = (230,730);
}
);
layerId = "E27A6A66-A1F8-4E1B-8224-7C0FE77551F2";
shapes = (
{
closed = 1;
nodes = (
(382,-10,o),
(461,90,o),
(461,335,cs),
(461,395,ls),
(461,640,o),
(382,740,o),
(190,740,cs),
(151,740,o),
(110,736,o),
(61,728,c),
(61,2,l),
(110,-6,o),
(151,-10,o),
(190,-10,cs)
);
},
{
closed = 1;
nodes = (
(141,47,l),
(141,683,l),
(126,656,l),
(149,664,o),
(174,668,o),
(202,668,cs),
(328,668,o),
(380,587,o),
(380,390,cs),
(380,340,ls),
(380,143,o),
(328,62,o),
(202,62,cs),
(174,62,o),
(149,66,o),
(126,74,c)
);
}
);
vertWidth = 1000;
width = 500;
},
{
anchors = (
{
name = bottom;
pos = (230,0);
},
{
name = center;
pos = (250,365);
},
{
name = top;
pos = (230,730);
}
);
layerId = "FC9CFCDA-9E80-4E73-BA51-8504D15957FA";
shapes = (
{
closed = 1;
nodes = (
(391,-10,o),
(476,90,o),
(476,335,cs),
(476,395,ls),
(476,640,o),
(391,740,o),
(184,740,cs),
(143,740,o),
(98,736,o),
(46,728,c),
(46,2,l),
(98,-6,o),
(143,-10,o),
(184,-10,cs)
);
},
{
closed = 1;
nodes = (
(186,84,l),
(186,646,l),
(163,600,l),
(175,610,o),
(190,614,o),
(210,614,cs),
(295,614,o),
(334,542,o),
(334,385,cs),
(334,345,ls),
(334,188,o),
(295,116,o),
(210,116,cs),
(190,116,o),
(175,120,o),
(163,130,c)
);
}
);
vertWidth = 1000;
width = 500;
},
{
anchors = (
{
name = bottom;
pos = (280,0);
},
{
name = center;
pos = (300,365);
},
{
name = top;
pos = (280,730);
}
);
layerId = "0F1A0AC1-B8D5-4257-ADED-894CB2B827EF";
shapes = (
{
closed = 1;
nodes = (
(462,-10,o),
(561,91,o),
(561,335,cs),
(561,395,ls),
(561,639,o),
(462,740,o),
(223,740,cs),
(175,740,o),
(123,736,o),
(61,728,c),
(61,2,l),
(123,-6,o),
(175,-10,o),
(223,-10,cs)
);
},
{
closed = 1;
nodes = (
(201,84,l),
(201,646,l),
(179,600,l),
(195,610,o),
(215,614,o),
(244,614,cs),
(365,614,o),
(419,543,o),
(419,385,cs),
(419,345,ls),
(419,187,o),
(365,116,o),
(244,116,cs),
(215,116,o),
(195,120,o),
(179,130,c)
);
}
);
vertWidth = 1000;
width = 600;
},
{
anchors = (
{
name = bottom;
pos = (280,0);
},
{
name = center;
pos = (300,365);
},
{
name = top;
pos = (280,730);
}
);
layerId = "72F02222-BF87-41FD-9A7E-0ABB550ED2DB";
shapes = (
{
closed = 1;
nodes = (
(454,-10,o),
(546,91,o),
(546,335,cs),
(546,395,ls),
(546,639,o),
(454,740,o),
(228,740,cs),
(183,740,o),
(134,736,o),
(76,728,c),
(76,2,l),
(134,-6,o),
(183,-10,o),
(228,-10,cs)
);
},
{
closed = 1;
nodes = (
(156,47,l),
(156,683,l),
(137,655,l),
(173,664,o),
(205,668,o),
(240,668,cs),
(399,668,o),
(465,587,o),
(465,390,cs),
(465,340,ls),
(465,143,o),
(399,62,o),
(240,62,cs),
(205,62,o),
(173,66,o),
(137,75,c)
);
}
);
vertWidth = 1000;
width = 600;
},
{
anchors = (
{
name = bottom;
pos = (280,0);
},
{
name = center;
pos = (300,365);
},
{
name = top;
pos = (280,730);
}
);
layerId = "D0C1F23C-2F9F-4D30-8C4D-098ED54EEF3D";
shapes = (
{
closed = 1;
nodes = (
(445,-10,o),
(531,90,o),
(531,335,cs),
(531,395,ls),
(531,640,o),
(445,740,o),
(234,740,cs),
(192,740,o),
(146,736,o),
(91,728,c),
(91,2,l),
(146,-6,o),
(192,-10,o),
(234,-10,cs)
);
},
{
closed = 1;
nodes = (
(111,10,l),
(111,720,l),
(94,708,l),
(150,716,o),
(194,720,o),
(236,720,cs),
(434,720,o),
(511,629,o),
(511,395,cs),
(511,335,ls),
(511,101,o),
(434,10,o),
(236,10,cs),
(194,10,o),
(150,14,o),
(94,22,c)
);
}
);
width = 600;
}
);
unicode = 68;
},
{
color = 10;
glyphname = DZcaron;
kernLeft = H;
kernRight = Z;
lastChange = "2021-05-05 04:42:54 +0000";
layers = (
{
layerId = "D65C9A1E-0FCA-4B2D-8EDF-9F36CA9182A1";
shapes = (
{
closed = 1;
nodes = (
(222,-10,o),
(268,91,o),
(268,335,cs),
(268,395,ls),
(268,639,o),
(222,740,o),
(112,740,cs),
(90,740,o),
(66,736,o),
(38,728,c),
(38,2,l),
(66,-6,o),
(90,-10,o),
(112,-10,cs)
);
},
{
closed = 1;
nodes = (
(58,8,l),
(58,722,l),
(51,711,l),
(75,718,o),
(94,720,o),
(112,720,cs),
(207,720,o),
(248,629,o),
(248,395,cs),
(248,335,ls),
(248,101,o),
(207,10,o),
(112,10,cs),
(94,10,o),
(75,12,o),
(51,19,c)
);
},
{
closed = 1;
nodes = (
(488,0,l),
(488,20,l),
(280,20,l),
(280,24,l),
(488,710,l),
(488,730,l),
(258,730,l),
(258,710,l),
(466,710,l),
(466,706,l),
(258,20,l),
(258,0,l)
);
},
{
closed = 1;
nodes = (
(386,780,l),
(500,1000,l),
(477,1000,l),
(376,803,l),
(372,803,l),
(271,1000,l),
(248,1000,l),
(362,780,l)
);
}
);
width = 500;
},
{
layerId = "E27A6A66-A1F8-4E1B-8224-7C0FE77551F2";
shapes = (
{
closed = 1;
nodes = (
(223,-10,o),
(270,90,o),
(270,335,cs),
(270,395,ls),
(270,640,o),
(223,740,o),
(107,740,cs),
(84,740,o),
(59,736,o),
(30,728,c),
(30,2,l),
(59,-6,o),
(84,-10,o),
(107,-10,cs)
);
},
{
closed = 1;
nodes = (
(108,47,l),
(108,683,l),
(82,656,l),
(93,664,o),
(102,668,o),
(116,668,cs),
(170,668,o),
(192,587,o),
(192,390,cs),
(192,340,ls),
(192,143,o),
(170,62,o),
(116,62,cs),
(102,62,o),
(93,66,o),
(82,74,c)
);
},
{
closed = 1;
nodes = (
(490,0,l),
(490,70,l),
(346,70,l),
(346,74,l),
(490,660,l),
(490,730,l),
(265,730,l),
(265,660,l),
(409,660,l),
(409,656,l),
(265,70,l),
(265,0,l)
);
},
{
closed = 1;
nodes = (
(405,780,l),
(500,1000,l),
(416,1000,l),
(362,846,l),
(358,846,l),
(304,1000,l),
(220,1000,l),
(315,780,l)
);
}
);
vertWidth = 1000;
width = 500;
},
{
layerId = "FC9CFCDA-9E80-4E73-BA51-8504D15957FA";
shapes = (
{
closed = 1;
nodes = (
(223,-10,o),
(272,90,o),
(272,335,cs),
(272,395,ls),
(272,640,o),
(223,740,o),
(103,740,cs),
(79,740,o),
(52,736,o),
(22,728,c),
(22,2,l),
(52,-6,o),
(79,-10,o),
(103,-10,cs)
);
},
{
closed = 1;
nodes = (
(122,84,l),
(122,646,l),
(115,600,l),
(118,610,o),
(123,614,o),
(130,614,cs),
(159,614,o),
(172,545,o),
(172,385,cs),
(172,345,ls),
(172,185,o),
(159,116,o),
(130,116,cs),
(123,116,o),
(118,120,o),
(115,130,c)
);
},
{
closed = 1;
nodes = (
(492,0,l),
(492,120,l),
(382,120,l),
(382,124,l),
(492,610,l),
(492,730,l),
(272,730,l),
(272,610,l),
(382,610,l),
(382,606,l),
(272,120,l),
(272,0,l)
);
},
{
closed = 1;
nodes = (
(420,780,l),
(500,1000,l),
(386,1000,l),
(348,860,l),
(344,860,l),
(306,1000,l),
(192,1000,l),
(272,780,l)
);
}
);
vertWidth = 1000;
width = 500;
},
{
layerId = "0F1A0AC1-B8D5-4257-ADED-894CB2B827EF";
shapes = (
{
closed = 1;
nodes = (
(268,-10,o),
(325,90,o),
(325,335,cs),
(325,395,ls),
(325,640,o),
(268,740,o),
(127,740,cs),
(99,740,o),
(67,736,o),
(32,728,c),
(32,2,l),
(67,-6,o),
(99,-10,o),
(127,-10,cs)
);
},
{
closed = 1;
nodes = (
(150,84,l),
(150,646,l),
(140,600,l),
(143,609,o),
(149,614,o),
(158,614,cs),
(192,614,o),
(207,544,o),
(207,385,cs),
(207,345,ls),
(207,186,o),
(192,116,o),
(158,116,cs),
(149,116,o),
(143,121,o),
(140,130,c)
);
},
{
closed = 1;
nodes = (
(582,0,l),
(582,120,l),
(453,120,l),
(453,124,l),
(582,610,l),
(582,730,l),
(325,730,l),
(325,610,l),
(453,610,l),
(453,606,l),
(325,120,l),
(325,0,l)
);
},
{
closed = 1;
nodes = (
(498,780,l),
(592,1000,l),
(458,1000,l),
(413,860,l),
(409,860,l),
(364,1000,l),
(230,1000,l),
(324,780,l)
);
}
);
vertWidth = 1000;
width = 600;
},
{
layerId = "72F02222-BF87-41FD-9A7E-0ABB550ED2DB";
shapes = (
{
closed = 1;
nodes = (
(269,-10,o),
(324,91,o),
(324,335,cs),
(324,395,ls),
(324,639,o),
(269,740,o),
(138,740,cs),
(112,740,o),
(82,736,o),
(47,728,c),
(47,2,l),
(82,-6,o),
(112,-10,o),
(138,-10,cs)
);
},
{
closed = 1;
nodes = (
(125,46,l),
(125,684,l),
(96,654,l),
(115,663,o),
(130,667,o),
(145,667,cs),
(216,667,o),
(246,585,o),
(246,390,cs),
(246,340,ls),
(246,145,o),
(216,63,o),
(145,63,cs),
(130,63,o),
(115,67,o),
(96,76,c)
);
},
{
closed = 1;
nodes = (
(575,0,l),
(575,70,l),
(399,70,l),
(399,74,l),
(575,660,l),
(575,730,l),
(317,730,l),
(317,660,l),
(493,660,l),
(493,656,l),
(317,70,l),
(317,0,l)
);
},
{
closed = 1;
nodes = (
(475,780,l),
(587,1000,l),
(508,1000,l),
(427,830,l),
(423,830,l),
(342,1000,l),
(263,1000,l),
(375,780,l)
);
}
);
vertWidth = 1000;
width = 600;
},
{
layerId = "D0C1F23C-2F9F-4D30-8C4D-098ED54EEF3D";
shapes = (
{
closed = 1;
nodes = (
(269,-10,o),
(321,92,o),
(321,335,cs),
(321,395,ls),
(321,638,o),
(269,740,o),
(147,740,cs),
(123,740,o),
(96,736,o),
(62,728,c),
(62,2,l),
(96,-6,o),
(123,-10,o),
(147,-10,cs)
);
},
{
closed = 1;
nodes = (
(82,8,l),
(82,722,l),
(67,709,l),
(101,717,o),
(126,720,o),
(147,720,cs),
(255,720,o),
(301,627,o),
(301,395,cs),
(301,335,ls),
(301,103,o),
(255,10,o),
(147,10,cs),
(126,10,o),
(101,13,o),
(67,21,c)
);
},
{
closed = 1;
nodes = (
(568,0,l),
(568,20,l),
(332,20,l),
(332,24,l),
(568,710,l),
(568,730,l),
(310,730,l),
(310,710,l),
(546,710,l),
(546,706,l),
(310,20,l),
(310,0,l)
);
},
{
closed = 1;
nodes = (
(453,780,l),
(582,1000,l),
(559,1000,l),
(442,800,l),
(438,800,l),
(321,1000,l),
(298,1000,l),
(427,780,l)
);
}
);
width = 600;
}
);
unicode = 452;
},
{
color = 10;
glyphname = Eth;
kernLeft = f;
kernRight = O;
lastChange = "2021-05-05 04:42:54 +0000";
layers = (
{
layerId = "D65C9A1E-0FCA-4B2D-8EDF-9F36CA9182A1";
shapes = (
{
closed = 1;
nodes = (
(304,376,l),
(304,396,l),
(4,396,l),
(4,376,l)
);
},
{
pos = (4,0);
ref = D;
}
);
width = 500;
},
{
layerId = "E27A6A66-A1F8-4E1B-8224-7C0FE77551F2";
shapes = (
{
closed = 1;
nodes = (
(292,351,l),
(292,421,l),
(2,421,l),
(2,351,l)
);
},
{
alignment = -1;
pos = (4,0);
ref = D;
}
);
vertWidth = 1000;
width = 500;
},
{
layerId = "FC9CFCDA-9E80-4E73-BA51-8504D15957FA";
shapes = (
{
closed = 1;
nodes = (
(280,328,l),
(280,444,l),
(0,444,l),
(0,328,l)
);
},
{
pos = (4,0);
ref = D;
}
);
vertWidth = 1000;
width = 500;
},
{
layerId = "0F1A0AC1-B8D5-4257-ADED-894CB2B827EF";
shapes = (
{
closed = 1;
nodes = (
(344,328,l),
(344,444,l),
(4,444,l),
(4,328,l)
);
},
{
pos = (10,0);
ref = D;
}
);
vertWidth = 1000;
width = 600;
},
{
layerId = "72F02222-BF87-41FD-9A7E-0ABB550ED2DB";
shapes = (
{
closed = 1;
nodes = (
(357,352,l),
(357,420,l),
(7,420,l),
(7,352,l)
);
},
{
alignment = -1;
pos = (10,0);
ref = D;
}
);
vertWidth = 1000;
width = 600;
},
{
layerId = "D0C1F23C-2F9F-4D30-8C4D-098ED54EEF3D";
shapes = (
{
closed = 1;
nodes = (
(370,376,l),
(370,396,l),
(10,396,l),
(10,376,l)
);
},
{
pos = (10,0);
ref = D;
}
);
width = 600;
}
);
unicode = 208;
},
{
color = 10;
glyphname = Dzcaron;
kernLeft = H;
kernRight = z;
lastChange = "2021-05-05 04:42:54 +0000";
layers = (
{
layerId = "D65C9A1E-0FCA-4B2D-8EDF-9F36CA9182A1";
shapes = (
{
closed = 1;
nodes = (
(222,-10,o),
(268,91,o),
(268,335,cs),
(268,395,ls),
(268,639,o),
(222,740,o),
(112,740,cs),
(90,740,o),
(66,736,o),
(38,728,c),
(38,2,l),
(66,-6,o),
(90,-10,o),
(112,-10,cs)
);
},
{
closed = 1;
nodes = (
(58,8,l),
(58,722,l),
(51,711,l),
(75,718,o),
(94,720,o),
(112,720,cs),
(207,720,o),
(248,629,o),
(248,395,cs),
(248,335,ls),
(248,101,o),
(207,10,o),
(112,10,cs),
(94,10,o),
(75,12,o),
(51,19,c)
);
},
{
closed = 1;
nodes = (
(488,0,l),
(488,20,l),
(311,20,l),
(311,24,l),
(488,500,l),
(488,520,l),
(288,520,l),
(288,500,l),
(465,500,l),
(465,496,l),
(288,20,l),
(288,0,l)
);
},
{
closed = 1;
nodes = (
(386,570,l),
(500,790,l),
(477,790,l),
(376,593,l),
(372,593,l),
(271,790,l),
(248,790,l),
(362,570,l)
);
}
);
width = 500;
},
{
layerId = "E27A6A66-A1F8-4E1B-8224-7C0FE77551F2";
shapes = (
{
closed = 1;
nodes = (
(223,-10,o),
(270,90,o),
(270,335,cs),
(270,395,ls),
(270,640,o),
(223,740,o),
(107,740,cs),
(84,740,o),
(59,736,o),
(30,728,c),
(30,2,l),
(59,-6,o),
(84,-10,o),
(107,-10,cs)
);
},
{
closed = 1;
nodes = (
(108,47,l),
(108,683,l),
(82,656,l),
(93,664,o),
(102,668,o),
(116,668,cs),
(170,668,o),
(192,587,o),
(192,390,cs),
(192,340,ls),
(192,143,o),
(170,62,o),
(116,62,cs),
(102,62,o),
(93,66,o),
(82,74,c)
);
},
{
closed = 1;
nodes = (
(490,0,l),
(490,70,l),
(372,70,l),
(372,74,l),
(490,450,l),
(490,520,l),
(290,520,l),
(290,450,l),
(408,450,l),
(408,446,l),
(290,70,l),
(290,0,l)
);
},
{
closed = 1;
nodes = (
(412,570,l),
(500,790,l),
(416,790,l),
(369,636,l),
(365,636,l),
(318,790,l),
(234,790,l),
(322,570,l)
);
}
);
vertWidth = 1000;
width = 500;
},
{
layerId = "FC9CFCDA-9E80-4E73-BA51-8504D15957FA";
shapes = (
{
closed = 1;
nodes = (
(223,-10,o),
(272,90,o),
(272,335,cs),
(272,395,ls),
(272,640,o),
(223,740,o),
(103,740,cs),
(79,740,o),
(52,736,o),
(22,728,c),
(22,2,l),
(52,-6,o),
(79,-10,o),
(103,-10,cs)
);
},
{
closed = 1;
nodes = (
(122,84,l),
(122,646,l),
(115,600,l),
(118,610,o),
(123,614,o),
(130,614,cs),
(159,614,o),
(172,545,o),
(172,385,cs),
(172,345,ls),
(172,185,o),
(159,116,o),
(130,116,cs),
(123,116,o),
(118,120,o),
(115,130,c)
);
},
{
closed = 1;
nodes = (
(492,0,l),
(492,118,l),
(402,118,l),
(402,122,l),
(492,402,l),
(492,520,l),
(292,520,l),
(292,402,l),
(382,402,l),
(382,398,l),
(292,118,l),
(292,0,l)
);
},
{
closed = 1;
nodes = (
(427,570,l),
(500,790,l),
(392,790,l),
(362,652,l),
(358,652,l),
(328,790,l),
(220,790,l),
(293,570,l)
);
}
);
vertWidth = 1000;
width = 500;
},
{
layerId = "0F1A0AC1-B8D5-4257-ADED-894CB2B827EF";
shapes = (
{
closed = 1;
nodes = (
(268,-10,o),
(325,90,o),
(325,335,cs),
(325,395,ls),
(325,640,o),
(268,740,o),
(127,740,cs),
(99,740,o),
(67,736,o),
(32,728,c),
(32,2,l),
(67,-6,o),
(99,-10,o),
(127,-10,cs)
);
},
{
closed = 1;
nodes = (
(150,84,l),
(150,646,l),
(140,600,l),
(143,609,o),
(149,614,o),
(158,614,cs),
(192,614,o),
(207,544,o),
(207,385,cs),
(207,345,ls),
(207,186,o),
(192,116,o),
(158,116,cs),
(149,116,o),
(143,121,o),
(140,130,c)
);
},
{
closed = 1;
nodes = (
(583,0,l),
(583,118,l),
(479,118,l),
(479,122,l),
(583,402,l),
(583,520,l),
(348,520,l),
(348,402,l),
(452,402,l),
(452,398,l),
(348,118,l),
(348,0,l)
);
},
{
closed = 1;
nodes = (
(507,570,l),
(592,790,l),
(465,790,l),
(430,652,l),
(426,652,l),
(391,790,l),
(264,790,l),
(349,570,l)
);
}
);
vertWidth = 1000;
width = 600;
},
{
layerId = "72F02222-BF87-41FD-9A7E-0ABB550ED2DB";
shapes = (
{
closed = 1;
nodes = (
(269,-10,o),
(324,91,o),
(324,335,cs),
(324,395,ls),
(324,639,o),
(269,740,o),
(138,740,cs),
(112,740,o),
(82,736,o),
(47,728,c),
(47,2,l),
(82,-6,o),
(112,-10,o),
(138,-10,cs)
);
},
{
closed = 1;
nodes = (
(125,46,l),
(125,684,l),
(96,654,l),
(115,663,o),
(130,667,o),
(145,667,cs),
(216,667,o),
(246,585,o),
(246,390,cs),
(246,340,ls),
(246,145,o),
(216,63,o),
(145,63,cs),
(130,63,o),
(115,67,o),
(96,76,c)
);
},
{
closed = 1;
nodes = (
(576,0,l),
(576,70,l),
(429,70,l),
(429,74,l),
(576,450,l),
(576,520,l),
(346,520,l),
(346,450,l),
(493,450,l),
(493,446,l),
(346,70,l),
(346,0,l)
);
},
{
closed = 1;
nodes = (
(480,570,l),
(587,790,l),
(512,790,l),
(436,621,l),
(432,621,l),
(356,790,l),
(281,790,l),
(388,570,l)
);
}
);
vertWidth = 1000;
width = 600;
},
{
layerId = "D0C1F23C-2F9F-4D30-8C4D-098ED54EEF3D";
shapes = (
{
closed = 1;
nodes = (
(269,-10,o),
(321,92,o),
(321,335,cs),
(321,395,ls),
(321,638,o),
(269,740,o),
(147,740,cs),
(123,740,o),
(96,736,o),
(62,728,c),
(62,2,l),
(96,-6,o),
(123,-10,o),
(147,-10,cs)
);
},
{
closed = 1;
nodes = (
(82,8,l),
(82,722,l),
(67,709,l),
(101,717,o),
(126,720,o),
(147,720,cs),
(255,720,o),
(301,627,o),
(301,395,cs),
(301,335,ls),
(301,103,o),
(255,10,o),
(147,10,cs),
(126,10,o),
(101,13,o),
(67,21,c)
);
},
{
closed = 1;
nodes = (
(568,0,l),
(568,20,l),
(366,20,l),
(366,24,l),
(568,500,l),
(568,520,l),
(343,520,l),
(343,500,l),
(545,500,l),
(545,496,l),
(343,20,l),
(343,0,l)
);
},
{
closed = 1;
nodes = (
(453,570,l),
(582,790,l),
(559,790,l),
(442,590,l),
(438,590,l),
(321,790,l),
(298,790,l),
(427,570,l)
);
}
);
width = 600;
}
);
unicode = 453;
},
{
color = 6;
glyphname = E;
kernLeft = H;
kernRight = E;
lastChange = "2021-05-05 04:42:54 +0000";
layers = (
{
anchors = (
{
name = bottom;
pos = (250,0);
},
{
name = ogonek;
pos = (394,0);
},
{
name = top;
pos = (250,730);
},
{
name = topleft;
pos = (20,730);
}
);
layerId = "D65C9A1E-0FCA-4B2D-8EDF-9F36CA9182A1";
shapes = (
{
closed = 1;
nodes = (
(424,0,l),
(424,20,l),
(114,20,l),
(114,376,l),
(414,376,l),
(414,396,l),
(114,396,l),
(114,710,l),
(424,710,l),
(424,730,l),
(94,730,l),
(94,0,l)
);
}
);
width = 500;
},
{
anchors = (
{
name = bottom;
pos = (250,0);
},
{
name = ogonek;
pos = (387,0);
},
{
name = top;
pos = (250,730);
},
{
name = topleft;
pos = (20,730);
}
);
layerId = "E27A6A66-A1F8-4E1B-8224-7C0FE77551F2";
shapes = (
{
closed = 1;
nodes = (
(431,0,l),
(431,70,l),
(162,70,l),
(162,351,l),
(421,351,l),
(421,421,l),
(162,421,l),
(162,660,l),
(431,660,l),
(431,730,l),
(81,730,l),
(81,0,l)
);
}
);
vertWidth = 1000;
width = 500;
},
{
anchors = (
{
name = bottom;
pos = (250,0);
},
{
name = ogonek;
pos = (375,0);
},
{
name = top;
pos = (250,730);
},
{
name = topleft;
pos = (20,730);
}
);
layerId = "FC9CFCDA-9E80-4E73-BA51-8504D15957FA";
shapes = (
{
closed = 1;
nodes = (
(438,0,l),
(438,118,l),
(210,118,l),
(210,328,l),
(428,328,l),
(428,444,l),
(210,444,l),
(210,612,l),
(438,612,l),
(438,730,l),
(68,730,l),
(68,0,l)
);
}
);
vertWidth = 1000;
width = 500;
},
{
anchors = (
{
name = bottom;
pos = (300,0);
},
{
name = ogonek;
pos = (454,0);
},
{
name = top;
pos = (300,730);
},
{
name = topleft;
pos = (39,730);
}
);
layerId = "0F1A0AC1-B8D5-4257-ADED-894CB2B827EF";
shapes = (
{
closed = 1;
nodes = (
(517,0,l),
(517,118,l),
(229,118,l),
(229,328,l),
(507,328,l),
(507,444,l),
(229,444,l),
(229,612,l),
(517,612,l),
(517,730,l),
(87,730,l),
(87,0,l)
);
}
);
vertWidth = 1000;
width = 600;
},
{
anchors = (
{
name = bottom;
pos = (296,0);
},
{
name = ogonek;
pos = (463,0);
},
{
name = top;
pos = (296,730);
},
{
name = topleft;
pos = (36,730);
}
);
layerId = "72F02222-BF87-41FD-9A7E-0ABB550ED2DB";
shapes = (
{
closed = 1;
nodes = (
(507,0,l),
(507,70,l),
(178,70,l),
(178,351,l),
(497,351,l),
(497,421,l),
(178,421,l),
(178,660,l),
(507,660,l),
(507,730,l),
(97,730,l),
(97,0,l)
);
}
);
vertWidth = 1000;
width = 600;
},
{
anchors = (
{
name = bottom;
pos = (300,0);
},
{
name = ogonek;
pos = (467,0);
},
{
name = top;
pos = (300,730);
},
{
name = topleft;
pos = (33,730);
}
);
layerId = "D0C1F23C-2F9F-4D30-8C4D-098ED54EEF3D";
shapes = (
{
closed = 1;
nodes = (
(497,0,l),
(497,20,l),
(127,20,l),
(127,376,l),
(487,376,l),
(487,396,l),
(127,396,l),
(127,710,l),
(497,710,l),
(497,730,l),
(107,730,l),
(107,0,l)
);
}
);
width = 600;
}
);
unicode = 69;
},
{
color = 6;
glyphname = F;
kernLeft = H;
kernRight = F;
lastChange = "2021-05-05 04:42:54 +0000";
layers = (
{
layerId = "D65C9A1E-0FCA-4B2D-8EDF-9F36CA9182A1";
shapes = (
{
closed = 1;
nodes = (
(124,0,l),
(124,366,l),
(434,366,l),
(434,386,l),
(124,386,l),
(124,710,l),
(444,710,l),
(444,730,l),
(104,730,l),
(104,0,l)
);
}
);
width = 500;
},
{
layerId = "E27A6A66-A1F8-4E1B-8224-7C0FE77551F2";
shapes = (
{
closed = 1;
nodes = (
(169,0,l),
(169,341,l),
(437,341,l),
(437,411,l),
(169,411,l),
(169,660,l),
(447,660,l),
(447,730,l),
(87,730,l),
(87,0,l)
);
}
);
vertWidth = 1000;
width = 500;
},
{
layerId = "FC9CFCDA-9E80-4E73-BA51-8504D15957FA";
shapes = (
{
closed = 1;
nodes = (
(214,0,l),
(214,316,l),
(440,316,l),
(440,436,l),
(214,436,l),
(214,610,l),
(450,610,l),
(450,730,l),
(70,730,l),
(70,0,l)
);
}
);
vertWidth = 1000;
width = 500;
},
{
layerId = "0F1A0AC1-B8D5-4257-ADED-894CB2B827EF";
shapes = (
{
closed = 1;
nodes = (
(230,0,l),
(230,316,l),
(516,316,l),
(516,436,l),
(230,436,l),
(230,610,l),
(526,610,l),
(526,730,l),
(86,730,l),
(86,0,l)
);
}
);
vertWidth = 1000;
width = 600;
},
{
layerId = "72F02222-BF87-41FD-9A7E-0ABB550ED2DB";
shapes = (
{
closed = 1;
nodes = (
(182,0,l),
(182,341,l),
(510,341,l),
(510,411,l),
(182,411,l),
(182,660,l),
(520,660,l),
(520,730,l),
(100,730,l),
(100,0,l)
);
}
);
vertWidth = 1000;
width = 600;
},
{
layerId = "D0C1F23C-2F9F-4D30-8C4D-098ED54EEF3D";
shapes = (
{
closed = 1;
nodes = (
(134,0,l),
(134,366,l),
(504,366,l),
(504,386,l),
(134,386,l),
(134,710,l),
(514,710,l),
(514,730,l),
(114,730,l),
(114,0,l)
);
}
);
width = 600;
}
);
unicode = 70;
},
{
color = 6;
glyphname = G;
kernLeft = O;
kernRight = G;
lastChange = "2021-05-05 04:42:54 +0000";
layers = (
{
anchors = (
{
name = bottom;
pos = (270,0);
},
{
name = top;
pos = (270,730);
}
);
layerId = "E27A6A66-A1F8-4E1B-8224-7C0FE77551F2";
shapes = (
{
closed = 1;
nodes = (
(346,-10,o),
(404,-3,o),
(447,10,c),
(447,420,l),
(217,420,l),
(217,352,l),
(367,352,l),
(367,44,l),
(398,82,l),
(364,68,o),
(328,62,o),
(297,62,cs),
(178,62,o),
(119,154,o),
(119,340,cs),
(119,390,ls),
(119,584,o),
(178,668,o),
(314,668,cs),
(350,668,o),
(390,662,o),
(428,653,c),
(428,727,l),
(391,735,o),
(348,740,o),
(309,740,cs),
(126,740,o),
(37,627,o),
(37,395,cs),
(37,335,ls),
(37,103,o),
(124,-10,o),
(302,-10,cs)
);
}
);
vertWidth = 1000;
width = 500;
},
{
anchors = (
{
name = bottom;
pos = (270,0);
},
{
name = top;
pos = (270,730);
}
);
layerId = "FC9CFCDA-9E80-4E73-BA51-8504D15957FA";
shapes = (
{
closed = 1;
nodes = (
(351,-10,o),
(415,-2,o),
(460,10,c),
(460,444,l),
(220,444,l),
(220,328,l),
(320,328,l),
(320,69,l),
(369,146,l),
(341,124,o),
(319,116,o),
(292,116,cs),
(208,116,o),
(164,195,o),
(164,345,cs),
(164,385,ls),
(164,550,o),
(208,614,o),
(322,614,cs),
(360,614,o),
(398,607,o),
(440,596,c),
(440,726,l),
(400,734,o),
(356,740,o),
(311,740,cs),
(115,740,o),
(20,627,o),
(20,395,cs),
(20,335,ls),
(20,103,o),
(112,-10,o),
(301,-10,cs)
);
}
);
vertWidth = 1000;
width = 500;
},
{
anchors = (
{
name = bottom;
pos = (270,0);
},
{
name = top;
pos = (270,730);
}
);
layerId = "D65C9A1E-0FCA-4B2D-8EDF-9F36CA9182A1";
shapes = (
{
closed = 1;
nodes = (
(344,-10,o),
(392,-3,o),
(433,10,c),
(433,396,l),
(213,396,l),
(213,376,l),
(413,376,l),
(413,19,l),
(427,29,l),
(389,17,o),
(343,10,o),
(302,10,cs),
(147,10,o),
(73,114,o),
(73,335,cs),
(73,395,ls),
(73,616,o),
(148,720,o),
(306,720,cs),
(341,720,o),
(381,715,o),
(416,707,c),
(416,727,l),
(381,735,o),
(342,740,o),
(306,740,cs),
(136,740,o),
(53,627,o),
(53,395,cs),
(53,335,ls),
(53,103,o),
(135,-10,o),
(302,-10,cs)
);
}
);
width = 500;
},
{
anchors = (
{
name = bottom;
pos = (320,0);
},
{
name = top;
pos = (320,730);
}
);
layerId = "0F1A0AC1-B8D5-4257-ADED-894CB2B827EF";
shapes = (
{
closed = 1;
nodes = (
(412,-10,o),
(485,-2,o),
(536,10,c),
(536,444,l),
(263,444,l),
(263,328,l),
(396,328,l),
(396,69,l),
(454,146,l),
(417,124,o),
(387,116,o),
(351,116,cs),
(239,116,o),
(180,195,o),
(180,345,cs),
(180,385,ls),
(180,550,o),
(233,614,o),
(371,614,cs),
(417,614,o),
(463,607,o),
(513,596,c),
(513,726,l),
(468,734,o),
(418,740,o),
(367,740,cs),
(144,740,o),
(36,627,o),
(36,395,cs),
(36,335,ls),
(36,103,o),
(141,-10,o),
(355,-10,cs)
);
}
);
vertWidth = 1000;
width = 600;
},
{
anchors = (
{
name = bottom;
pos = (320,0);
},
{
name = top;
pos = (320,730);
}
);
layerId = "72F02222-BF87-41FD-9A7E-0ABB550ED2DB";
shapes = (
{
closed = 1;
nodes = (
(405,-10,o),
(467,-2,o),
(518,10,c),
(518,420,l),
(254,420,l),
(254,352,l),
(438,352,l),
(438,44,l),
(474,87,l),
(435,70,o),
(394,62,o),
(351,62,cs),
(204,62,o),
(130,155,o),
(130,340,cs),
(130,390,ls),
(130,582,o),
(201,668,o),
(360,668,cs),
(398,668,o),
(438,663,o),
(497,652,c),
(497,726,l),
(446,735,o),
(403,740,o),
(359,740,cs),
(150,740,o),
(48,627,o),
(48,395,cs),
(48,335,ls),
(48,104,o),
(148,-10,o),
(351,-10,cs)
);
}
);
vertWidth = 1000;
width = 600;
},
{
anchors = (
{
name = bottom;
pos = (320,0);
},
{
name = top;
pos = (320,730);
}
);
layerId = "D0C1F23C-2F9F-4D30-8C4D-098ED54EEF3D";
shapes = (
{
closed = 1;
nodes = (
(397,-10,o),
(453,-3,o),
(500,10,c),
(500,396,l),
(245,396,l),
(245,376,l),
(480,376,l),
(480,19,l),
(495,29,l),
(451,17,o),
(397,10,o),
(349,10,cs),
(167,10,o),
(80,114,o),
(80,335,cs),
(80,395,ls),
(80,616,o),
(168,720,o),
(353,720,cs),
(393,720,o),
(439,714,o),
(480,706,c),
(480,727,l),
(440,735,o),
(395,740,o),
(353,740,cs),
(156,740,o),
(60,627,o),
(60,395,cs),
(60,335,ls),
(60,103,o),
(155,-10,o),
(349,-10,cs)
);
}
);
width = 600;
}
);
unicode = 71;
},
{
color = 6;
glyphname = H;
kernLeft = H;
kernRight = H;
lastChange = "2021-05-05 04:42:54 +0000";
layers = (
{
anchors = (
{
name = bottom;
pos = (250,0);
},
{
name = center;
pos = (250,365);
},
{
name = top;
pos = (250,730);
},
{
name = topleft;
pos = (20,730);
}
);
layerId = "D65C9A1E-0FCA-4B2D-8EDF-9F36CA9182A1";
shapes = (
{
closed = 1;
nodes = (
(90,0,l),
(90,376,l),
(410,376,l),
(410,0,l),
(430,0,l),
(430,730,l),
(410,730,l),
(410,396,l),
(90,396,l),
(90,730,l),
(70,730,l),
(70,0,l)
);
}
);
width = 500;
},
{
anchors = (
{
name = bottom;
pos = (250,0);
},
{
name = center;
pos = (250,365);
},
{
name = top;
pos = (250,730);
},
{
name = topleft;
pos = (20,730);
}
);
layerId = "E27A6A66-A1F8-4E1B-8224-7C0FE77551F2";
shapes = (
{
closed = 1;
nodes = (
(135,0,l),
(135,350,l),
(365,350,l),
(365,0,l),
(445,0,l),
(445,730,l),
(365,730,l),
(365,422,l),
(135,422,l),
(135,730,l),
(55,730,l),
(55,0,l)
);
}
);
vertWidth = 1000;
width = 500;
},
{
anchors = (
{
name = bottom;
pos = (250,0);
},
{
name = center;
pos = (250,365);
},
{
name = top;
pos = (250,730);
},
{
name = topleft;
pos = (20,730);
}
);
layerId = "FC9CFCDA-9E80-4E73-BA51-8504D15957FA";
shapes = (
{
closed = 1;
nodes = (
(180,0,l),
(180,324,l),
(320,324,l),
(320,0,l),
(460,0,l),
(460,730,l),
(320,730,l),
(320,448,l),
(180,448,l),
(180,730,l),
(40,730,l),
(40,0,l)
);
}
);
vertWidth = 1000;
width = 500;
},
{
anchors = (
{
name = bottom;
pos = (300,0);
},
{
name = center;
pos = (300,365);
},
{
name = top;
pos = (300,730);
},
{
name = topleft;
pos = (35,730);
}
);
layerId = "0F1A0AC1-B8D5-4257-ADED-894CB2B827EF";
shapes = (
{
closed = 1;
nodes = (
(195,0,l),
(195,324,l),
(405,324,l),
(405,0,l),
(545,0,l),
(545,730,l),
(405,730,l),
(405,448,l),
(195,448,l),
(195,730,l),
(55,730,l),
(55,0,l)
);
}
);
vertWidth = 1000;
width = 600;
},
{
anchors = (
{
name = bottom;
pos = (300,0);
},
{
name = center;
pos = (300,365);
},
{
name = top;
pos = (300,730);
},
{
name = topleft;
pos = (35,730);
}
);
layerId = "72F02222-BF87-41FD-9A7E-0ABB550ED2DB";
shapes = (
{
closed = 1;
nodes = (
(150,0,l),
(150,350,l),
(450,350,l),
(450,0,l),
(530,0,l),
(530,730,l),
(450,730,l),
(450,422,l),
(150,422,l),
(150,730,l),
(70,730,l),
(70,0,l)
);
}
);
vertWidth = 1000;
width = 600;
},
{
anchors = (
{
name = bottom;
pos = (300,0);
},
{
name = center;
pos = (300,365);
},
{
name = top;
pos = (300,730);
},
{
name = topleft;
pos = (35,730);
}
);
layerId = "D0C1F23C-2F9F-4D30-8C4D-098ED54EEF3D";
shapes = (
{
closed = 1;
nodes = (
(105,0,l),
(105,376,l),
(495,376,l),
(495,0,l),
(515,0,l),
(515,730,l),
(495,730,l),
(495,396,l),
(105,396,l),
(105,730,l),
(85,730,l),
(85,0,l)
);
}
);
width = 600;
}
);
metricRight = "=|";
unicode = 72;
},
{
color = 10;
glyphname = Hbar;
kernLeft = W;
kernRight = W;
lastChange = "2021-05-05 04:42:54 +0000";
layers = (
{
layerId = "D65C9A1E-0FCA-4B2D-8EDF-9F36CA9182A1";
shapes = (
{
closed = 1;
nodes = (
(495,586,l),
(495,606,l),
(5,606,l),
(5,586,l)
);
},
{
ref = H;
}
);
width = 500;
},
{
layerId = "E27A6A66-A1F8-4E1B-8224-7C0FE77551F2";
shapes = (
{
closed = 1;
nodes = (
(495,561,l),
(495,631,l),
(5,631,l),
(5,561,l)
);
},
{
alignment = -1;
ref = H;
}
);
vertWidth = 1000;
width = 500;
},
{
layerId = "FC9CFCDA-9E80-4E73-BA51-8504D15957FA";
shapes = (
{
closed = 1;
nodes = (
(495,538,l),
(495,654,l),
(5,654,l),
(5,538,l)
);
},
{
ref = H;
}
);
vertWidth = 1000;
width = 500;
},
{
layerId = "0F1A0AC1-B8D5-4257-ADED-894CB2B827EF";
shapes = (
{
closed = 1;
nodes = (
(595,538,l),
(595,654,l),
(5,654,l),
(5,538,l)
);
},
{
ref = H;
}
);
vertWidth = 1000;
width = 600;
},
{
layerId = "72F02222-BF87-41FD-9A7E-0ABB550ED2DB";
shapes = (
{
closed = 1;
nodes = (
(590,561,l),
(590,631,l),
(10,631,l),
(10,561,l)
);
},
{
alignment = -1;
ref = H;
}
);
vertWidth = 1000;
width = 600;
},
{
layerId = "D0C1F23C-2F9F-4D30-8C4D-098ED54EEF3D";
shapes = (
{
closed = 1;
nodes = (
(585,586,l),
(585,606,l),
(15,606,l),
(15,586,l)
);
},
{
ref = H;
}
);
width = 600;
}
);
unicode = 294;
},
{
color = 6;
glyphname = I;
kernLeft = I;
kernRight = I;
lastChange = "2021-05-05 04:42:54 +0000";
layers = (
{
anchors = (
{
name = bottom;
pos = (250,0);
},
{
name = ogonek;
pos = (390,0);
},
{
name = top;
pos = (250,730);
},
{
name = topleft;
pos = (20,730);
}
);
layerId = "D65C9A1E-0FCA-4B2D-8EDF-9F36CA9182A1";
shapes = (
{
closed = 1;
nodes = (
(420,0,l),
(420,20,l),
(260,20,l),
(260,710,l),
(420,710,l),
(420,730,l),
(80,730,l),
(80,710,l),
(240,710,l),
(240,20,l),
(80,20,l),
(80,0,l)
);
}
);
width = 500;
},
{
anchors = (
{
name = bottom;
pos = (250,0);
},
{
name = ogonek;
pos = (381,0);
},
{
name = top;
pos = (250,730);
},
{
name = topleft;
pos = (20,730);
}
);
layerId = "E27A6A66-A1F8-4E1B-8224-7C0FE77551F2";
shapes = (
{
closed = 1;
nodes = (
(425,0,l),
(425,70,l),
(291,70,l),
(291,660,l),
(425,660,l),
(425,730,l),
(75,730,l),
(75,660,l),
(209,660,l),
(209,70,l),
(75,70,l),
(75,0,l)
);
}
);
vertWidth = 1000;
width = 500;
},
{
anchors = (
{
name = bottom;
pos = (250,0);
},
{
name = ogonek;
pos = (367,0);
},
{
name = top;
pos = (250,730);
},
{
name = topleft;
pos = (20,730);
}
);
layerId = "FC9CFCDA-9E80-4E73-BA51-8504D15957FA";
shapes = (
{
closed = 1;
nodes = (
(430,0,l),
(430,120,l),
(322,120,l),
(322,610,l),
(430,610,l),
(430,730,l),
(70,730,l),
(70,610,l),
(178,610,l),
(178,120,l),
(70,120,l),
(70,0,l)
);
}
);
vertWidth = 1000;
width = 500;
},
{
anchors = (
{
name = bottom;
pos = (300,0);
},
{
name = ogonek;
pos = (437,0);
},
{
name = top;
pos = (300,730);
},
{
name = topleft;
pos = (50,730);
}
);
layerId = "0F1A0AC1-B8D5-4257-ADED-894CB2B827EF";
shapes = (
{
closed = 1;
nodes = (
(500,0,l),
(500,120,l),
(372,120,l),
(372,610,l),
(500,610,l),
(500,730,l),
(100,730,l),
(100,610,l),
(228,610,l),
(228,120,l),
(100,120,l),
(100,0,l)
);
}
);
vertWidth = 1000;
width = 600;
},
{
anchors = (
{
name = bottom;
pos = (300,0);
},
{
name = ogonek;
pos = (446,0);
},
{
name = top;
pos = (300,730);
},
{
name = topleft;
pos = (55,730);
}
);
layerId = "72F02222-BF87-41FD-9A7E-0ABB550ED2DB";
shapes = (
{
closed = 1;
nodes = (
(490,0,l),
(490,70,l),
(341,70,l),
(341,660,l),
(490,660,l),
(490,730,l),
(110,730,l),
(110,660,l),
(259,660,l),
(259,70,l),
(110,70,l),
(110,0,l)
);
}
);
vertWidth = 1000;
width = 600;
},
{
anchors = (
{
name = bottom;
pos = (300,0);
},
{
name = ogonek;
pos = (450,0);
},
{
name = top;
pos = (300,730);
},
{
name = topleft;
pos = (60,730);
}
);
layerId = "D0C1F23C-2F9F-4D30-8C4D-098ED54EEF3D";
shapes = (
{
closed = 1;
nodes = (
(480,0,l),
(480,20,l),
(310,20,l),
(310,710,l),
(480,710,l),
(480,730,l),
(120,730,l),
(120,710,l),
(290,710,l),
(290,20,l),
(120,20,l),
(120,0,l)
);
}
);
width = 600;
}
);
metricRight = "=|";
unicode = 73;
},
{
color = 6;
glyphname = J;
kernLeft = J;
kernRight = U;
lastChange = "2021-05-05 04:42:54 +0000";
layers = (
{
anchors = (
{
name = bottom;
pos = (230,0);
},
{
name = top;
pos = (230,730);
}
);
layerId = "D65C9A1E-0FCA-4B2D-8EDF-9F36CA9182A1";
shapes = (
{
closed = 1;
nodes = (
(320,-10,o),
(378,52,o),
(378,195,cs),
(378,730,l),
(88,730,l),
(88,710,l),
(358,710,l),
(358,195,ls),
(358,63,o),
(308,10,o),
(186,10,cs),
(133,10,o),
(88,20,o),
(48,41,c),
(48,19,l),
(87,0,o),
(132,-10,o),
(186,-10,cs)
);
}
);
width = 500;
},
{
anchors = (
{
name = bottom;
pos = (235,0);
},
{
name = top;
pos = (235,730);
}
);
layerId = "E27A6A66-A1F8-4E1B-8224-7C0FE77551F2";
shapes = (
{
closed = 1;
nodes = (
(334,-10,o),
(395,52,o),
(395,195,cs),
(395,730,l),
(85,730,l),
(85,660,l),
(313,660,l),
(313,202,ls),
(313,103,o),
(275,62,o),
(182,62,cs),
(132,62,o),
(86,74,o),
(45,94,c),
(45,19,l),
(87,0,o),
(135,-10,o),
(192,-10,cs)
);
}
);
vertWidth = 1000;
width = 500;
},
{
anchors = (
{
name = bottom;
pos = (240,0);
},
{
name = top;
pos = (240,730);
}
);
layerId = "FC9CFCDA-9E80-4E73-BA51-8504D15957FA";
shapes = (
{
closed = 1;
nodes = (
(347,-10,o),
(412,52,o),
(412,195,cs),
(412,730,l),
(82,730,l),
(82,610,l),
(268,610,l),
(268,210,ls),
(268,144,o),
(241,116,o),
(177,116,cs),
(134,116,o),
(83,129,o),
(42,149,c),
(42,19,l),
(86,0,o),
(137,-10,o),
(197,-10,cs)
);
}
);
vertWidth = 1000;
width = 500;
},
{
anchors = (
{
name = bottom;
pos = (290,0);
},
{
name = top;
pos = (290,730);
}
);
layerId = "0F1A0AC1-B8D5-4257-ADED-894CB2B827EF";
shapes = (
{
closed = 1;
nodes = (
(410,-10,o),
(482,52,o),
(482,195,cs),
(482,730,l),
(116,730,l),
(116,610,l),
(338,610,l),
(338,210,ls),
(338,144,o),
(307,116,o),
(231,116,cs),
(181,116,o),
(121,128,o),
(72,149,c),
(72,19,l),
(121,0,o),
(177,-10,o),
(244,-10,cs)
);
}
);
vertWidth = 1000;
width = 600;
},
{
anchors = (
{
name = bottom;
pos = (290,0);
},
{
name = top;
pos = (290,730);
}
);
layerId = "72F02222-BF87-41FD-9A7E-0ABB550ED2DB";
shapes = (
{
closed = 1;
nodes = (
(397,-10,o),
(465,52,o),
(465,195,cs),
(465,730,l),
(119,730,l),
(119,660,l),
(383,660,l),
(383,203,ls),
(383,103,o),
(339,62,o),
(232,62,cs),
(177,62,o),
(121,73,o),
(75,94,c),
(74.994,19,l),
(121,0,o),
(175.004,-10,o),
(239,-10,cs)
);
}
);
vertWidth = 1000;
width = 600;
},
{
anchors = (
{
name = bottom;
pos = (290,0);
},
{
name = top;
pos = (290,730);
}
);
layerId = "D0C1F23C-2F9F-4D30-8C4D-098ED54EEF3D";
shapes = (
{
closed = 1;
nodes = (
(383,-10,o),
(448,52,o),
(448,195,cs),
(448,730,l),
(123,730,l),
(123,710,l),
(428,710,l),
(428,195,ls),
(428,63,o),
(372,10,o),
(233,10,cs),
(173,10,o),
(122,20,o),
(78,41,c),
(78,19,l),
(122,0,o),
(173,-10,o),
(233,-10,cs)
);
}
);
width = 600;
}
);
unicode = 74;
},
{
color = 6;
glyphname = K;
kernLeft = H;
kernRight = K;
lastChange = "2021-05-05 04:42:54 +0000";
layers = (
{
anchors = (
{
name = bottom;
pos = (230,0);
},
{
name = top;
pos = (230,730);
}
);
layerId = "D65C9A1E-0FCA-4B2D-8EDF-9F36CA9182A1";
shapes = (
{
closed = 1;
nodes = (
(112,0,l),
(112,370,l),
(116,370,l),
(436,0,l),
(462,0,l),
(127,386,l),
(462,730,l),
(434,730,l),
(116,403,l),
(112,403,l),
(112,730,l),
(92,730,l),
(92,0,l)
);
}
);
width = 500;
},
{
anchors = (
{
name = bottom;
pos = (235,0);
},
{
name = top;
pos = (235,730);
}
);
layerId = "E27A6A66-A1F8-4E1B-8224-7C0FE77551F2";
shapes = (
{
closed = 1;
nodes = (
(155,0,l),
(155,358,l),
(159,358,l),
(385,0,l),
(475,0,l),
(230,386,l),
(475,730,l),
(384,730,l),
(159,414,l),
(155,414,l),
(155,730,l),
(75,730,l),
(75,0,l)
);
}
);
vertWidth = 1000;
width = 500;
},
{
anchors = (
{
name = bottom;
pos = (240,0);
},
{
name = top;
pos = (240,730);
}
);
layerId = "FC9CFCDA-9E80-4E73-BA51-8504D15957FA";
shapes = (
{
closed = 1;
nodes = (
(198,0,l),
(198,346,l),
(202,346,l),
(338,0,l),
(488,0,l),
(333,386,l),
(488,730,l),
(338,730,l),
(202,426,l),
(198,426,l),
(198,730,l),
(58,730,l),
(58,0,l)
);
}
);
vertWidth = 1000;
width = 500;
},
{
anchors = (
{
name = bottom;
pos = (280,0);
},
{
name = top;
pos = (280,730);
}
);
layerId = "0F1A0AC1-B8D5-4257-ADED-894CB2B827EF";
shapes = (
{
closed = 1;
nodes = (
(208,0,l),
(208,346,l),
(212,346,l),
(414,0,l),
(568,0,l),
(343,386,l),
(568,730,l),
(414,730,l),
(212,426,l),
(208,426,l),
(208,730,l),
(68,730,l),
(68,0,l)
);
}
);
vertWidth = 1000;
width = 600;
},
{
anchors = (
{
name = bottom;
pos = (280,0);
},
{
name = top;
pos = (280,730);
}
);
layerId = "72F02222-BF87-41FD-9A7E-0ABB550ED2DB";
shapes = (
{
closed = 1;
nodes = (
(170,0,l),
(170,357,l),
(174,357,l),
(459,0,l),
(550,0,l),
(245,386,l),
(550,730,l),
(458,730,l),
(174,415,l),
(170,415,l),
(170,730,l),
(90,730,l),
(90,0,l)
);
}
);
vertWidth = 1000;
width = 600;
},
{
anchors = (
{
name = bottom;
pos = (280,0);
},
{
name = top;
pos = (280,730);
}
);
layerId = "D0C1F23C-2F9F-4D30-8C4D-098ED54EEF3D";
shapes = (
{
closed = 1;
nodes = (
(132,0,l),
(132,369,l),
(136,369,l),
(504,0,l),
(532,0,l),
(147,386,l),
(532,730,l),
(502,730,l),
(136,403,l),
(132,403,l),
(132,730,l),
(112,730,l),
(112,0,l)
);
}
);
width = 600;
}
);
unicode = 75;
},
{
color = 6;
glyphname = L;
kernLeft = H;
kernRight = L;
lastChange = "2021-05-05 04:42:54 +0000";
layers = (
{
anchors = (
{
name = bottom;
pos = (250,0);
},
{
name = center;
pos = (250,365);
},
{
name = pdcenter;
pos = (330,385);
},
{
name = top;
pos = (250,730);
},
{
name = topright;
pos = (300,460);
}
);
layerId = "D65C9A1E-0FCA-4B2D-8EDF-9F36CA9182A1";
shapes = (
{
closed = 1;
nodes = (
(445,0,l),
(445,20,l),
(115,20,l),
(115,730,l),
(95,730,l),
(95,0,l)
);
}
);
width = 500;
},
{
anchors = (
{
name = bottom;
pos = (250,0);
},
{
name = center;
pos = (250,365);
},
{
name = pdcenter;
pos = (350,385);
},
{
name = top;
pos = (250,730);
},
{
name = topright;
pos = (320,460);
}
);
layerId = "E27A6A66-A1F8-4E1B-8224-7C0FE77551F2";
shapes = (
{
closed = 1;
nodes = (
(450,0,l),
(450,72,l),
(162,72,l),
(162,730,l),
(80,730,l),
(80,0,l)
);
}
);
vertWidth = 1000;
width = 500;
},
{
anchors = (
{
name = bottom;
pos = (250,0);
},
{
name = center;
pos = (250,365);
},
{
name = pdcenter;
pos = (370,385);
},
{
name = top;
pos = (250,730);
},
{
name = topright;
pos = (340,460);
}
);
layerId = "FC9CFCDA-9E80-4E73-BA51-8504D15957FA";
shapes = (
{
closed = 1;
nodes = (
(455,0,l),
(455,124,l),
(209,124,l),
(209,730,l),
(65,730,l),
(65,0,l)
);
}
);
vertWidth = 1000;
width = 500;
},
{
anchors = (
{
name = bottom;
pos = (300,0);
},
{
name = center;
pos = (300,365);
},
{
name = pdcenter;
pos = (420,385);
},
{
name = top;
pos = (300,730);
},
{
name = topright;
pos = (390,460);
}
);
layerId = "0F1A0AC1-B8D5-4257-ADED-894CB2B827EF";
shapes = (
{
closed = 1;
nodes = (
(535,0,l),
(535,124,l),
(229,124,l),
(229,730,l),
(85,730,l),
(85,0,l)
);
}
);
vertWidth = 1000;
width = 600;
},
{
anchors = (
{
name = bottom;
pos = (300,0);
},
{
name = center;
pos = (300,365);
},
{
name = pdcenter;
pos = (400,385);
},
{
name = top;
pos = (300,730);
},
{
name = topright;
pos = (370,460);
}
);
layerId = "72F02222-BF87-41FD-9A7E-0ABB550ED2DB";
shapes = (
{
closed = 1;
nodes = (
(530,0,l),
(530,72,l),
(182,72,l),
(182,730,l),
(100,730,l),
(100,0,l)
);
}
);
vertWidth = 1000;
width = 600;
},
{
anchors = (
{
name = bottom;
pos = (300,0);
},
{
name = center;
pos = (300,365);
},
{
name = pdcenter;
pos = (380,385);
},
{
name = top;
pos = (300,730);
},
{
name = topright;
pos = (350,460);
}
);
layerId = "D0C1F23C-2F9F-4D30-8C4D-098ED54EEF3D";
shapes = (
{
closed = 1;
nodes = (
(525,0,l),
(525,20,l),
(135,20,l),
(135,730,l),
(115,730,l),
(115,0,l)
);
}
);
width = 600;
}
);
unicode = 76;
},
{
color = 10;
glyphname = LJ;
kernLeft = H;
kernRight = U;
lastChange = "2021-05-05 04:42:54 +0000";
layers = (
{
layerId = "D65C9A1E-0FCA-4B2D-8EDF-9F36CA9182A1";
shapes = (
{
closed = 1;
nodes = (
(315,0,l),
(315,20,l),
(95,20,l),
(95,730,l),
(75,730,l),
(75,0,l)
);
},
{
closed = 1;
nodes = (
(367,-220,o),
(425,-158,o),
(425,-15,cs),
(425,730,l),
(185,730,l),
(185,710,l),
(405,710,l),
(405,-15,ls),
(405,-147,o),
(355,-200,o),
(233,-200,cs),
(180,-200,o),
(135,-190,o),
(95,-169,c),
(95,-191,l),
(134,-210,o),
(179,-220,o),
(233,-220,cs)
);
}
);
width = 500;
},
{
layerId = "E27A6A66-A1F8-4E1B-8224-7C0FE77551F2";
shapes = (
{
closed = 1;
nodes = (
(295,0,l),
(295,72,l),
(137,72,l),
(137,730,l),
(55,730,l),
(55,0,l)
);
},
{
closed = 1;
nodes = (
(384,-220,o),
(445,-158,o),
(445,-15,cs),
(445,730,l),
(205,730,l),
(205,660,l),
(363,660,l),
(363,-8,ls),
(363,-107,o),
(325,-148,o),
(232,-148,cs),
(182,-148,o),
(136,-136,o),
(95,-116,c),
(95,-191,l),
(137,-210,o),
(185,-220,o),
(242,-220,cs)
);
}
);
vertWidth = 1000;
width = 500;
},
{
layerId = "FC9CFCDA-9E80-4E73-BA51-8504D15957FA";
shapes = (
{
closed = 1;
nodes = (
(275,0,l),
(275,124,l),
(179,124,l),
(179,730,l),
(35,730,l),
(35,0,l)
);
},
{
closed = 1;
nodes = (
(400,-220,o),
(465,-158,o),
(465,-15,cs),
(465,730,l),
(225,730,l),
(225,610,l),
(321,610,l),
(321,0,ls),
(321,-66,o),
(294,-94,o),
(230,-94,cs),
(187,-94,o),
(136,-81,o),
(95,-61,c),
(95,-191,l),
(139,-210,o),
(190,-220,o),
(250,-220,cs)
);
}
);
vertWidth = 1000;
width = 500;
},
{
layerId = "0F1A0AC1-B8D5-4257-ADED-894CB2B827EF";
shapes = (
{
closed = 1;
nodes = (
(340,0,l),
(340,124,l),
(210,124,l),
(210,730,l),
(70,730,l),
(70,0,l)
);
},
{
closed = 1;
nodes = (
(459,-220,o),
(530,-158,o),
(530,-15,cs),
(530,730,l),
(260,730,l),
(260,610,l),
(390,610,l),
(390,0,ls),
(390,-66,o),
(359,-94,o),
(286,-94,cs),
(236,-94,o),
(175,-81,o),
(127,-61,c),
(127,-191,l),
(175,-210,o),
(229,-220,o),
(295,-220,cs)
);
}
);
vertWidth = 1000;
width = 600;
},
{
layerId = "72F02222-BF87-41FD-9A7E-0ABB550ED2DB";
shapes = (
{
closed = 1;
nodes = (
(359,0,l),
(359,72,l),
(165,72,l),
(165,730,l),
(85,730,l),
(85,0,l)
);
},
{
closed = 1;
nodes = (
(448,-220,o),
(515,-158,o),
(515,-15,cs),
(515,730,l),
(241,730,l),
(241,660,l),
(435,660,l),
(435,-7,ls),
(435,-107,o),
(392,-148,o),
(287,-148,cs),
(230,-148,o),
(177,-136,o),
(131,-116,c),
(131,-191,l),
(177,-210,o),
(229,-220,o),
(292,-220,cs)
);
}
);
vertWidth = 1000;
width = 600;
},
{
layerId = "D0C1F23C-2F9F-4D30-8C4D-098ED54EEF3D";
shapes = (
{
closed = 1;
nodes = (
(379,0,l),
(379,20,l),
(120,20,l),
(120,730,l),
(100,730,l),
(100,0,l)
);
},
{
closed = 1;
nodes = (
(436,-220,o),
(500,-158,o),
(500,-15,cs),
(500,730,l),
(221,730,l),
(221,710,l),
(480,710,l),
(480,-15,ls),
(480,-147,o),
(425,-200,o),
(288,-200,cs),
(229,-200,o),
(180,-190,o),
(136,-169,c),
(136,-191,l),
(179,-210,o),
(228,-220,o),
(288,-220,cs)
);
}
);
width = 600;
}
);
unicode = 455;
},
{
color = 10;
glyphname = Lj;
kernLeft = H;
kernRight = g;
lastChange = "2021-05-05 04:42:54 +0000";
layers = (
{
layerId = "D65C9A1E-0FCA-4B2D-8EDF-9F36CA9182A1";
shapes = (
{
closed = 1;
nodes = (
(315,0,l),
(315,20,l),
(95,20,l),
(95,730,l),
(75,730,l),
(75,0,l)
);
},
{
closed = 1;
nodes = (
(205,-220,l),
(350,-220,o),
(425,-131,o),
(425,41,cs),
(425,520,l),
(245,520,l),
(245,500,l),
(405,500,l),
(405,41,ls),
(405,-119,o),
(338,-200,o),
(205,-200,c)
);
},
{
closed = 1;
nodes = (
(428,658,o),
(445,674,o),
(445,699,cs),
(445,724,o),
(428,740,o),
(403,740,cs),
(378,740,o),
(361,724,o),
(361,699,cs),
(361,674,o),
(378,658,o),
(403,658,cs)
);
}
);
width = 500;
},
{
layerId = "E27A6A66-A1F8-4E1B-8224-7C0FE77551F2";
shapes = (
{
closed = 1;
nodes = (
(295,0,l),
(295,72,l),
(137,72,l),
(137,730,l),
(55,730,l),
(55,0,l)
);
},
{
closed = 1;
nodes = (
(185,-220,l),
(360,-220,o),
(445,-134,o),
(445,43,cs),
(445,520,l),
(235,520,l),
(235,450,l),
(365,450,l),
(365,37,ls),
(365,-92,o),
(309,-150,o),
(185,-150,c)
);
},
{
closed = 1;
nodes = (
(432,614,o),
(460,640,o),
(460,682,cs),
(460,724,o),
(432,750,o),
(389,750,cs),
(346,750,o),
(318,724,o),
(318,682,cs),
(318,640,o),
(346,614,o),
(389,614,cs)
);
}
);
vertWidth = 1000;
width = 500;
},
{
layerId = "FC9CFCDA-9E80-4E73-BA51-8504D15957FA";
shapes = (
{
closed = 1;
nodes = (
(279,0,l),
(279,124,l),
(179,124,l),
(179,730,l),
(35,730,l),
(35,0,l)
);
},
{
closed = 1;
nodes = (
(165,-220,l),
(370,-220,o),
(465,-136,o),
(465,45,cs),
(465,520,l),
(225,520,l),
(225,402,l),
(325,402,l),
(325,34,ls),
(325,-60,o),
(279,-98,o),
(165,-98,c)
);
},
{
closed = 1;
nodes = (
(438,580,o),
(475,614,o),
(475,670,cs),
(475,726,o),
(438,760,o),
(380,760,cs),
(322,760,o),
(285,726,o),
(285,670,cs),
(285,614,o),
(322,580,o),
(380,580,cs)
);
}
);
vertWidth = 1000;
width = 500;
},
{
layerId = "0F1A0AC1-B8D5-4257-ADED-894CB2B827EF";
shapes = (
{
closed = 1;
nodes = (
(340,0,l),
(340,124,l),
(210,124,l),
(210,730,l),
(70,730,l),
(70,0,l)
);
},
{
closed = 1;
nodes = (
(203,-220,l),
(427,-220,o),
(530,-136,o),
(530,45,cs),
(530,520,l),
(260,520,l),
(260,402,l),
(390,402,l),
(390,34,ls),
(390,-60,o),
(336,-98,o),
(203,-98,c)
);
},
{
closed = 1;
nodes = (
(503,580,o),
(540,614,o),
(540,670,cs),
(540,726,o),
(503,760,o),
(445,760,cs),
(387,760,o),
(350,726,o),
(350,670,cs),
(350,614,o),
(387,580,o),
(445,580,cs)
);
}
);
vertWidth = 1000;
width = 600;
},
{
layerId = "72F02222-BF87-41FD-9A7E-0ABB550ED2DB";
shapes = (
{
closed = 1;
nodes = (
(359,0,l),
(359,72,l),
(167,72,l),
(167,730,l),
(85,730,l),
(85,0,l)
);
},
{
closed = 1;
nodes = (
(241,-220,l),
(425,-220,o),
(515,-134,o),
(515,43,cs),
(515,520,l),
(270,520,l),
(270,450,l),
(435,450,l),
(435,37,ls),
(435,-92,o),
(375,-150,o),
(241,-150,c)
);
},
{
closed = 1;
nodes = (
(502,614,o),
(530,640,o),
(530,682,cs),
(530,724,o),
(502,750,o),
(459,750,cs),
(416,750,o),
(388,724,o),
(388,682,cs),
(388,640,o),
(416,614,o),
(459,614,cs)
);
}
);
vertWidth = 1000;
width = 600;
},
{
layerId = "D0C1F23C-2F9F-4D30-8C4D-098ED54EEF3D";
shapes = (
{
closed = 1;
nodes = (
(379,0,l),
(379,20,l),
(120,20,l),
(120,730,l),
(100,730,l),
(100,0,l)
);
},
{
closed = 1;
nodes = (
(280,-220,l),
(425,-220,o),
(500,-131,o),
(500,41,cs),
(500,520,l),
(280,520,l),
(280,500,l),
(480,500,l),
(480,41,ls),
(480,-119,o),
(413,-200,o),
(280,-200,c)
);
},
{
closed = 1;
nodes = (
(503,658,o),
(520,674,o),
(520,699,cs),
(520,724,o),
(503,740,o),
(478,740,cs),
(453,740,o),
(436,724,o),
(436,699,cs),
(436,674,o),
(453,658,o),
(478,658,cs)
);
}
);
width = 600;
}
);
unicode = 456;
},
{
color = 10;
glyphname = Lslash;
kernLeft = t;
kernRight = L;
lastChange = "2021-05-05 04:42:54 +0000";
layers = (
{
layerId = "D65C9A1E-0FCA-4B2D-8EDF-9F36CA9182A1";
shapes = (
{
closed = 1;
nodes = (
(330,450,l),
(330,471,l),
(0,322,l),
(0,301,l)
);
},
{
pos = (20,0);
ref = L;
}
);
width = 500;
},
{
layerId = "E27A6A66-A1F8-4E1B-8224-7C0FE77551F2";
shapes = (
{
closed = 1;
nodes = (
(350,423,l),
(350,499,l),
(10,349,l),
(10,273,l)
);
},
{
alignment = -1;
pos = (20,0);
ref = L;
}
);
width = 500;
},
{
layerId = "FC9CFCDA-9E80-4E73-BA51-8504D15957FA";
shapes = (
{
closed = 1;
nodes = (
(360,399,l),
(360,525,l),
(10,373,l),
(10,247,l)
);
},
{
pos = (20,0);
ref = L;
}
);
width = 500;
},
{
layerId = "0F1A0AC1-B8D5-4257-ADED-894CB2B827EF";
shapes = (
{
closed = 1;
nodes = (
(400,399,l),
(400,525,l),
(10,373,l),
(10,247,l)
);
},
{
pos = (20,0);
ref = L;
}
);
width = 600;
},
{
layerId = "72F02222-BF87-41FD-9A7E-0ABB550ED2DB";
shapes = (
{
closed = 1;
nodes = (
(390,423,l),
(390,499,l),
(10,349,l),
(10,273,l)
);
},
{
alignment = -1;
pos = (20,0);
ref = L;
}
);
width = 600;
},
{
layerId = "D0C1F23C-2F9F-4D30-8C4D-098ED54EEF3D";
shapes = (
{
closed = 1;
nodes = (
(390,450,l),
(390,472,l),
(20,322,l),
(20,300,l)
);
},
{
pos = (20,0);
ref = L;
}
);
width = 600;
}
);
unicode = 321;
},
{
color = 6;
glyphname = M;
kernLeft = H;
kernRight = H;
lastChange = "2021-05-05 04:42:54 +0000";
layers = (
{
layerId = "D65C9A1E-0FCA-4B2D-8EDF-9F36CA9182A1";
shapes = (
{
closed = 1;
nodes = (
(70,0,l),
(69,691,l),
(73,691,l),
(235,140,l),
(265,140,l),
(427,691,l),
(431,691,l),
(430,0,l),
(450,0,l),
(450,730,l),
(418,730,l),
(252,165,l),
(248,165,l),
(82,730,l),
(50,730,l),
(50,0,l)
);
}
);
width = 500;
},
{
layerId = "E27A6A66-A1F8-4E1B-8224-7C0FE77551F2";
shapes = (
{
closed = 1;
nodes = (
(118,0,l),
(118,626,l),
(122,626,l),
(195,140,l),
(305,140,l),
(378,626,l),
(382,626,l),
(382,0,l),
(460,0,l),
(460,730,l),
(324,730,l),
(252,229,l),
(248,229,l),
(176,730,l),
(40,730,l),
(40,0,l)
);
}
);
vertWidth = 1000;
width = 500;
},
{
layerId = "FC9CFCDA-9E80-4E73-BA51-8504D15957FA";
shapes = (
{
closed = 1;
nodes = (
(165,0,l),
(153,500,l),
(157,500,l),
(205,140,l),
(295,140,l),
(343,500,l),
(347,500,l),
(335,0,l),
(470,0,l),
(470,730,l),
(280,730,l),
(252,430,l),
(248,430,l),
(220,730,l),
(30,730,l),
(30,0,l)
);
}
);
vertWidth = 1000;
width = 500;
},
{
layerId = "0F1A0AC1-B8D5-4257-ADED-894CB2B827EF";
shapes = (
{
closed = 1;
nodes = (
(181,0,l),
(168,560,l),
(172,560,l),
(244,140,l),
(356,140,l),
(428,560,l),
(432,560,l),
(419,0,l),
(555,0,l),
(555,730,l),
(363,730,l),
(302,350,l),
(298,350,l),
(237,730,l),
(45,730,l),
(45,0,l)
);
}
);
vertWidth = 1000;
width = 600;
},
{
layerId = "72F02222-BF87-41FD-9A7E-0ABB550ED2DB";
shapes = (
{
closed = 1;
nodes = (
(138,0,l),
(131,625,l),
(135,625,l),
(245,140,l),
(355,140,l),
(465,625,l),
(469,625,l),
(462,0,l),
(540,0,l),
(540,730,l),
(404,730,l),
(302,227,l),
(298,227,l),
(196,730,l),
(60,730,l),
(60,0,l)
);
}
);
vertWidth = 1000;
width = 600;
},
{
layerId = "D0C1F23C-2F9F-4D30-8C4D-098ED54EEF3D";
shapes = (
{
closed = 1;
nodes = (
(95,0,l),
(94,691,l),
(98,691,l),
(285,140,l),
(315,140,l),
(502,691,l),
(506,691,l),
(505,0,l),
(525,0,l),
(525,730,l),
(494,730,l),
(302,163,l),
(298,163,l),
(106,730,l),
(75,730,l),
(75,0,l)
);
}
);
width = 600;
}
);
metricRight = "=|";
unicode = 77;
},
{
color = 6;
glyphname = N;
kernLeft = H;
kernRight = H;
lastChange = "2021-05-05 04:42:54 +0000";
layers = (
{
anchors = (
{
name = bottom;
pos = (250,0);
},
{
name = top;
pos = (250,730);
}
);
layerId = "D65C9A1E-0FCA-4B2D-8EDF-9F36CA9182A1";
shapes = (
{
closed = 1;
nodes = (
(90,0,l),
(90,679,l),
(94,679,l),
(408,0,l),
(430,0,l),
(430,730,l),
(410,730,l),
(410,51,l),
(406,51,l),
(92,730,l),
(70,730,l),
(70,0,l)
);
}
);
width = 500;
},
{
anchors = (
{
name = bottom;
pos = (250,0);
},
{
name = top;
pos = (250,730);
}
);
layerId = "E27A6A66-A1F8-4E1B-8224-7C0FE77551F2";
shapes = (
{
closed = 1;
nodes = (
(135,0,l),
(135,630,l),
(139,630,l),
(315,0,l),
(445,0,l),
(445,730,l),
(365,730,l),
(365,100,l),
(361,100,l),
(185,730,l),
(55,730,l),
(55,0,l)
);
}
);
vertWidth = 1000;
width = 500;
},
{
anchors = (
{
name = bottom;
pos = (250,0);
},
{
name = top;
pos = (250,730);
}
);
layerId = "FC9CFCDA-9E80-4E73-BA51-8504D15957FA";
shapes = (
{
closed = 1;
nodes = (
(180,0,l),
(180,460,l),
(184,460,l),
(280,0,l),
(460,0,l),
(460,730,l),
(320,730,l),
(320,270,l),
(316,270,l),
(220,730,l),
(40,730,l),
(40,0,l)
);
}
);
vertWidth = 1000;
width = 500;
},
{
anchors = (
{
name = bottom;
pos = (300,0);
},
{
name = top;
pos = (300,730);
}
);
layerId = "0F1A0AC1-B8D5-4257-ADED-894CB2B827EF";
shapes = (
{
closed = 1;
nodes = (
(195,0,l),
(195,490,l),
(199,490,l),
(365,0,l),
(545,0,l),
(545,730,l),
(405,730,l),
(405,240,l),
(401,240,l),
(235,730,l),
(55,730,l),
(55,0,l)
);
}
);
vertWidth = 1000;
width = 600;
},
{
anchors = (
{
name = bottom;
pos = (300,0);
},
{
name = top;
pos = (300,730);
}
);
layerId = "72F02222-BF87-41FD-9A7E-0ABB550ED2DB";
shapes = (
{
closed = 1;
nodes = (
(150,0,l),
(150,639,l),
(154,639,l),
(400,0,l),
(530,0,l),
(530,730,l),
(450,730,l),
(450,91,l),
(446,91,l),
(200,730,l),
(70,730,l),
(70,0,l)
);
}
);
vertWidth = 1000;
width = 600;
},
{
anchors = (
{
name = bottom;
pos = (300,0);
},
{
name = top;
pos = (300,730);
}
);
layerId = "D0C1F23C-2F9F-4D30-8C4D-098ED54EEF3D";
shapes = (
{
closed = 1;
nodes = (
(105,0,l),
(105,686,l),
(109,686,l),
(493,0,l),
(515,0,l),
(515,730,l),
(495,730,l),
(495,44,l),
(491,44,l),
(107,730,l),
(85,730,l),
(85,0,l)
);
}
);
width = 600;
}
);
metricRight = "=|";
unicode = 78;
},
{
color = 10;
glyphname = NJ;
kernLeft = H;
kernRight = U;
lastChange = "2021-05-05 04:42:54 +0000";
layers = (
{
layerId = "D65C9A1E-0FCA-4B2D-8EDF-9F36CA9182A1";
shapes = (
{
closed = 1;
nodes = (
(414,-220,o),
(460,-158,o),
(460,-15,cs),
(460,730,l),
(246,730,l),
(246,309,l),
(242,309,l),
(60,730,l),
(40,730,l),
(40,0,l),
(60,0,l),
(60,671,l),
(64,671,l),
(246,250,l),
(246,0,l),
(266,0,l),
(266,710,l),
(440,710,l),
(440,-15,ls),
(440,-147,o),
(402,-200,o),
(308,-200,cs),
(267,-200,o),
(230,-190,o),
(198,-169,c),
(198,-192,l),
(232,-211,o),
(268,-220,o),
(308,-220,cs)
);
}
);
width = 500;
},
{
layerId = "E27A6A66-A1F8-4E1B-8224-7C0FE77551F2";
shapes = (
{
closed = 1;
nodes = (
(420,-220,o),
(470,-158,o),
(470,-15,cs),
(470,730,l),
(218,730,l),
(218,454,l),
(214,454,l),
(110,730,l),
(30,730,l),
(30,0,l),
(110,0,l),
(110,526,l),
(114,526,l),
(218,250,l),
(218,0,l),
(296,0,l),
(296,660,l),
(390,660,l),
(390,-7,ls),
(390,-107,o),
(363,-148,o),
(297,-148,cs),
(261,-148,o),
(219,-136,o),
(186,-116,c),
(186,-191,l),
(221,-210,o),
(259,-220,o),
(305,-220,cs)
);
}
);
vertWidth = 1000;
width = 500;
},
{
layerId = "FC9CFCDA-9E80-4E73-BA51-8504D15957FA";
shapes = (
{
closed = 1;
nodes = (
(426,-220,o),
(480,-158,o),
(480,-15,cs),
(480,730,l),
(202,730,l),
(201,520,l),
(197,520,l),
(140,730,l),
(20,730,l),
(20,0,l),
(140,0,l),
(140,460,l),
(144,460,l),
(202,250,l),
(202,0,l),
(320,0,l),
(320,610,l),
(360,610,l),
(360,0,ls),
(360,-66,o),
(338,-94,o),
(286,-94,cs),
(251,-94,o),
(209,-81,o),
(175,-61,c),
(175,-191,l),
(211,-210,o),
(253,-220,o),
(303,-220,cs)
);
}
);
vertWidth = 1000;
width = 500;
},
{
layerId = "0F1A0AC1-B8D5-4257-ADED-894CB2B827EF";
shapes = (
{
closed = 1;
nodes = (
(512,-220,o),
(570,-158,o),
(570,-15,cs),
(570,730,l),
(245,730,l),
(244,520,l),
(240,520,l),
(164,730,l),
(30,730,l),
(30,0,l),
(164,0,l),
(164,460,l),
(168,460,l),
(244,250,l),
(244,0,l),
(374,0,l),
(374,610,l),
(436,610,l),
(436,0,ls),
(436,-66,o),
(412,-94,o),
(356,-94,cs),
(319,-94,o),
(276,-82,o),
(239,-61,c),
(239,-191,l),
(277,-210,o),
(323,-220,o),
(377,-220,cs)
);
}
);
vertWidth = 1000;
width = 600;
},
{
layerId = "72F02222-BF87-41FD-9A7E-0ABB550ED2DB";
shapes = (
{
closed = 1;
nodes = (
(497,-220,o),
(555,-158,o),
(555,-15,cs),
(555,730,l),
(270,730,l),
(270,430,l),
(266,430,l),
(125,730,l),
(45,730,l),
(45,0,l),
(125,0,l),
(125,550,l),
(129,550,l),
(270,250,l),
(270,0,l),
(348,0,l),
(348,660,l),
(475,660,l),
(475,-7,ls),
(475,-107,o),
(442,-148,o),
(362,-148,cs),
(319,-148,o),
(266,-136,o),
(226,-116,c),
(226,-191,l),
(266,-210,o),
(310,-220,o),
(364,-220,cs)
);
}
);
vertWidth = 1000;
width = 600;
},
{
layerId = "D0C1F23C-2F9F-4D30-8C4D-098ED54EEF3D";
shapes = (
{
closed = 1;
nodes = (
(488,-220,o),
(540,-158,o),
(540,-15,cs),
(540,730,l),
(297,730,l),
(297,309,l),
(293,309,l),
(82,730,l),
(60,730,l),
(60,0,l),
(80,0,l),
(80,681,l),
(84,681,l),
(297,256,l),
(297,0,l),
(317,0,l),
(317,710,l),
(520,710,l),
(520,-15,ls),
(520,-147,o),
(476,-200,o),
(368,-200,cs),
(320,-200,o),
(280,-189,o),
(241,-169,c),
(241,-192,l),
(280,-211,o),
(322,-220,o),
(368,-220,cs)
);
}
);
width = 600;
}
);
unicode = 458;
},
{
color = 10;
glyphname = Eng;
kernLeft = H;
kernRight = H;
lastChange = "2021-05-05 04:42:54 +0000";
layers = (
{
layerId = "D65C9A1E-0FCA-4B2D-8EDF-9F36CA9182A1";
shapes = (
{
closed = 1;
nodes = (
(390,-211,o),
(430,-164,o),
(430,-61,cs),
(430,730,l),
(410,730,l),
(410,51,l),
(406,51,l),
(92,730,l),
(70,730,l),
(70,0,l),
(90,0,l),
(90,678,l),
(94,678,l),
(420,-26,l),
(410,20,l),
(410,-61,ls),
(410,-153,o),
(378,-191,o),
(300,-191,cs),
(272,-191,o),
(242,-186,o),
(217,-177,c),
(217,-198,l),
(242,-207,o),
(274,-211,o),
(300,-211,cs)
);
}
);
width = 500;
},
{
layerId = "E27A6A66-A1F8-4E1B-8224-7C0FE77551F2";
shapes = (
{
closed = 1;
nodes = (
(398,-218,o),
(445,-166,o),
(445,-39,cs),
(445,730,l),
(365,730,l),
(365,214,l),
(361,214,l),
(156,730,l),
(55,730,l),
(55,0,l),
(135,0,l),
(135,570,l),
(139,570,l),
(393,-70,l),
(365,53,l),
(365,-39,ls),
(365,-118,o),
(339,-149,o),
(271,-149,cs),
(244,-149,o),
(216,-144,o),
(191,-136,c),
(191,-205,l),
(221,-213,o),
(251,-218,o),
(286,-218,cs)
);
}
);
vertWidth = 1000;
width = 500;
},
{
layerId = "FC9CFCDA-9E80-4E73-BA51-8504D15957FA";
shapes = (
{
closed = 1;
nodes = (
(407,-224,o),
(460,-165,o),
(460,-17,cs),
(460,730,l),
(320,730,l),
(320,338,l),
(316,338,l),
(206,730,l),
(40,730,l),
(40,0,l),
(180,0,l),
(180,460,l),
(184,460,l),
(367,-153,l),
(320,86,l),
(320,-17,ls),
(320,-83,o),
(299,-107,o),
(243,-107,cs),
(220,-107,o),
(191,-103,o),
(165,-96,c),
(165,-212,l),
(201,-219,o),
(233,-224,o),
(272,-224,cs)
);
}
);
width = 500;
},
{
layerId = "0F1A0AC1-B8D5-4257-ADED-894CB2B827EF";
shapes = (
{
closed = 1;
nodes = (
(483,-224,o),
(545,-165,o),
(545,-17,cs),
(545,730,l),
(405,730,l),
(405,291,l),
(401,291,l),
(225,730,l),
(55,730,l),
(55,0,l),
(195,0,l),
(195,490,l),
(199,490,l),
(427,-52,l),
(405,86,l),
(405,-17,ls),
(405,-83,o),
(377,-107,o),
(303,-107,cs),
(273,-107,o),
(235,-103,o),
(201,-96,c),
(201,-212,l),
(243,-219,o),
(280,-224,o),
(326,-224,cs)
);
}
);
width = 600;
},
{
layerId = "72F02222-BF87-41FD-9A7E-0ABB550ED2DB";
shapes = (
{
closed = 1;
nodes = (
(475,-218,o),
(530,-165,o),
(530,-39,cs),
(530,730,l),
(450,730,l),
(450,172,l),
(446,172,l),
(166,730,l),
(70,730,l),
(70,0,l),
(150,0,l),
(150,582,l),
(154,582,l),
(465,-37,l),
(448,53,l),
(448,-39,ls),
(448,-118,o),
(415,-149,o),
(331,-149,cs),
(297,-149,o),
(262,-144,o),
(231,-136,c),
(231,-205,l),
(266,-213,o),
(304,-218,o),
(344,-218,cs)
);
}
);
vertWidth = 1000;
width = 600;
},
{
layerId = "D0C1F23C-2F9F-4D30-8C4D-098ED54EEF3D";
shapes = (
{
closed = 1;
nodes = (
(467,-211,o),
(515,-164,o),
(515,-61,cs),
(515,730,l),
(495,730,l),
(495,41,l),
(491,41,l),
(107,730,l),
(85,730,l),
(85,0,l),
(105,0,l),
(105,686,l),
(109,686,l),
(503,-21,l),
(491,20,l),
(491,-61,ls),
(491,-153,o),
(453,-191,o),
(360,-191,cs),
(326,-191,o),
(290,-186,o),
(261,-177,c),
(261,-198,l),
(290,-207,o),
(329,-211,o),
(360,-211,cs)
);
}
);
width = 600;
}
);
unicode = 330;
},
{
color = 10;
glyphname = Nj;
kernLeft = H;
kernRight = g;
lastChange = "2021-05-05 04:42:54 +0000";
layers = (
{
layerId = "D65C9A1E-0FCA-4B2D-8EDF-9F36CA9182A1";
shapes = (
{
closed = 1;
nodes = (
(240,-220,l),
(385,-220,o),
(460,-131,o),
(460,41,cs),
(460,520,l),
(266,520,l),
(266,730,l),
(246,730,l),
(246,309,l),
(242,309,l),
(60,730,l),
(40,730,l),
(40,0,l),
(60,0,l),
(60,671,l),
(64,671,l),
(246,250,l),
(246,0,l),
(266,0,l),
(266,500,l),
(440,500,l),
(440,41,ls),
(440,-119,o),
(373,-200,o),
(240,-200,c)
);
},
{
closed = 1;
nodes = (
(463,658,o),
(480,674,o),
(480,699,cs),
(480,724,o),
(463,740,o),
(438,740,cs),
(413,740,o),
(396,724,o),
(396,699,cs),
(396,674,o),
(413,658,o),
(438,658,cs)
);
}
);
width = 500;
},
{
layerId = "E27A6A66-A1F8-4E1B-8224-7C0FE77551F2";
shapes = (
{
closed = 1;
nodes = (
(231,-220,l),
(392,-220,o),
(470,-134,o),
(470,43,cs),
(470,520,l),
(296,520,l),
(296,730,l),
(218,730,l),
(218,454,l),
(214,454,l),
(110,730,l),
(30,730,l),
(30,0,l),
(110,0,l),
(110,526,l),
(114,526,l),
(218,250,l),
(218,0,l),
(296,0,l),
(296,451,l),
(392,451,l),
(392,37,ls),
(392,-91,o),
(341,-149,o),
(231,-149,c)
);
},
{
closed = 1;
nodes = (
(457,614,o),
(485,640,o),
(485,682,cs),
(485,724,o),
(457,750,o),
(414,750,cs),
(371,750,o),
(343,724,o),
(343,682,cs),
(343,640,o),
(371,614,o),
(414,614,cs)
);
}
);
vertWidth = 1000;
width = 500;
},
{
layerId = "FC9CFCDA-9E80-4E73-BA51-8504D15957FA";
shapes = (
{
closed = 1;
nodes = (
(223,-220,l),
(399,-220,o),
(480,-137,o),
(480,45,cs),
(480,520,l),
(320,520,l),
(320,730,l),
(202,730,l),
(201,520,l),
(197,520,l),
(140,730,l),
(20,730,l),
(20,0,l),
(140,0,l),
(140,460,l),
(144,460,l),
(202,250,l),
(202,0,l),
(320,0,l),
(320,402,l),
(362,402,l),
(362,34,ls),
(362,-61,o),
(322,-98,o),
(223,-98,c)
);
},
{
closed = 1;
nodes = (
(462,580,o),
(490,614,o),
(490,670,cs),
(490,726,o),
(462,760,o),
(416,760,cs),
(370,760,o),
(342,726,o),
(342,670,cs),
(342,614,o),
(370,580,o),
(416,580,cs)
);
}
);
vertWidth = 1000;
width = 500;
},
{
layerId = "0F1A0AC1-B8D5-4257-ADED-894CB2B827EF";
shapes = (
{
closed = 1;
nodes = (
(269,-220,l),
(475,-220,o),
(570,-137,o),
(570,45,cs),
(570,520,l),
(382,520,l),
(382,730,l),
(245,730,l),
(244,520,l),
(240,520,l),
(164,730,l),
(30,730,l),
(30,0,l),
(164,0,l),
(164,460,l),
(168,460,l),
(244,250,l),
(244,0,l),
(374,0,l),
(374,402,l),
(440,402,l),
(440,34,ls),
(440,-61,o),
(392,-98,o),
(269,-98,c)
);
},
{
closed = 1;
nodes = (
(552,580,o),
(585,614,o),
(585,670,cs),
(585,726,o),
(552,760,o),
(497,760,cs),
(443,760,o),
(409,726,o),
(409,670,cs),
(409,614,o),
(443,580,o),
(497,580,cs)
);
}
);
vertWidth = 1000;
width = 600;
},
{
layerId = "72F02222-BF87-41FD-9A7E-0ABB550ED2DB";
shapes = (
{
closed = 1;
nodes = (
(279,-220,l),
(465,-220,o),
(555,-134,o),
(555,43,cs),
(555,520,l),
(348,520,l),
(348,730,l),
(270,730,l),
(270,430,l),
(266,430,l),
(125,730,l),
(45,730,l),
(45,0,l),
(125,0,l),
(125,550,l),
(129,550,l),
(270,250,l),
(270,0,l),
(348,0,l),
(348,451,l),
(477,451,l),
(477,37,ls),
(477,-90,o),
(415,-149,o),
(279,-149,c)
);
},
{
closed = 1;
nodes = (
(542,614,o),
(570,640,o),
(570,682,cs),
(570,724,o),
(542,750,o),
(499,750,cs),
(456,750,o),
(428,724,o),
(428,682,cs),
(428,640,o),
(456,614,o),
(499,614,cs)
);
}
);
vertWidth = 1000;
width = 600;
},
{
layerId = "D0C1F23C-2F9F-4D30-8C4D-098ED54EEF3D";
shapes = (
{
closed = 1;
nodes = (
(289,-220,l),
(454,-220,o),
(540,-131,o),
(540,41,cs),
(540,520,l),
(317,520,l),
(317,730,l),
(297,730,l),
(297,309,l),
(293,309,l),
(82,730,l),
(60,730,l),
(60,0,l),
(80,0,l),
(80,681,l),
(84,681,l),
(297,256,l),
(297,0,l),
(317,0,l),
(317,500,l),
(520,500,l),
(520,41,ls),
(520,-120,o),
(443,-200,o),
(289,-200,c)
);
},
{
closed = 1;
nodes = (
(543,658,o),
(560,674,o),
(560,699,cs),
(560,724,o),
(543,740,o),
(518,740,cs),
(493,740,o),
(476,724,o),
(476,699,cs),
(476,674,o),
(493,658,o),
(518,658,cs)
);
}
);
width = 600;
}
);
unicode = 459;
},
{
color = 6;
glyphname = O;
kernLeft = O;
kernRight = O;
lastChange = "2021-05-05 04:42:54 +0000";
layers = (
{
anchors = (
{
name = bottom;
pos = (250,0);
},
{
name = center;
pos = (250,365);
},
{
name = ogonek;
pos = (290,0);
},
{
name = top;
pos = (250,730);
},
{
name = topleft;
pos = (20,730);
},
{
name = topright;
pos = (338,736);
}
);
layerId = "D65C9A1E-0FCA-4B2D-8EDF-9F36CA9182A1";
shapes = (
{
closed = 1;
nodes = (
(393,-10,o),
(445,82,o),
(445,335,cs),
(445,395,ls),
(445,648,o),
(393,740,o),
(250,740,cs),
(107,740,o),
(55,648,o),
(55,395,cs),
(55,335,ls),
(55,82,o),
(107,-10,o),
(250,-10,cs)
);
},
{
closed = 1;
nodes = (
(120,10,o),
(75,93,o),
(75,335,cs),
(75,395,ls),
(75,637,o),
(120,720,o),
(250,720,cs),
(380,720,o),
(425,637,o),
(425,395,cs),
(425,335,ls),
(425,93,o),
(380,10,o),
(250,10,cs)
);
}
);
width = 500;
},
{
anchors = (
{
name = bottom;
pos = (250,0);
},
{
name = center;
pos = (250,365);
},
{
name = ogonek;
pos = (279,0);
},
{
name = top;
pos = (250,730);
},
{
name = topleft;
pos = (20,730);
},
{
name = topright;
pos = (338,736);
}
);
layerId = "E27A6A66-A1F8-4E1B-8224-7C0FE77551F2";
shapes = (
{
closed = 1;
nodes = (
(404,-10,o),
(460,82,o),
(460,335,cs),
(460,395,ls),
(460,648,o),
(404,740,o),
(250,740,cs),
(96,740,o),
(40,648,o),
(40,395,cs),
(40,335,ls),
(40,82,o),
(96,-10,o),
(250,-10,cs)
);
},
{
closed = 1;
nodes = (
(151,62,o),
(122,125,o),
(122,340,cs),
(122,390,ls),
(122,605,o),
(151,668,o),
(250,668,cs),
(349,668,o),
(378,605,o),
(378,390,cs),
(378,340,ls),
(378,125,o),
(349,62,o),
(250,62,cs)
);
}
);
vertWidth = 1000;
width = 500;
},
{
anchors = (
{
name = bottom;
pos = (250,0);
},
{
name = center;
pos = (250,365);
},
{
name = ogonek;
pos = (268,0);
},
{
name = top;
pos = (250,730);
},
{
name = topleft;
pos = (20,730);
},
{
name = topright;
pos = (338,736);
}
);
layerId = "FC9CFCDA-9E80-4E73-BA51-8504D15957FA";
shapes = (
{
closed = 1;
nodes = (
(415,-10,o),
(475,82,o),
(475,335,cs),
(475,395,ls),
(475,648,o),
(415,740,o),
(250,740,cs),
(85,740,o),
(25,648,o),
(25,395,cs),
(25,335,ls),
(25,82,o),
(85,-10,o),
(250,-10,cs)
);
},
{
closed = 1;
nodes = (
(183,114,o),
(169,154,o),
(169,345,cs),
(169,385,ls),
(169,576,o),
(183,616,o),
(250,616,cs),
(317,616,o),
(331,576,o),
(331,385,cs),
(331,345,ls),
(331,154,o),
(317,114,o),
(250,114,cs)
);
}
);
vertWidth = 1000;
width = 500;
},
{
anchors = (
{
name = bottom;
pos = (300,0);
},
{
name = center;
pos = (300,365);
},
{
name = ogonek;
pos = (318,0);
},
{
name = top;
pos = (300,730);
},
{
name = topleft;
pos = (70,730);
},
{
name = topright;
pos = (378,736);
}
);
layerId = "0F1A0AC1-B8D5-4257-ADED-894CB2B827EF";
shapes = (
{
closed = 1;
nodes = (
(494,-10,o),
(570,87,o),
(570,335,cs),
(570,395,ls),
(570,643,o),
(494,740,o),
(300,740,cs),
(106,740,o),
(30,643,o),
(30,395,cs),
(30,335,ls),
(30,87,o),
(106,-10,o),
(300,-10,cs)
);
},
{
closed = 1;
nodes = (
(199,114,o),
(174,160,o),
(174,345,cs),
(174,385,ls),
(174,570,o),
(199,616,o),
(300,616,cs),
(401,616,o),
(426,570,o),
(426,385,cs),
(426,345,ls),
(426,160,o),
(401,114,o),
(300,114,cs)
);
}
);
vertWidth = 1000;
width = 600;
},
{
anchors = (
{
name = bottom;
pos = (300,0);
},
{
name = center;
pos = (300,365);
},
{
name = ogonek;
pos = (329,0);
},
{
name = top;
pos = (300,730);
},
{
name = topleft;
pos = (70,730);
},
{
name = topright;
pos = (378,736);
}
);
layerId = "72F02222-BF87-41FD-9A7E-0ABB550ED2DB";
shapes = (
{
closed = 1;
nodes = (
(483,-10,o),
(555,87,o),
(555,335,cs),
(555,395,ls),
(555,643,o),
(483,740,o),
(300,740,cs),
(117,740,o),
(45,643,o),
(45,395,cs),
(45,335,ls),
(45,87,o),
(117,-10,o),
(300,-10,cs)
);
},
{
closed = 1;
nodes = (
(170,62,o),
(127,131,o),
(127,340,cs),
(127,390,ls),
(127,599,o),
(170,668,o),
(300,668,cs),
(430,668,o),
(473,599,o),
(473,390,cs),
(473,340,ls),
(473,131,o),
(430,62,o),
(300,62,cs)
);
}
);
vertWidth = 1000;
width = 600;
},
{
anchors = (
{
name = bottom;
pos = (300,0);
},
{
name = center;
pos = (300,365);
},
{
name = ogonek;
pos = (340,0);
},
{
name = top;
pos = (300,730);
},
{
name = topleft;
pos = (70,730);
},
{
name = topright;
pos = (378,736);
}
);
layerId = "D0C1F23C-2F9F-4D30-8C4D-098ED54EEF3D";
shapes = (
{
closed = 1;
nodes = (
(472,-10,o),
(540,88,o),
(540,335,cs),
(540,395,ls),
(540,642,o),
(472,740,o),
(300,740,cs),
(128,740,o),
(60,642,o),
(60,395,cs),
(60,335,ls),
(60,88,o),
(128,-10,o),
(300,-10,cs)
);
},
{
closed = 1;
nodes = (
(140,10,o),
(80,99,o),
(80,335,cs),
(80,395,ls),
(80,631,o),
(140,720,o),
(300,720,cs),
(460,720,o),
(520,631,o),
(520,395,cs),
(520,335,ls),
(520,99,o),
(460,10,o),
(300,10,cs)
);
}
);
width = 600;
}
);
metricRight = "=|";
unicode = 79;
},
{
color = 10;
glyphname = Ohorn;
kernLeft = O;
kernRight = O;
lastChange = "2021-05-05 04:42:54 +0000";
layers = (
{
layerId = "D65C9A1E-0FCA-4B2D-8EDF-9F36CA9182A1";
shapes = (
{
closed = 1;
nodes = (
(425,698,o),
(460,726,o),
(460,771,cs),
(460,785,o),
(457,799,o),
(451,813,c),
(430,813,l),
(435,803,o),
(439,782,o),
(439,771,cs),
(439,736,o),
(412,716,o),
(365,716,cs),
(343,716,l),
(343,699,l),
(351,698,o),
(357,698,o),
(363,698,cs)
);
},
{
ref = O;
}
);
width = 500;
},
{
layerId = "E27A6A66-A1F8-4E1B-8224-7C0FE77551F2";
shapes = (
{
closed = 1;
nodes = (
(451,657,o),
(500,697,o),
(500,767,cs),
(500,785,o),
(497,805,o),
(490,823,c),
(415,823,l),
(419,813,o),
(423,793,o),
(423,782,cs),
(423,747,o),
(401,726,o),
(365,726,cs),
(308,726,l),
(295,663,l),
(319,659,o),
(340,657,o),
(363,657,cs)
);
},
{
ref = O;
}
);
width = 500;
},
{
layerId = "FC9CFCDA-9E80-4E73-BA51-8504D15957FA";
shapes = (
{
closed = 1;
nodes = (
(490,626,o),
(550,674,o),
(550,758,cs),
(550,779,o),
(547,803,o),
(540,824,c),
(409,824,l),
(413,814,o),
(417,794,o),
(417,783,cs),
(417,754,o),
(398,736,o),
(365,736,cs),
(298,736,l),
(285,632,l),
(319,628,o),
(351,626,o),
(383,626,cs)
);
},
{
ref = O;
}
);
width = 500;
},
{
layerId = "0F1A0AC1-B8D5-4257-ADED-894CB2B827EF";
shapes = (
{
closed = 1;
nodes = (
(560,626,o),
(620,674,o),
(620,758,cs),
(620,779,o),
(617,803,o),
(610,824,c),
(479,824,l),
(483,814,o),
(487,794,o),
(487,783,cs),
(487,754,o),
(468,736,o),
(435,736,cs),
(348,736,l),
(335,632,l),
(376,628,o),
(414,626,o),
(453,626,cs)
);
},
{
ref = O;
}
);
width = 600;
},
{
layerId = "72F02222-BF87-41FD-9A7E-0ABB550ED2DB";
shapes = (
{
closed = 1;
nodes = (
(521,657,o),
(570,697,o),
(570,767,cs),
(570,785,o),
(567,805,o),
(560,823,c),
(485,823,l),
(489,813,o),
(493,793,o),
(493,782,cs),
(493,747,o),
(471,726,o),
(435,726,cs),
(378,726,l),
(365,663,l),
(389,659,o),
(410,657,o),
(433,657,cs)
);
},
{
ref = O;
}
);
width = 600;
},
{
layerId = "D0C1F23C-2F9F-4D30-8C4D-098ED54EEF3D";
shapes = (
{
closed = 1;
nodes = (
(500,698,o),
(535,726,o),
(535,771,cs),
(535,785,o),
(532,799,o),
(526,813,c),
(505,813,l),
(510,803,o),
(514,782,o),
(514,771,cs),
(514,736,o),
(487,716,o),
(440,716,cs),
(418,716,l),
(418,699,l),
(426,698,o),
(432,698,o),
(438,698,cs)
);
},
{
ref = O;
}
);
width = 600;
}
);
unicode = 416;
},
{
color = 10;
glyphname = Oogonek;
kernLeft = O;
kernRight = O;
lastChange = "2021-05-05 04:42:54 +0000";
layers = (
{
layerId = "D65C9A1E-0FCA-4B2D-8EDF-9F36CA9182A1";
shapes = (
{
closed = 1;
nodes = (
(275,-220,o),
(296,-217,o),
(313,-212,c),
(313,-190,l),
(297,-196,o),
(275,-200,o),
(255,-200,cs),
(220,-200,o),
(178,-191,o),
(178,-145,cs),
(178,-97,o),
(228,-57,o),
(320,0,c),
(293.074,2.762,l),
(210.091,-48.262,o),
(158,-89.528,o),
(158,-145,cs),
(158,-173,o),
(170,-220,o),
(255,-220,cs)
);
},
{
ref = O;
}
);
width = 500;
},
{
layerId = "E27A6A66-A1F8-4E1B-8224-7C0FE77551F2";
shapes = (
{
closed = 1;
nodes = (
(286,-218,o),
(305,-216,o),
(322,-211,c),
(322,-145,l),
(307,-150,o),
(290,-153,o),
(271,-153,cs),
(244,-153,o),
(224,-144,o),
(224,-117,cs),
(224,-81,o),
(261,-39,o),
(327,0,c),
(256.913,20.903,l),
(187.594,-23.983,o),
(150,-76.239,o),
(150,-130,cs),
(150,-186,o),
(192,-218,o),
(265,-218,cs)
);
},
{
ref = O;
}
);
width = 500;
},
{
layerId = "FC9CFCDA-9E80-4E73-BA51-8504D15957FA";
shapes = (
{
closed = 1;
nodes = (
(306,-218,o),
(324,-217,o),
(340,-216,c),
(340,-113,l),
(326,-114,o),
(311,-115,o),
(296,-115,cs),
(268,-115,o),
(253,-103,o),
(253,-81,cs),
(253,-54,o),
(286,-25,o),
(344,5,c),
(217.3,33.764,l),
(156.396,-10.891,o),
(127,-53.506,o),
(127,-102,cs),
(127,-176,o),
(185,-218,o),
(286,-218,cs)
);
},
{
ref = O;
}
);
width = 500;
},
{
layerId = "0F1A0AC1-B8D5-4257-ADED-894CB2B827EF";
shapes = (
{
closed = 1;
nodes = (
(360,-218,o),
(378,-217,o),
(394,-216,c),
(394,-113,l),
(380,-114,o),
(365,-115,o),
(350,-115,cs),
(322,-115,o),
(307,-103,o),
(307,-81,cs),
(307,-54,o),
(340,-25,o),
(398,5,c),
(271.3,33.764,l),
(210.396,-10.891,o),
(181,-53.506,o),
(181,-102,cs),
(181,-176,o),
(239,-218,o),
(340,-218,cs)
);
},
{
ref = O;
}
);
width = 600;
},
{
layerId = "72F02222-BF87-41FD-9A7E-0ABB550ED2DB";
shapes = (
{
closed = 1;
nodes = (
(333,-218,o),
(352,-216,o),
(369,-211,c),
(369,-145,l),
(354,-150,o),
(337,-153,o),
(318,-153,cs),
(291,-153,o),
(271,-144,o),
(271,-117,cs),
(271,-81,o),
(308,-39,o),
(374,0,c),
(303.913,20.903,l),
(234.594,-23.983,o),
(197,-76.239,o),
(197,-130,cs),
(197,-186,o),
(239,-218,o),
(312,-218,cs)
);
},
{
ref = O;
}
);
width = 600;
},
{
layerId = "D0C1F23C-2F9F-4D30-8C4D-098ED54EEF3D";
shapes = (
{
closed = 1;
nodes = (
(325,-220,o),
(346,-217,o),
(363,-212,c),
(363,-190,l),
(347,-196,o),
(325,-200,o),
(305,-200,cs),
(270,-200,o),
(228,-191,o),
(228,-145,cs),
(228,-97,o),
(278,-57,o),
(370,0,c),
(344.648,3.728,l),
(260.75,-47.742,o),
(208,-89.178,o),
(208,-145,cs),
(208,-173,o),
(220,-220,o),
(305,-220,cs)
);
},
{
ref = O;
}
);
width = 600;
}
);
unicode = 490;
},
{
color = 10;
glyphname = Oslash;
kernLeft = O;
kernRight = O;
lastChange = "2021-05-05 04:42:54 +0000";
layers = (
{
layerId = "D65C9A1E-0FCA-4B2D-8EDF-9F36CA9182A1";
shapes = (
{
closed = 1;
nodes = (
(86,-10,l),
(436,740,l),
(414,740,l),
(64,-10,l)
);
},
{
ref = O;
}
);
width = 500;
},
{
layerId = "E27A6A66-A1F8-4E1B-8224-7C0FE77551F2";
shapes = (
{
closed = 1;
nodes = (
(112,-10,l),
(462,740,l),
(388,740,l),
(38,-10,l)
);
},
{
alignment = -1;
ref = O;
}
);
vertWidth = 1000;
width = 500;
},
{
layerId = "FC9CFCDA-9E80-4E73-BA51-8504D15957FA";
shapes = (
{
closed = 1;
nodes = (
(126,-10,l),
(476,740,l),
(374,740,l),
(24,-10,l)
);
},
{
ref = O;
}
);
width = 500;
},
{
layerId = "0F1A0AC1-B8D5-4257-ADED-894CB2B827EF";
shapes = (
{
closed = 1;
nodes = (
(134,-10,l),
(576,740,l),
(466,740,l),
(24,-10,l)
);
},
{
ref = O;
}
);
width = 600;
},
{
layerId = "72F02222-BF87-41FD-9A7E-0ABB550ED2DB";
shapes = (
{
closed = 1;
nodes = (
(116,-10,l),
(562,740,l),
(484,740,l),
(38,-10,l)
);
},
{
alignment = -1;
ref = O;
}
);
vertWidth = 1000;
width = 600;
},
{
layerId = "D0C1F23C-2F9F-4D30-8C4D-098ED54EEF3D";
shapes = (
{
closed = 1;
nodes = (
(87,-10,l),
(536,740,l),
(513,740,l),
(64,-10,l)
);
},
{
ref = O;
}
);
width = 600;
}
);
unicode = 216;
},
{
color = 10;
glyphname = OE;
kernLeft = O;
kernRight = E;
lastChange = "2021-05-05 04:42:54 +0000";
layers = (
{
layerId = "D65C9A1E-0FCA-4B2D-8EDF-9F36CA9182A1";
shapes = (
{
closed = 1;
nodes = (
(223,-10,o),
(247,-5,o),
(269,6,c),
(260,24,l),
(241,14,o),
(218,10,o),
(193,10,cs),
(81,10,o),
(40,91,o),
(40,335,cs),
(40,395,ls),
(40,639,o),
(81,720,o),
(193,720,cs),
(218,720,o),
(241,716,o),
(260,706,c),
(269,724,l),
(247,735,o),
(223,740,o),
(193,740,cs),
(66,740,o),
(20,648,o),
(20,395,cs),
(20,335,ls),
(20,82,o),
(66,-10,o),
(193,-10,cs)
);
},
{
closed = 1;
nodes = (
(480,0,l),
(480,20,l),
(274,20,l),
(274,376,l),
(471,376,l),
(471,396,l),
(274,396,l),
(274,710,l),
(480,710,l),
(480,730,l),
(254,730,l),
(254,0,l)
);
}
);
width = 500;
},
{
layerId = "E27A6A66-A1F8-4E1B-8224-7C0FE77551F2";
shapes = (
{
closed = 1;
nodes = (
(243,-10,o),
(272,10,o),
(295,64,c),
(245,88,l),
(232,69,o),
(218,62,o),
(194,62,cs),
(120,62,o),
(97,127,o),
(97,340,cs),
(97,390,ls),
(97,603,o),
(120,668,o),
(194,668,cs),
(215,668,o),
(229,661,o),
(245,642,c),
(295,666,l),
(272,720,o),
(243,740,o),
(185,740,cs),
(60,740,o),
(14.991,648,o),
(14.991,395,cs),
(14.991,335,ls),
(14.991,82,o),
(60,-10,o),
(185,-10,cs)
);
},
{
closed = 1;
nodes = (
(485.009,0,l),
(485,70,l),
(321,70,l),
(321,351,l),
(477,351,l),
(477,421,l),
(321,421,l),
(321,660,l),
(485,660,l),
(485.009,730,l),
(241,730,l),
(241,0,l)
);
}
);
vertWidth = 1000;
width = 500;
},
{
layerId = "FC9CFCDA-9E80-4E73-BA51-8504D15957FA";
shapes = (
{
closed = 1;
nodes = (
(257,-10,o),
(298,28,o),
(320,122,c),
(231,152,l),
(224,125,o),
(212,114,o),
(192,114,cs),
(153,114,o),
(144,156,o),
(144,345,cs),
(144,385,ls),
(144,574,o),
(153,616,o),
(192,616,cs),
(212,616,o),
(224,605,o),
(231,578,c),
(320,608,l),
(298,702,o),
(257,740,o),
(178,740,cs),
(55,740,o),
(10,648,o),
(10,395,cs),
(10,335,ls),
(10,82,o),
(55,-10,o),
(178,-10,cs)
);
},
{
closed = 1;
nodes = (
(490,0,l),
(490,118,l),
(360,118,l),
(360,328,l),
(483,328,l),
(483,444,l),
(360,444,l),
(360,612,l),
(490,612,l),
(490,730,l),
(228,730,l),
(228,0,l)
);
}
);
vertWidth = 1000;
width = 500;
},
{
layerId = "0F1A0AC1-B8D5-4257-ADED-894CB2B827EF";
shapes = (
{
closed = 1;
nodes = (
(318,-10,o),
(368,28,o),
(395,122,c),
(290,152,l),
(278,127,o),
(254,114,o),
(221,114,cs),
(168,114,o),
(159,149,o),
(159,345,cs),
(159,385,ls),
(159,581,o),
(168,616,o),
(221,616,cs),
(254,616,o),
(278,603,o),
(290,578,c),
(395,608,l),
(368,702,o),
(318,740,o),
(221,740,cs),
(70,740,o),
(15,648,o),
(15,395,cs),
(15,335,ls),
(15,82,o),
(70,-10,o),
(221,-10,cs)
);
},
{
closed = 1;
nodes = (
(585,0,l),
(585,118,l),
(421,118,l),
(421,328,l),
(577,328,l),
(577,444,l),
(421,444,l),
(421,612,l),
(585,612,l),
(585,730,l),
(281,730,l),
(281,0,l)
);
}
);
vertWidth = 1000;
width = 600;
},
{
layerId = "72F02222-BF87-41FD-9A7E-0ABB550ED2DB";
shapes = (
{
closed = 1;
nodes = (
(302,-10,o),
(339,11,o),
(365,64,c),
(308,88,l),
(291,70,o),
(266,62,o),
(232,62,cs),
(136,62,o),
(107,126,o),
(107,340,cs),
(107,390,ls),
(107,604,o),
(136,668,o),
(232,668,cs),
(266,668,o),
(291,660,o),
(308,642,c),
(365,666,l),
(339,719,o),
(302,740,o),
(232,740,cs),
(83,740,o),
(25,644,o),
(25,395,cs),
(25,335,ls),
(25,86,o),
(83,-10,o),
(232,-10,cs)
);
},
{
closed = 1;
nodes = (
(575,0,l),
(575,70,l),
(376,70,l),
(376,351,l),
(566,351,l),
(566,421,l),
(376,421,l),
(376,660,l),
(575,660,l),
(575,730,l),
(296,730,l),
(296,0,l)
);
}
);
vertWidth = 1000;
width = 600;
},
{
layerId = "D0C1F23C-2F9F-4D30-8C4D-098ED54EEF3D";
shapes = (
{
closed = 1;
nodes = (
(279,-10,o),
(311,-5,o),
(335,6,c),
(327,24,l),
(306,15,o),
(278,10,o),
(243,10,cs),
(104,10,o),
(55,90,o),
(55,335,cs),
(55,395,ls),
(55,640,o),
(104,720,o),
(243,720,cs),
(278,720,o),
(306,715,o),
(327,706,c),
(335,724,l),
(311,735,o),
(279,740,o),
(243,740,cs),
(90,740,o),
(35,649,o),
(35,395,cs),
(35,335,ls),
(35,81,o),
(90,-10,o),
(243,-10,cs)
);
},
{
closed = 1;
nodes = (
(565,0,l),
(565,20,l),
(331,20,l),
(331,376,l),
(555,376,l),
(555,396,l),
(331,396,l),
(331,710,l),
(565,710,l),
(565,730,l),
(311,730,l),
(311,0,l)
);
}
);
width = 600;
}
);
unicode = 338;
},
{
color = 6;
glyphname = P;
kernLeft = H;
kernRight = P;
lastChange = "2021-05-05 04:42:54 +0000";
layers = (
{
layerId = "D65C9A1E-0FCA-4B2D-8EDF-9F36CA9182A1";
shapes = (
{
closed = 1;
nodes = (
(90,0,l),
(110,0,l),
(110,728,l),
(93,708,l),
(142,716,o),
(176,720,o),
(218,720,cs),
(374,720,o),
(430,664,o),
(430,508,cs),
(430,352,o),
(374,296,o),
(218,296,cs),
(182,296,o),
(148,299,o),
(99,307,c),
(96,287,l),
(147,279,o),
(182,276,o),
(218,276,cs),
(385,276,o),
(450,341,o),
(450,508,cs),
(450,675,o),
(385,740,o),
(218,740,cs),
(182,740,o),
(144,737,o),
(90,728,c)
);
}
);
width = 500;
},
{
layerId = "E27A6A66-A1F8-4E1B-8224-7C0FE77551F2";
shapes = (
{
closed = 1;
nodes = (
(75,0,l),
(157,0,l),
(157,688,l),
(131,660,l),
(162,665,o),
(190,668,o),
(221,668,cs),
(341,668,o),
(384,622,o),
(384,495,cs),
(384,368,o),
(341,322,o),
(221,322,cs),
(190,322,o),
(166,325,o),
(134,330,c),
(108,258,l),
(145,253,o),
(176,250,o),
(214,250,cs),
(395,250,o),
(465,318,o),
(465,495,cs),
(465,672,o),
(395,740,o),
(214,740,cs),
(176,740,o),
(134,737,o),
(75,728,c)
);
}
);
vertWidth = 1000;
width = 500;
},
{
layerId = "FC9CFCDA-9E80-4E73-BA51-8504D15957FA";
shapes = (
{
closed = 1;
nodes = (
(60,0,l),
(204,0,l),
(204,647,l),
(168,610,l),
(181,612,o),
(203,614,o),
(223,614,cs),
(307,614,o),
(338,578,o),
(338,481,cs),
(338,384,o),
(307,348,o),
(223,348,cs),
(203,348,o),
(183,350,o),
(168,352,c),
(120,228,l),
(142,226,o),
(176,224,o),
(209,224,cs),
(404,224,o),
(480,296,o),
(480,482,cs),
(480,668,o),
(404,740,o),
(209,740,cs),
(169,740,o),
(123,737,o),
(60,728,c)
);
}
);
vertWidth = 1000;
width = 500;
},
{
layerId = "0F1A0AC1-B8D5-4257-ADED-894CB2B827EF";
shapes = (
{
closed = 1;
nodes = (
(66,0,l),
(210,0,l),
(210,647,l),
(200,610,l),
(217,612,o),
(244,614,o),
(269,614,cs),
(374,614,o),
(414,578,o),
(414,481,cs),
(414,384,o),
(374,348,o),
(269,348,cs),
(244,348,o),
(220,350,o),
(200,352,c),
(136,228,l),
(162,226,o),
(202,224,o),
(240,224,cs),
(467,224,o),
(556,296,o),
(556,482,cs),
(556,668,o),
(467,740,o),
(240,740,cs),
(193,740,o),
(140,737,o),
(66,728,c)
);
}
);
vertWidth = 1000;
width = 600;
},
{
layerId = "72F02222-BF87-41FD-9A7E-0ABB550ED2DB";
shapes = (
{
closed = 1;
nodes = (
(85,0,l),
(167,0,l),
(167,687,l),
(154,660,l),
(193,665,o),
(229,668,o),
(265,668,cs),
(409,668,o),
(464,620,o),
(464,494,cs),
(464,369,o),
(410,322,o),
(266,322,cs),
(229,322,o),
(197,325,o),
(157,330,c),
(124,257,l),
(167,252,o),
(211,250,o),
(248,250,cs),
(462,250,o),
(545,318,o),
(545,495,cs),
(545,672,o),
(462,740,o),
(248,740,cs),
(203,740,o),
(154,737,o),
(85,728,c)
);
}
);
vertWidth = 1000;
width = 600;
},
{
layerId = "D0C1F23C-2F9F-4D30-8C4D-098ED54EEF3D";
shapes = (
{
closed = 1;
nodes = (
(104,0,l),
(124,0,l),
(124,728,l),
(107,708,l),
(167,717,o),
(212,720,o),
(257,720,cs),
(445,720,o),
(514,663,o),
(514,508,cs),
(514,353,o),
(445,296,o),
(257,296,cs),
(214,296,o),
(172,299,o),
(114,307,c),
(111,287,l),
(172,279,o),
(214,276,o),
(257,276,cs),
(456,276,o),
(534,341,o),
(534,508,cs),
(534,675,o),
(456,740,o),
(257,740,cs),
(214,740,o),
(169,737,o),
(104,728,c)
);
}
);
width = 600;
}
);
unicode = 80;
},
{
color = 10;
glyphname = Thorn;
kernLeft = H;
kernRight = O;
lastChange = "2021-05-05 04:42:54 +0000";
layers = (
{
layerId = "D65C9A1E-0FCA-4B2D-8EDF-9F36CA9182A1";
shapes = (
{
closed = 1;
nodes = (
(385,153,o),
(450,218,o),
(450,385,cs),
(450,552,o),
(385,617,o),
(218,617,cs),
(182,617,o),
(147,614,o),
(96,606,c),
(99,586,l),
(148,594,o),
(182,597,o),
(218,597,cs),
(374,597,o),
(430,541,o),
(430,385,cs),
(430,229,o),
(374,173,o),
(218,173,cs),
(182,173,o),
(148,176,o),
(99,184,c),
(96,164,l),
(147,156,o),
(182,153,o),
(218,153,cs)
);
},
{
closed = 1;
nodes = (
(110,0,l),
(110,730,l),
(90,730,l),
(90,0,l)
);
}
);
width = 500;
},
{
layerId = "E27A6A66-A1F8-4E1B-8224-7C0FE77551F2";
shapes = (
{
closed = 1;
nodes = (
(395,140,o),
(465,208,o),
(465,385,cs),
(465,562,o),
(395,630,o),
(214,630,cs),
(176,630,o),
(145,627,o),
(108,622,c),
(134,550,l),
(166,555,o),
(190,558,o),
(221,558,cs),
(341,558,o),
(384,512,o),
(384,385,cs),
(384,258,o),
(341,212,o),
(221,212,cs),
(190,212,o),
(166,215,o),
(134,220,c),
(108,148,l),
(145,143,o),
(176,140,o),
(214,140,cs)
);
},
{
closed = 1;
nodes = (
(157,0,l),
(157,730,l),
(75,730,l),
(75,0,l)
);
}
);
vertWidth = 1000;
width = 500;
},
{
layerId = "FC9CFCDA-9E80-4E73-BA51-8504D15957FA";
shapes = (
{
closed = 1;
nodes = (
(404,127,o),
(480,199,o),
(480,385,cs),
(480,571,o),
(404,643,o),
(209,643,cs),
(176,643,o),
(142,641,o),
(120,639,c),
(168,515,l),
(183,517,o),
(203,519,o),
(223,519,cs),
(307,519,o),
(338,483,o),
(338,385,cs),
(338,287,o),
(307,251,o),
(223,251,cs),
(203,251,o),
(183,253,o),
(168,255,c),
(120,131,l),
(142,129,o),
(176,127,o),
(209,127,cs)
);
},
{
closed = 1;
nodes = (
(204,0,l),
(204,730,l),
(60,730,l),
(60,0,l)
);
}
);
vertWidth = 1000;
width = 500;
},
{
layerId = "0F1A0AC1-B8D5-4257-ADED-894CB2B827EF";
shapes = (
{
closed = 1;
nodes = (
(467,127,o),
(556,199,o),
(556,385,cs),
(556,571,o),
(467,643,o),
(240,643,cs),
(202,643,o),
(162,641,o),
(136,639,c),
(200,515,l),
(220,517,o),
(244,519,o),
(269,519,cs),
(375,519,o),
(414,483,o),
(414,385,cs),
(414,287,o),
(375,251,o),
(269,251,cs),
(244,251,o),
(220,253,o),
(200,255,c),
(136,131,l),
(162,129,o),
(202,127,o),
(240,127,cs)
);
},
{
closed = 1;
nodes = (
(210,0,l),
(210,730,l),
(66,730,l),
(66,0,l)
);
}
);
vertWidth = 1000;
width = 600;
},
{
layerId = "72F02222-BF87-41FD-9A7E-0ABB550ED2DB";
shapes = (
{
closed = 1;
nodes = (
(462,140,o),
(545,208,o),
(545,385,cs),
(545,562,o),
(462,630,o),
(248,630,cs),
(211,630,o),
(167,628,o),
(124,623,c),
(157,550,l),
(197,555,o),
(230,558,o),
(266,558,cs),
(410,558,o),
(464,511,o),
(464,385,cs),
(464,259,o),
(410,212,o),
(266,212,cs),
(230,212,o),
(197,215,o),
(157,220,c),
(124,147,l),
(167,142,o),
(211,140,o),
(248,140,cs)
);
},
{
closed = 1;
nodes = (
(167,0,l),
(167,730,l),
(85,730,l),
(85,0,l)
);
}
);
vertWidth = 1000;
width = 600;
},
{
layerId = "D0C1F23C-2F9F-4D30-8C4D-098ED54EEF3D";
shapes = (
{
closed = 1;
nodes = (
(456,153,o),
(534,218,o),
(534,385,cs),
(534,552,o),
(456,617,o),
(257,617,cs),
(214,617,o),
(172,614,o),
(111,606,c),
(114,586,l),
(172,594,o),
(214,597,o),
(257,597,cs),
(445,597,o),
(514,540,o),
(514,385,cs),
(514,230,o),
(445,173,o),
(257,173,cs),
(214,173,o),
(172,176,o),
(114,184,c),
(111,164,l),
(172,156,o),
(214,153,o),
(257,153,cs)
);
},
{
closed = 1;
nodes = (
(124,0,l),
(124,730,l),
(104,730,l),
(104,0,l)
);
}
);
width = 600;
}
);
unicode = 222;
},
{
color = 6;
glyphname = Q;
kernLeft = O;
kernRight = O;
lastChange = "2021-05-05 04:42:54 +0000";
layers = (
{
layerId = "E27A6A66-A1F8-4E1B-8224-7C0FE77551F2";
shapes = (
{
closed = 1;
nodes = (
(480,-150,l),
(480,-62,o),
(442,-1,o),
(371,24,c),
(371,28,l),
(434,70,o),
(460,161,o),
(460,335,cs),
(460,395,ls),
(460,648,o),
(404,740,o),
(250,740,cs),
(96,740,o),
(40,648,o),
(40,395,cs),
(40,335,ls),
(40,82,o),
(96,-10,o),
(250,-10,cs),
(354,-10,o),
(398,-52,o),
(398,-150,c)
);
},
{
closed = 1;
nodes = (
(152,62,o),
(122,124,o),
(122,340,cs),
(122,390,ls),
(122,606,o),
(152,668,o),
(250,668,cs),
(348,668,o),
(378,606,o),
(378,390,cs),
(378,340,ls),
(378,124,o),
(348,62,o),
(250,62,cs)
);
}
);
vertWidth = 1000;
width = 500;
},
{
layerId = "FC9CFCDA-9E80-4E73-BA51-8504D15957FA";
shapes = (
{
closed = 1;
nodes = (
(495,-150,l),
(495,-44,o),
(468,20,o),
(412,47,c),
(412,51,l),
(456,102,o),
(475,190,o),
(475,335,cs),
(475,395,ls),
(475,648,o),
(415,740,o),
(250,740,cs),
(85,740,o),
(25,648,o),
(25,395,cs),
(25,335,ls),
(25,82,o),
(85,-10,o),
(250,-10,cs),
(331,-10,o),
(350,-32,o),
(350,-150,c)
);
},
{
closed = 1;
nodes = (
(183,114,o),
(169,154,o),
(169,345,cs),
(169,385,ls),
(169,576,o),
(183,616,o),
(250,616,cs),
(317,616,o),
(331,576,o),
(331,385,cs),
(331,345,ls),
(331,154,o),
(317,114,o),
(250,114,cs)
);
}
);
vertWidth = 1000;
width = 500;
},
{
layerId = "D65C9A1E-0FCA-4B2D-8EDF-9F36CA9182A1";
shapes = (
{
closed = 1;
nodes = (
(465,-150,l),
(465,-79,o),
(413,-22,o),
(329,0,c),
(329,4,l),
(412,38,o),
(445,133,o),
(445,335,cs),
(445,395,ls),
(445,648,o),
(393,740,o),
(250,740,cs),
(107,740,o),
(55,648,o),
(55,395,cs),
(55,335,ls),
(55,82,o),
(107,-10,o),
(250,-10,cs),
(364,-10,o),
(445,-68,o),
(445,-150,c)
);
},
{
closed = 1;
nodes = (
(120,10,o),
(75,93,o),
(75,335,cs),
(75,395,ls),
(75,637,o),
(120,720,o),
(250,720,cs),
(380,720,o),
(425,637,o),
(425,395,cs),
(425,335,ls),
(425,93,o),
(380,10,o),
(250,10,cs)
);
}
);
width = 500;
},
{
layerId = "0F1A0AC1-B8D5-4257-ADED-894CB2B827EF";
shapes = (
{
closed = 1;
nodes = (
(590,-150,l),
(590,-53,o),
(556,10,o),
(487,43,c),
(487,47,l),
(544,99,o),
(570,190,o),
(570,335,cs),
(570,395,ls),
(570,643,o),
(494,740,o),
(300,740,cs),
(106,740,o),
(30,643,o),
(30,395,cs),
(30,335,ls),
(30,87,o),
(106,-10,o),
(300,-10,cs),
(411,-10,o),
(445,-42,o),
(445,-150,c)
);
},
{
closed = 1;
nodes = (
(199,114,o),
(174,160,o),
(174,345,cs),
(174,385,ls),
(174,570,o),
(199,616,o),
(300,616,cs),
(401,616,o),
(426,570,o),
(426,385,cs),
(426,345,ls),
(426,160,o),
(401,114,o),
(300,114,cs)
);
}
);
vertWidth = 1000;
width = 600;
},
{
layerId = "72F02222-BF87-41FD-9A7E-0ABB550ED2DB";
shapes = (
{
closed = 1;
nodes = (
(575,-150,l),
(575,-67,o),
(529,-7,o),
(443,23,c),
(443,27,l),
(521,70,o),
(555,164,o),
(555,335,cs),
(555,395,ls),
(555,643,o),
(483,740,o),
(300,740,cs),
(117,740,o),
(45,643,o),
(45,395,cs),
(45,335,ls),
(45,87,o),
(117,-10,o),
(300,-10,cs),
(428,-10,o),
(493,-57,o),
(493,-150,c)
);
},
{
closed = 1;
nodes = (
(170,62,o),
(127,130,o),
(127,340,cs),
(127,390,ls),
(127,600,o),
(170,668,o),
(300,668,cs),
(430,668,o),
(473,600,o),
(473,390,cs),
(473,340,ls),
(473,130,o),
(430,62,o),
(300,62,cs)
);
}
);
vertWidth = 1000;
width = 600;
},
{
layerId = "D0C1F23C-2F9F-4D30-8C4D-098ED54EEF3D";
shapes = (
{
closed = 1;
nodes = (
(560,-150,l),
(560,-82,o),
(495,-24,o),
(393,-1,c),
(393,3,l),
(496,36,o),
(540,136,o),
(540,335,cs),
(540,395,ls),
(540,642,o),
(472,740,o),
(300,740,cs),
(128,740,o),
(60,642,o),
(60,395,cs),
(60,335,ls),
(60,88,o),
(128,-10,o),
(300,-10,cs),
(435,-10,o),
(540,-71,o),
(540,-150,c)
);
},
{
closed = 1;
nodes = (
(140,10,o),
(80,99,o),
(80,335,cs),
(80,395,ls),
(80,631,o),
(140,720,o),
(300,720,cs),
(460,720,o),
(520,631,o),
(520,395,cs),
(520,335,ls),
(520,99,o),
(460,10,o),
(300,10,cs)
);
}
);
width = 600;
}
);
unicode = 81;
},
{
color = 6;
glyphname = R;
kernLeft = H;
kernRight = R;
lastChange = "2021-05-05 04:42:54 +0000";
layers = (
{
anchors = (
{
name = bottom;
pos = (240,0);
},
{
name = top;
pos = (240,730);
}
);
layerId = "D65C9A1E-0FCA-4B2D-8EDF-9F36CA9182A1";
shapes = (
{
closed = 1;
nodes = (
(88,0,l),
(108,0,l),
(108,728,l),
(91,708,l),
(141,717,o),
(177,720,o),
(216,720,cs),
(372,720,o),
(428,669,o),
(428,530,cs),
(428,391,o),
(372,340,o),
(216,340,cs),
(179,340,o),
(147,343,o),
(97,351,c),
(94,331,l),
(145,323,o),
(178,320,o),
(216,320,cs),
(383,320,o),
(448,379,o),
(448,530,cs),
(448,681,o),
(383,740,o),
(216,740,cs),
(178,740,o),
(142,737,o),
(88,728,c)
);
},
{
closed = 1;
nodes = (
(458,0,l),
(132,335,l),
(105,335,l),
(430,0,l)
);
}
);
width = 500;
},
{
anchors = (
{
name = bottom;
pos = (240,0);
},
{
name = top;
pos = (240,730);
}
);
layerId = "E27A6A66-A1F8-4E1B-8224-7C0FE77551F2";
shapes = (
{
closed = 1;
nodes = (
(70,0,l),
(150,0,l),
(150,688,l),
(126,660,l),
(162,666,o),
(189,668,o),
(216,668,cs),
(336,668,o),
(379,627,o),
(379,514,cs),
(379,401,o),
(336,360,o),
(216,360,cs),
(190,360,o),
(164,362,o),
(129,368,c),
(103,298,l),
(140,293,o),
(173,290,o),
(209,290,cs),
(390,290,o),
(460,353,o),
(460,515,cs),
(460,677,o),
(390,740,o),
(209,740,cs),
(169,740,o),
(129,737,o),
(70,728,c)
);
},
{
closed = 1;
nodes = (
(470,0,l),
(218,328,l),
(126,328,l),
(376,0,l)
);
}
);
vertWidth = 1000;
width = 500;
},
{
anchors = (
{
name = bottom;
pos = (240,0);
},
{
name = top;
pos = (240,730);
}
);
layerId = "FC9CFCDA-9E80-4E73-BA51-8504D15957FA";
shapes = (
{
closed = 1;
nodes = (
(52,0,l),
(192,0,l),
(192,647,l),
(160,610,l),
(183,613,o),
(200,614,o),
(215,614,cs),
(300,614,o),
(330,583,o),
(330,497,cs),
(330,411,o),
(300,380,o),
(215,380,cs),
(200,380,o),
(180,381,o),
(160,384,c),
(112,264,l),
(134,262,o),
(168,260,o),
(201,260,cs),
(396,260,o),
(472,327,o),
(472,500,cs),
(472,673,o),
(396,740,o),
(201,740,cs),
(160,740,o),
(115,737,o),
(52,728,c)
);
},
{
closed = 1;
nodes = (
(482,0,l),
(314,320,l),
(164,320,l),
(328,0,l)
);
}
);
vertWidth = 1000;
width = 500;
},
{
anchors = (
{
name = bottom;
pos = (280,0);
},
{
name = top;
pos = (280,730);
}
);
layerId = "0F1A0AC1-B8D5-4257-ADED-894CB2B827EF";
shapes = (
{
closed = 1;
nodes = (
(62,0,l),
(206,0,l),
(206,647,l),
(196,610,l),
(213,613,o),
(234,614,o),
(254,614,cs),
(364,614,o),
(400,585,o),
(400,497,cs),
(400,409,o),
(364,380,o),
(254,380,cs),
(234,380,o),
(213,381,o),
(196,384,c),
(132,264,l),
(159,262,o),
(199,260,o),
(238,260,cs),
(457,260,o),
(542,327,o),
(542,500,cs),
(542,673,o),
(457,740,o),
(238,740,cs),
(190,740,o),
(137,737,o),
(62,728,c)
);
},
{
closed = 1;
nodes = (
(562,0,l),
(326,320,l),
(166,320,l),
(398,0,l)
);
}
);
vertWidth = 1000;
width = 600;
},
{
anchors = (
{
name = bottom;
pos = (280,0);
},
{
name = top;
pos = (280,730);
}
);
layerId = "72F02222-BF87-41FD-9A7E-0ABB550ED2DB";
shapes = (
{
closed = 1;
nodes = (
(81,0,l),
(163,0,l),
(163,687,l),
(150,660,l),
(188,666,o),
(221,668,o),
(253,668,cs),
(398,668,o),
(450,627,o),
(450,513,cs),
(450,400,o),
(400,360,o),
(257,360,cs),
(225,360,o),
(193,362,o),
(153,367,c),
(120,297,l),
(164,292,o),
(209,290,o),
(247,290,cs),
(452,290,o),
(531,353,o),
(531,515,cs),
(531,677,o),
(452,740,o),
(247,740,cs),
(201,740,o),
(151,737,o),
(81,728,c)
);
},
{
closed = 1;
nodes = (
(551,0,l),
(233,328,l),
(131,330,l),
(447,0,l)
);
}
);
vertWidth = 1000;
width = 600;
},
{
anchors = (
{
name = bottom;
pos = (280,0);
},
{
name = top;
pos = (280,730);
}
);
layerId = "D0C1F23C-2F9F-4D30-8C4D-098ED54EEF3D";
shapes = (
{
closed = 1;
nodes = (
(100,0,l),
(120,0,l),
(120,728,l),
(103,708,l),
(164,717,o),
(210,720,o),
(256,720,cs),
(435,720,o),
(500,669,o),
(500,530,cs),
(500,391,o),
(435,340,o),
(256,340,cs),
(213,340,o),
(171,343,o),
(109,350,c),
(107,330,l),
(169,323,o),
(212,320,o),
(256,320,cs),
(446,320,o),
(520,379,o),
(520,530,cs),
(520,681,o),
(446,740,o),
(256,740,cs),
(212,740,o),
(166,737,o),
(100,728,c)
);
},
{
closed = 1;
nodes = (
(540,0,l),
(144,337,l),
(110,340,l),
(509,0,l)
);
}
);
width = 600;
}
);
unicode = 82;
},
{
color = 6;
glyphname = S;
kernLeft = S;
kernRight = S;
lastChange = "2021-05-05 04:42:54 +0000";
layers = (
{
anchors = (
{
name = bottom;
pos = (250,0);
},
{
name = cedi;
pos = (200,0);
},
{
name = top;
pos = (250,730);
}
);
layerId = "D65C9A1E-0FCA-4B2D-8EDF-9F36CA9182A1";
shapes = (
{
closed = 1;
nodes = (
(353,-10,o),
(430,59,o),
(430,173,cs),
(430,301,o),
(336,350,o),
(249,395,cs),
(166,439,o),
(90,479,o),
(90,580,cs),
(90,670,o),
(150,720,o),
(263,720,cs),
(304,720,o),
(352,713,o),
(401,701,c),
(386,713,l),
(386,520,l),
(406,520,l),
(406,720,l),
(356,733,o),
(306,740,o),
(263,740,cs),
(140,740,o),
(70,682,o),
(70,580,cs),
(70,467,o),
(156,421,o),
(239,377,cs),
(326,332,o),
(410,289,o),
(410,173,cs),
(410,70,o),
(342,10,o),
(225,10,cs),
(177,10,o),
(133,20,o),
(85,38,c),
(85,18,l),
(133,-1,o),
(179,-10,o),
(225,-10,cs)
);
}
);
width = 500;
},
{
anchors = (
{
name = bottom;
pos = (250,0);
},
{
name = cedi;
pos = (220,0);
},
{
name = top;
pos = (250,730);
}
);
layerId = "FC9CFCDA-9E80-4E73-BA51-8504D15957FA";
shapes = (
{
closed = 1;
nodes = (
(381,-10,o),
(455,51,o),
(455,181,cs),
(455,279,o),
(414,335,o),
(294,405,cs),
(207,455,o),
(179,487,o),
(179,538,cs),
(179,593,o),
(210,614,o),
(289,614,cs),
(306,614,o),
(329,613,o),
(349,610,c),
(300,671,l),
(300,500,l),
(440,500,l),
(440,725,l),
(391,735,o),
(340,740,o),
(293,740,cs),
(124,740,o),
(35,676,o),
(35,540,cs),
(35,437,o),
(80,375,o),
(208,299,cs),
(285,254,o),
(311,225,o),
(311,185,cs),
(311,140,o),
(275,116,o),
(210,116,cs),
(162,116,o),
(103,129,o),
(55,149,c),
(55,15,l),
(105,-1,o),
(164,-10,o),
(224,-10,cs)
);
}
);
vertWidth = 1000;
width = 500;
},
{
anchors = (
{
name = bottom;
pos = (300,0);
},
{
name = cedi;
pos = (260,0);
},
{
name = top;
pos = (300,730);
}
);
layerId = "0F1A0AC1-B8D5-4257-ADED-894CB2B827EF";
shapes = (
{
closed = 1;
nodes = (
(455,-10,o),
(540,53,o),
(540,187,cs),
(540,289,o),
(491,343,o),
(337,410,cs),
(230,456,o),
(194,489,o),
(194,538,cs),
(194,590,o),
(235,614,o),
(326,614,cs),
(352,614,o),
(385,612,o),
(407,610,c),
(380,671,l),
(380,500,l),
(520,500,l),
(520,725,l),
(465,735,o),
(399,740,o),
(342,740,cs),
(141,740,o),
(50,677,o),
(50,537,cs),
(50,428,o),
(106,367,o),
(271,294,cs),
(366,251,o),
(396,224,o),
(396,185,cs),
(396,137,o),
(355,116,o),
(261,116,cs),
(196,116,o),
(140,126,o),
(75,149,c),
(75,15,l),
(133,-1,o),
(204,-10,o),
(272,-10,cs)
);
}
);
vertWidth = 1000;
width = 600;
},
{
anchors = (
{
name = bottom;
pos = (300,0);
},
{
name = cedi;
pos = (260,0);
},
{
name = top;
pos = (300,730);
}
);
layerId = "72F02222-BF87-41FD-9A7E-0ABB550ED2DB";
shapes = (
{
closed = 1;
nodes = (
(440,-10,o),
(527,54,o),
(527,180,cs),
(527,279,o),
(474,333,o),
(317,402,cs),
(190,456,o),
(149,494,o),
(149,559,cs),
(149,634,o),
(204,668,o),
(319,668,cs),
(359,668,o),
(395,664,o),
(444,656,c),
(423,692,l),
(423,510,l),
(503,510,l),
(503,723,l),
(445,734,o),
(381,740,o),
(327,740,cs),
(154,740,o),
(67,679,o),
(67,558,cs),
(67,458,o),
(126,404,o),
(279,336,cs),
(405,281,o),
(445,244,o),
(445,179,cs),
(445,99,o),
(386,62,o),
(266,62,cs),
(203,62,o),
(150,72,o),
(87,94,c),
(87,16,l),
(146,-1,o),
(209,-10,o),
(272,-10,cs)
);
}
);
vertWidth = 1000;
width = 600;
},
{
anchors = (
{
name = bottom;
pos = (300,0);
},
{
name = cedi;
pos = (250,0);
},
{
name = top;
pos = (300,730);
}
);
layerId = "D0C1F23C-2F9F-4D30-8C4D-098ED54EEF3D";
shapes = (
{
closed = 1;
nodes = (
(427,-10,o),
(515,55,o),
(515,173,cs),
(515,268,o),
(459,324,o),
(296,395,cs),
(151,459,o),
(105,504,o),
(105,580,cs),
(105,672,o),
(175,720,o),
(311,720,cs),
(362,720,o),
(422,713,o),
(482,700,c),
(466,713,l),
(466,520,l),
(486,520,l),
(486,720,l),
(425,733,o),
(363,740,o),
(311,740,cs),
(164,740,o),
(85,684,o),
(85,580,cs),
(85,489,o),
(146,439,o),
(288,377,cs),
(444,309,o),
(495,259,o),
(495,173,cs),
(495,67,o),
(417,10,o),
(271,10,cs),
(210,10,o),
(160,20,o),
(100,40,c),
(100,18,l),
(160,-2,o),
(216,-10,o),
(271,-10,cs)
);
}
);
width = 600;
},
{
anchors = (
{
name = bottom;
pos = (250,0);
},
{
name = cedi;
pos = (215,0);
},
{
name = top;
pos = (250,730);
}
);
layerId = "E27A6A66-A1F8-4E1B-8224-7C0FE77551F2";
shapes = (
{
closed = 1;
nodes = (
(369,-10,o),
(442,52,o),
(442,177,cs),
(442,273,o),
(400,327,o),
(272,399,cs),
(167,457,o),
(134,496,o),
(134,559,cs),
(134,633,o),
(180,668,o),
(276,668,cs),
(309,668,o),
(339,664,o),
(375,656,c),
(343,692,l),
(343,510,l),
(423,510,l),
(423,723,l),
(371,735,o),
(325,740,o),
(278,740,cs),
(122,740,o),
(52,684,o),
(52,560,cs),
(52,465,o),
(93,412,o),
(223,339,cs),
(328,281,o),
(360,243,o),
(360,179,cs),
(360,97,o),
(308,62,o),
(217,62,cs),
(166,62,o),
(119,73,o),
(70,93,c),
(70,16,l),
(120,-2,o),
(172,-10,o),
(224,-10,cs)
);
}
);
vertWidth = 1000;
width = 500;
}
);
unicode = 83;
},
{
color = 10;
glyphname = Germandbls;
kernLeft = H;
kernRight = B;
lastChange = "2021-05-05 04:42:54 +0000";
layers = (
{
layerId = "D65C9A1E-0FCA-4B2D-8EDF-9F36CA9182A1";
shapes = (
{
closed = 1;
nodes = (
(62,0,l),
(82,0,l),
(82,485,ls),
(82,647,o),
(136,720,o),
(256,720,cs),
(316,720,o),
(380,706,o),
(433,658,c),
(450,672,l),
(392,724,o),
(322,740,o),
(256,740,cs),
(125,740,o),
(62,660,o),
(62,490,cs)
);
},
{
closed = 1;
nodes = (
(399,-10,o),
(472,58,o),
(472,180,cs),
(472,302,o),
(398,370,o),
(267,370,c),
(267,372,l),
(450,672,l),
(430,681,l),
(240,369,l),
(252,350,l),
(272,350,ls),
(389,350,o),
(452,290,o),
(452,180,cs),
(452,70,o),
(388,10,o),
(269,10,cs),
(236,10,o),
(208,15,o),
(180,26,c),
(174,7,l),
(205,-5,o),
(236,-10,o),
(269,-10,cs)
);
}
);
width = 500;
},
{
layerId = "E27A6A66-A1F8-4E1B-8224-7C0FE77551F2";
shapes = (
{
closed = 1;
nodes = (
(43,0,l),
(123,0,l),
(123,463,ls),
(123,598,o),
(176,668,o),
(279,668,cs),
(340,668,o),
(389,636,o),
(422,576,c),
(470,641,l),
(430,706,o),
(365,740,o),
(279,740,cs),
(124,740,o),
(43,648,o),
(43,473,cs)
);
},
{
closed = 1;
nodes = (
(419,-10,o),
(483,60,o),
(483,196,cs),
(483,322,o),
(429,385,o),
(314,391,c),
(314,395,l),
(470,641,l),
(390,654,l),
(220,390,l),
(250,326,l),
(260,326,ls),
(360,326,o),
(401,288,o),
(401,195,cs),
(401,104,o),
(362,62,o),
(279,62,cs),
(250,62,o),
(223,67,o),
(195,78,c),
(195,5,l),
(227,-6,o),
(265,-10,o),
(295,-10,cs)
);
}
);
vertWidth = 1000;
width = 500;
},
{
layerId = "FC9CFCDA-9E80-4E73-BA51-8504D15957FA";
shapes = (
{
closed = 1;
nodes = (
(24,0,l),
(164,0,l),
(164,502,ls),
(164,578,o),
(198,618,o),
(262,618,cs),
(303,618,o),
(340,592,o),
(370,541,c),
(490,622,l),
(453,700,o),
(375,740,o),
(262,740,cs),
(106,740,o),
(24,665,o),
(24,522,cs)
);
},
{
closed = 1;
nodes = (
(434,-10,o),
(494,58,o),
(494,197,cs),
(494,316,o),
(451,388,o),
(359,401,c),
(359,405,l),
(490,622,l),
(364,659,l),
(212,407,l),
(262,293,l),
(272,293,ls),
(323,293,o),
(350,262,o),
(350,204,cs),
(350,144,o),
(326,112,o),
(279,112,cs),
(260,112,o),
(238,116,o),
(212,126,c),
(212,4,l),
(246,-6,o),
(281,-10,o),
(311,-10,cs)
);
}
);
vertWidth = 1000;
width = 500;
},
{
layerId = "0F1A0AC1-B8D5-4257-ADED-894CB2B827EF";
shapes = (
{
closed = 1;
nodes = (
(52,0,l),
(192,0,l),
(192,502,ls),
(192,578,o),
(226,618,o),
(290,618,cs),
(342,618,o),
(390,582,o),
(428,511,c),
(548,592,l),
(506,690,o),
(418,740,o),
(290,740,cs),
(134,740,o),
(52,665,o),
(52,522,cs)
);
},
{
closed = 1;
nodes = (
(507,-10,o),
(572,58,o),
(572,197,cs),
(572,316,o),
(519,388,o),
(407,401,c),
(407,405,l),
(548,592,l),
(422,629,l),
(260,407,l),
(310,293,l),
(320,293,ls),
(391,293,o),
(428,262,o),
(428,204,cs),
(428,144,o),
(399,112,o),
(342,112,cs),
(319,112,o),
(292,116,o),
(260,126,c),
(260,4,l),
(299,-6,o),
(339,-10,o),
(374,-10,cs)
);
}
);
vertWidth = 1000;
width = 600;
},
{
layerId = "72F02222-BF87-41FD-9A7E-0ABB550ED2DB";
shapes = (
{
closed = 1;
nodes = (
(70,0,l),
(150,0,l),
(150,463,ls),
(150,598,o),
(206,668,o),
(316,668,cs),
(390,668,o),
(459,633,o),
(489,566,c),
(537,631,l),
(491,703,o),
(416,740,o),
(316,740,cs),
(154,740,o),
(70,648,o),
(70,473,cs)
);
},
{
closed = 1;
nodes = (
(489,-10,o),
(560,60,o),
(560,196,cs),
(560,322,o),
(500,385,o),
(371,391,c),
(371,395,l),
(537,631,l),
(457,644,l),
(277,390,l),
(307,326,l),
(317,326,ls),
(431,326,o),
(478,288,o),
(478,195,cs),
(478,104,o),
(433,62,o),
(336,62,cs),
(303,62,o),
(271,67,o),
(239,78,c),
(239,5,l),
(275,-6,o),
(318,-10,o),
(352,-10,cs)
);
}
);
vertWidth = 1000;
width = 600;
},
{
layerId = "D0C1F23C-2F9F-4D30-8C4D-098ED54EEF3D";
shapes = (
{
closed = 1;
nodes = (
(88,0,l),
(108,0,l),
(108,485,ls),
(108,647,o),
(170,720,o),
(307,720,cs),
(375,720,o),
(449,706,o),
(509,658,c),
(526,672,l),
(461,724,o),
(382,740,o),
(307,740,cs),
(159,740,o),
(88,660,o),
(88,490,cs)
);
},
{
closed = 1;
nodes = (
(471,-10,o),
(548,58,o),
(548,180,cs),
(548,302,o),
(470,370,o),
(332,370,c),
(332,372,l),
(526,672,l),
(506,676,l),
(306,369,l),
(318,350,l),
(338,350,ls),
(462,350,o),
(528,290,o),
(528,180,cs),
(528,70,o),
(461,10,o),
(335,10,cs),
(298,10,o),
(267,15,o),
(236,26,c),
(230,7,l),
(264,-5,o),
(299,-10,o),
(335,-10,cs)
);
}
);
width = 600;
}
);
unicode = 7838;
},
{
color = 10;
glyphname = Schwa;
kernLeft = O;
kernRight = O;
lastChange = "2021-05-05 04:42:54 +0000";
layers = (
{
layerId = "D65C9A1E-0FCA-4B2D-8EDF-9F36CA9182A1";
shapes = (
{
closed = 1;
nodes = (
(386,-10,o),
(440,88,o),
(440,337,cs),
(440,393,ls),
(440,635,o),
(372,740,o),
(215,740,cs),
(172,740,o),
(124,732,o),
(87,718,c),
(87,696,l),
(124,711,o),
(171,720,o),
(215,720,cs),
(359,720,o),
(420,625,o),
(420,393,cs),
(420,337,ls),
(420,98,o),
(372,10,o),
(250,10,cs),
(128,10,o),
(80,98,o),
(80,337,cs),
(80,362,l),
(70,352,l),
(430,352,l),
(430,372,l),
(60,372,l),
(60,337,ls),
(60,88,o),
(114,-10,o),
(250,-10,cs)
);
}
);
width = 500;
},
{
layerId = "E27A6A66-A1F8-4E1B-8224-7C0FE77551F2";
shapes = (
{
closed = 1;
nodes = (
(397,-10,o),
(455,89,o),
(455,337,cs),
(455,393,ls),
(455,634,o),
(381,740,o),
(212,740,cs),
(166,740,o),
(116,732,o),
(74,718,c),
(74,643,l),
(117,660,o),
(161,668,o),
(206,668,cs),
(334,668,o),
(375,601,o),
(375,390,cs),
(375,340,ls),
(375,131,o),
(344,62,o),
(250,62,cs),
(156,62,o),
(125,131,o),
(125,340,cs),
(125,354,l),
(108,334,l),
(414,334,l),
(414,402,l),
(45,402,l),
(45,337,ls),
(45,89,o),
(103,-10,o),
(250,-10,cs)
);
}
);
vertWidth = 1000;
width = 500;
},
{
layerId = "FC9CFCDA-9E80-4E73-BA51-8504D15957FA";
shapes = (
{
closed = 1;
nodes = (
(407,-10,o),
(470,90,o),
(470,337,cs),
(470,393,ls),
(470,634,o),
(390,740,o),
(210,740,cs),
(161,740,o),
(109,732,o),
(61,718,c),
(61,588,l),
(113,607,o),
(152,614,o),
(198,614,cs),
(306,614,o),
(328,576,o),
(328,388,cs),
(328,342,ls),
(328,162,o),
(312,116,o),
(249,116,cs),
(186,116,o),
(170,162,o),
(170,342,cs),
(170,346,l),
(145,316,l),
(399,316,l),
(399,432,l),
(30,432,l),
(30,337,ls),
(30,90,o),
(93,-10,o),
(250,-10,cs)
);
}
);
vertWidth = 1000;
width = 500;
},
{
layerId = "0F1A0AC1-B8D5-4257-ADED-894CB2B827EF";
shapes = (
{
closed = 1;
nodes = (
(475,-10,o),
(545,90,o),
(545,337,cs),
(545,393,ls),
(545,634,o),
(457,740,o),
(257,740,cs),
(202,740,o),
(144,732,o),
(90,718,c),
(89,588,l),
(151,607,o),
(196,614,o),
(250,614,cs),
(377,614,o),
(403,576,o),
(403,388,cs),
(403,342,ls),
(403,162,o),
(382,116,o),
(299,116,cs),
(216,116,o),
(195,162,o),
(195,342,cs),
(195,346,l),
(183,316,l),
(466,316,l),
(466,432,l),
(55,432,l),
(55,337,ls),
(55,90,o),
(125,-10,o),
(300,-10,cs)
);
}
);
vertWidth = 1000;
width = 600;
},
{
layerId = "72F02222-BF87-41FD-9A7E-0ABB550ED2DB";
shapes = (
{
closed = 1;
nodes = (
(465,-10,o),
(530,89,o),
(530,337,cs),
(530,393,ls),
(530,635,o),
(448,740,o),
(259,740,cs),
(207,740,o),
(151,732,o),
(103,718,c),
(102,643,l),
(152,660,o),
(205,668,o),
(256,668,cs),
(403,668,o),
(450,601,o),
(450,390,cs),
(450,340,ls),
(450,131,o),
(412,62,o),
(299,62,cs),
(186,62,o),
(150,130,o),
(150,340,cs),
(150,354,l),
(139,334,l),
(485,334,l),
(485,402,l),
(70,402,l),
(70,337,ls),
(70,89,o),
(135,-10,o),
(300,-10,cs)
);
}
);
vertWidth = 1000;
width = 600;
},
{
layerId = "D0C1F23C-2F9F-4D30-8C4D-098ED54EEF3D";
shapes = (
{
closed = 1;
nodes = (
(454,-10,o),
(515,88,o),
(515,337,cs),
(515,393,ls),
(515,635,o),
(439,740,o),
(262,740,cs),
(213,740,o),
(158,732,o),
(116,718,c),
(116,697,l),
(155,711,o),
(212,720,o),
(262,720,cs),
(426,720,o),
(495,625,o),
(495,393,cs),
(495,337,ls),
(495,98,o),
(441,10,o),
(300,10,cs),
(159,10,o),
(105,98,o),
(105,337,cs),
(105,362,l),
(95,352,l),
(505,352,l),
(505,372,l),
(85,372,l),
(85,337,ls),
(85,88,o),
(146,-10,o),
(300,-10,cs)
);
}
);
width = 600;
}
);
unicode = 399;
},
{
color = 6;
glyphname = T;
kernLeft = T;
kernRight = T;
lastChange = "2021-05-05 04:42:54 +0000";
layers = (
{
anchors = (
{
name = bottom;
pos = (250,0);
},
{
name = cedi;
pos = (270,0);
},
{
name = center;
pos = (250,365);
},
{
name = top;
pos = (250,730);
}
);
layerId = "D65C9A1E-0FCA-4B2D-8EDF-9F36CA9182A1";
shapes = (
{
closed = 1;
nodes = (
(260,0,l),
(260,710,l),
(455,710,l),
(455,730,l),
(45,730,l),
(45,710,l),
(240,710,l),
(240,0,l)
);
}
);
width = 500;
},
{
anchors = (
{
name = bottom;
pos = (250,0);
},
{
name = cedi;
pos = (253,0);
},
{
name = center;
pos = (250,365);
},
{
name = top;
pos = (250,730);
}
);
layerId = "E27A6A66-A1F8-4E1B-8224-7C0FE77551F2";
shapes = (
{
closed = 1;
nodes = (
(291,0,l),
(291,658,l),
(460,658,l),
(460,730,l),
(40,730,l),
(40,658,l),
(209,658,l),
(209,0,l)
);
}
);
vertWidth = 1000;
width = 500;
},
{
anchors = (
{
name = bottom;
pos = (250,0);
},
{
name = cedi;
pos = (241,0);
},
{
name = center;
pos = (250,365);
},
{
name = top;
pos = (250,730);
}
);
layerId = "FC9CFCDA-9E80-4E73-BA51-8504D15957FA";
shapes = (
{
closed = 1;
nodes = (
(322,0,l),
(322,606,l),
(465,606,l),
(465,730,l),
(35,730,l),
(35,606,l),
(178,606,l),
(178,0,l)
);
}
);
vertWidth = 1000;
width = 500;
},
{
anchors = (
{
name = bottom;
pos = (300,0);
},
{
name = cedi;
pos = (291,0);
},
{
name = center;
pos = (300,365);
},
{
name = top;
pos = (300,730);
}
);
layerId = "0F1A0AC1-B8D5-4257-ADED-894CB2B827EF";
shapes = (
{
closed = 1;
nodes = (
(372,0,l),
(372,606,l),
(550,606,l),
(550,730,l),
(50,730,l),
(50,606,l),
(228,606,l),
(228,0,l)
);
}
);
vertWidth = 1000;
width = 600;
},
{
anchors = (
{
name = bottom;
pos = (300,0);
},
{
name = cedi;
pos = (303,0);
},
{
name = center;
pos = (300,365);
},
{
name = top;
pos = (300,730);
}
);
layerId = "72F02222-BF87-41FD-9A7E-0ABB550ED2DB";
shapes = (
{
closed = 1;
nodes = (
(341,0,l),
(341,658,l),
(545,658,l),
(545,730,l),
(55,730,l),
(55,658,l),
(259,658,l),
(259,0,l)
);
}
);
vertWidth = 1000;
width = 600;
},
{
anchors = (
{
name = bottom;
pos = (300,0);
},
{
name = cedi;
pos = (320,0);
},
{
name = center;
pos = (300,365);
},
{
name = top;
pos = (300,730);
}
);
layerId = "D0C1F23C-2F9F-4D30-8C4D-098ED54EEF3D";
shapes = (
{
closed = 1;
nodes = (
(310,0,l),
(310,710,l),
(540,710,l),
(540,730,l),
(60,730,l),
(60,710,l),
(290,710,l),
(290,0,l)
);
}
);
width = 600;
}
);
metricRight = "=|";
unicode = 84;
},
{
color = 10;
glyphname = Tbar;
kernLeft = W;
kernRight = W;
lastChange = "2021-05-05 04:42:54 +0000";
layers = (
{
layerId = "D65C9A1E-0FCA-4B2D-8EDF-9F36CA9182A1";
shapes = (
{
closed = 1;
nodes = (
(430,376,l),
(430,396,l),
(70,396,l),
(70,376,l)
);
},
{
ref = T;
}
);
width = 500;
},
{
layerId = "E27A6A66-A1F8-4E1B-8224-7C0FE77551F2";
shapes = (
{
closed = 1;
nodes = (
(440,351,l),
(440,421,l),
(60,421,l),
(60,351,l)
);
},
{
alignment = -1;
ref = T;
}
);
vertWidth = 1000;
width = 500;
},
{
layerId = "FC9CFCDA-9E80-4E73-BA51-8504D15957FA";
shapes = (
{
closed = 1;
nodes = (
(450,328,l),
(450,444,l),
(50,444,l),
(50,328,l)
);
},
{
ref = T;
}
);
width = 500;
},
{
layerId = "0F1A0AC1-B8D5-4257-ADED-894CB2B827EF";
shapes = (
{
closed = 1;
nodes = (
(520,328,l),
(520,444,l),
(80,444,l),
(80,328,l)
);
},
{
ref = T;
}
);
width = 600;
},
{
layerId = "72F02222-BF87-41FD-9A7E-0ABB550ED2DB";
shapes = (
{
closed = 1;
nodes = (
(510,351,l),
(510,421,l),
(90,421,l),
(90,351,l)
);
},
{
alignment = -1;
ref = T;
}
);
vertWidth = 1000;
width = 600;
},
{
layerId = "D0C1F23C-2F9F-4D30-8C4D-098ED54EEF3D";
shapes = (
{
closed = 1;
nodes = (
(500,376,l),
(500,396,l),
(100,396,l),
(100,376,l)
);
},
{
ref = T;
}
);
width = 600;
}
);
unicode = 358;
},
{
color = 6;
glyphname = U;
kernLeft = U;
kernRight = U;
lastChange = "2021-05-05 04:42:54 +0000";
layers = (
{
anchors = (
{
name = bottom;
pos = (250,0);
},
{
name = ogonek;
pos = (290,0);
},
{
name = top;
pos = (250,730);
},
{
name = topright;
pos = (418,730);
}
);
layerId = "D65C9A1E-0FCA-4B2D-8EDF-9F36CA9182A1";
shapes = (
{
closed = 1;
nodes = (
(374,-10,o),
(430,54,o),
(430,195,cs),
(430,730,l),
(410,730,l),
(410,195,ls),
(410,65,o),
(362,10,o),
(250,10,cs),
(138,10,o),
(90,65,o),
(90,195,cs),
(90,730,l),
(70,730,l),
(70,195,ls),
(70,54,o),
(126,-10,o),
(250,-10,cs)
);
}
);
width = 500;
},
{
anchors = (
{
name = bottom;
pos = (250,0);
},
{
name = ogonek;
pos = (285,0);
},
{
name = top;
pos = (250,730);
},
{
name = topright;
pos = (378,730);
}
);
layerId = "E27A6A66-A1F8-4E1B-8224-7C0FE77551F2";
shapes = (
{
closed = 1;
nodes = (
(384,-10,o),
(445,54,o),
(445,195,cs),
(445,730,l),
(365,730,l),
(365,203,ls),
(365,103,o),
(332,62,o),
(250,62,cs),
(168,62,o),
(135,103,o),
(135,203,cs),
(135,730,l),
(55,730,l),
(55,195,ls),
(55,54,o),
(116,-10,o),
(250,-10,cs)
);
}
);
vertWidth = 1000;
width = 500;
},
{
anchors = (
{
name = bottom;
pos = (250,0);
},
{
name = ogonek;
pos = (290,0);
},
{
name = top;
pos = (250,730);
},
{
name = topright;
pos = (363,730);
}
);
layerId = "FC9CFCDA-9E80-4E73-BA51-8504D15957FA";
shapes = (
{
closed = 1;
nodes = (
(395,-10,o),
(460,54,o),
(460,195,cs),
(460,730,l),
(320,730,l),
(320,210,ls),
(320,140,o),
(301,114,o),
(250,114,cs),
(199,114,o),
(180,140,o),
(180,210,cs),
(180,730,l),
(40,730,l),
(40,195,ls),
(40,54,o),
(105,-10,o),
(250,-10,cs)
);
}
);
vertWidth = 1000;
width = 500;
},
{
anchors = (
{
name = bottom;
pos = (300,0);
},
{
name = ogonek;
pos = (300,0);
},
{
name = top;
pos = (300,730);
},
{
name = topright;
pos = (455,730);
}
);
layerId = "0F1A0AC1-B8D5-4257-ADED-894CB2B827EF";
shapes = (
{
closed = 1;
nodes = (
(469,-10,o),
(545,60,o),
(545,215,cs),
(545,730,l),
(405,730,l),
(405,225,ls),
(405,145,o),
(376,114,o),
(300,114,cs),
(224,114,o),
(195,145,o),
(195,225,cs),
(195,730,l),
(55,730,l),
(55,215,ls),
(55,60,o),
(131,-10,o),
(300,-10,cs)
);
}
);
vertWidth = 1000;
width = 600;
},
{
anchors = (
{
name = bottom;
pos = (300,0);
},
{
name = ogonek;
pos = (300,0);
},
{
name = top;
pos = (300,730);
},
{
name = topright;
pos = (463,730);
}
);
layerId = "72F02222-BF87-41FD-9A7E-0ABB550ED2DB";
shapes = (
{
closed = 1;
nodes = (
(459,-10,o),
(530,60,o),
(530,215,cs),
(530,730,l),
(450,730,l),
(450,220,ls),
(450,108,o),
(406,62,o),
(300,62,cs),
(194,62,o),
(150,108,o),
(150,220,cs),
(150,730,l),
(70,730,l),
(70,215,ls),
(70,60,o),
(141,-10,o),
(300,-10,cs)
);
}
);
vertWidth = 1000;
width = 600;
},
{
anchors = (
{
name = bottom;
pos = (300,0);
},
{
name = ogonek;
pos = (300,0);
},
{
name = top;
pos = (300,730);
},
{
name = topright;
pos = (495,730);
}
);
layerId = "D0C1F23C-2F9F-4D30-8C4D-098ED54EEF3D";
shapes = (
{
closed = 1;
nodes = (
(448,-10,o),
(515,60,o),
(515,215,cs),
(515,730,l),
(495,730,l),
(495,215,ls),
(495,71,o),
(437,10,o),
(300,10,cs),
(163,10,o),
(105,71,o),
(105,215,cs),
(105,730,l),
(85,730,l),
(85,215,ls),
(85,60,o),
(152,-10,o),
(300,-10,cs)
);
}
);
width = 600;
}
);
metricRight = "=|";
unicode = 85;
},
{
color = 10;
glyphname = Uogonek;
kernLeft = U;
kernRight = U;
lastChange = "2021-11-23 11:15:02 +0000";
layers = (
{
layerId = "D65C9A1E-0FCA-4B2D-8EDF-9F36CA9182A1";
shapes = (
{
closed = 1;
nodes = (
(275,-220,o),
(296,-217,o),
(313,-212,c),
(313,-190,l),
(297,-196,o),
(275,-200,o),
(255,-200,cs),
(220,-200,o),
(178,-191,o),
(178,-145,cs),
(178,-97,o),
(228,-57,o),
(320,0,c),
(301.765,8.743,l),
(212.645,-42.928,o),
(158,-86.731,o),
(158,-145,cs),
(158,-173,o),
(170,-220,o),
(255,-220,cs)
);
},
{
ref = U;
}
);
width = 500;
},
{
layerId = "E27A6A66-A1F8-4E1B-8224-7C0FE77551F2";
shapes = (
{
closed = 1;
nodes = (
(288,-218,o),
(307,-216,o),
(324,-211,c),
(324,-145,l),
(309,-150,o),
(292,-153,o),
(273,-153,cs),
(246,-153,o),
(226,-144,o),
(226,-117,cs),
(226,-81,o),
(263,-39,o),
(329,0,c),
(258.913,20.903,l),
(189.594,-23.983,o),
(152,-76.239,o),
(152,-130,cs),
(152,-186,o),
(194,-218,o),
(267,-218,cs)
);
},
{
ref = U;
}
);
width = 500;
},
{
layerId = "FC9CFCDA-9E80-4E73-BA51-8504D15957FA";
shapes = (
{
closed = 1;
nodes = (
(314,-218,o),
(332,-217,o),
(348,-216,c),
(348,-113,l),
(334,-114,o),
(319,-115,o),
(304,-115,cs),
(276,-115,o),
(261,-103,o),
(261,-81,cs),
(261,-54,o),
(294,-25,o),
(352,5,c),
(225.3,33.764,l),
(164.396,-10.891,o),
(135,-53.506,o),
(135,-102,cs),
(135,-176,o),
(193,-218,o),
(294,-218,cs)
);
},
{
ref = U;
}
);
width = 500;
},
{
layerId = "0F1A0AC1-B8D5-4257-ADED-894CB2B827EF";
shapes = (
{
closed = 1;
nodes = (
(361,-218,o),
(379,-217,o),
(395,-216,c),
(395,-113,l),
(381,-114,o),
(366,-115,o),
(351,-115,cs),
(323,-115,o),
(308,-103,o),
(308,-81,cs),
(308,-55,o),
(341,-27,o),
(399,2,c),
(271.333,33.054,l),
(211.085,-11.343,o),
(182,-53.763,o),
(182,-102,cs),
(182,-176,o),
(240,-218,o),
(341,-218,cs)
);
},
{
ref = U;
}
);
width = 600;
},
{
layerId = "72F02222-BF87-41FD-9A7E-0ABB550ED2DB";
shapes = (
{
closed = 1;
nodes = (
(328,-218,o),
(347,-216,o),
(364,-211,c),
(364,-145,l),
(349,-150,o),
(332,-153,o),
(313,-153,cs),
(286,-153,o),
(266,-144,o),
(266,-117,cs),
(266,-81,o),
(303,-39,o),
(369,0,c),
(298.913,20.903,l),
(229.594,-23.983,o),
(192,-76.239,o),
(192,-130,cs),
(192,-186,o),
(234,-218,o),
(307,-218,cs)
);
},
{
ref = U;
}
);
width = 600;
},
{
layerId = "D0C1F23C-2F9F-4D30-8C4D-098ED54EEF3D";
shapes = (
{
closed = 1;
nodes = (
(325,-220,o),
(346,-217,o),
(363,-212,c),
(363,-190,l),
(347,-196,o),
(325,-200,o),
(305,-200,cs),
(270,-200,o),
(228,-191,o),
(228,-145,cs),
(228,-97,o),
(278,-57,o),
(370,0,c),
(341.328,1.687,l),
(259.361,-48.843,o),
(208,-89.918,o),
(208,-145,cs),
(208,-173,o),
(220,-220,o),
(305,-220,cs)
);
},
{
ref = U;
}
);
width = 600;
}
);
unicode = 370;
},
{
color = 6;
glyphname = V;
kernLeft = V;
kernRight = V;
lastChange = "2021-05-05 04:42:54 +0000";
layers = (
{
layerId = "D65C9A1E-0FCA-4B2D-8EDF-9F36CA9182A1";
shapes = (
{
closed = 1;
nodes = (
(267,0,l),
(465,730,l),
(444,730,l),
(252,19,l),
(248,19,l),
(56,730,l),
(35,730,l),
(233,0,l)
);
}
);
width = 500;
},
{
layerId = "E27A6A66-A1F8-4E1B-8224-7C0FE77551F2";
shapes = (
{
closed = 1;
nodes = (
(299,0,l),
(480,730,l),
(398,730,l),
(252,104,l),
(248,104,l),
(102,730,l),
(20,730,l),
(201,0,l)
);
}
);
vertWidth = 1000;
width = 500;
},
{
layerId = "FC9CFCDA-9E80-4E73-BA51-8504D15957FA";
shapes = (
{
closed = 1;
nodes = (
(330,0,l),
(495,730,l),
(353,730,l),
(252,190,l),
(248,190,l),
(147,730,l),
(5,730,l),
(170,0,l)
);
}
);
vertWidth = 1000;
width = 500;
},
{
layerId = "0F1A0AC1-B8D5-4257-ADED-894CB2B827EF";
shapes = (
{
closed = 1;
nodes = (
(384,0,l),
(580,730,l),
(434,730,l),
(302,170,l),
(298,170,l),
(166,730,l),
(20,730,l),
(216,0,l)
);
}
);
vertWidth = 1000;
width = 600;
},
{
layerId = "72F02222-BF87-41FD-9A7E-0ABB550ED2DB";
shapes = (
{
closed = 1;
nodes = (
(351,0,l),
(565,730,l),
(481,730,l),
(302,94,l),
(298,94,l),
(119,730,l),
(35,730,l),
(249,0,l)
);
}
);
vertWidth = 1000;
width = 600;
},
{
layerId = "D0C1F23C-2F9F-4D30-8C4D-098ED54EEF3D";
shapes = (
{
closed = 1;
nodes = (
(317,0,l),
(550,730,l),
(529,730,l),
(302,18,l),
(298,18,l),
(71,730,l),
(50,730,l),
(283,0,l)
);
}
);
width = 600;
}
);
metricRight = "=|";
unicode = 86;
},
{
color = 6;
glyphname = W;
kernLeft = W;
kernRight = W;
lastChange = "2021-05-05 04:42:54 +0000";
layers = (
{
anchors = (
{
name = bottom;
pos = (250,0);
},
{
name = top;
pos = (250,730);
}
);
layerId = "D65C9A1E-0FCA-4B2D-8EDF-9F36CA9182A1";
shapes = (
{
closed = 1;
nodes = (
(132,0,l),
(248,605,l),
(252,605,l),
(368,0,l),
(405,0,l),
(485,730,l),
(464,730,l),
(388,25,l),
(384,25,l),
(268,630,l),
(232,630,l),
(116,25,l),
(112,25,l),
(36,730,l),
(15,730,l),
(95,0,l)
);
}
);
width = 500;
},
{
anchors = (
{
name = bottom;
pos = (250,0);
},
{
name = top;
pos = (250,730);
}
);
layerId = "E27A6A66-A1F8-4E1B-8224-7C0FE77551F2";
shapes = (
{
closed = 1;
nodes = (
(191,0,l),
(248,538,l),
(252,538,l),
(309,0,l),
(425,0,l),
(490,730,l),
(408,730,l),
(368,103,l),
(364,103,l),
(312,630,l),
(188,630,l),
(136,103,l),
(132,103,l),
(92,730,l),
(10,730,l),
(75,0,l)
);
}
);
vertWidth = 1000;
width = 500;
},
{
anchors = (
{
name = bottom;
pos = (250,0);
},
{
name = top;
pos = (250,730);
}
);
layerId = "FC9CFCDA-9E80-4E73-BA51-8504D15957FA";
shapes = (
{
closed = 1;
nodes = (
(220,0,l),
(248,300,l),
(252,300,l),
(280,0,l),
(445,0,l),
(495,730,l),
(355,730,l),
(347,230,l),
(343,230,l),
(295,630,l),
(205,630,l),
(157,230,l),
(153,230,l),
(145,730,l),
(5,730,l),
(55,0,l)
);
}
);
vertWidth = 1000;
width = 500;
},
{
anchors = (
{
name = bottom;
pos = (300,0);
},
{
name = top;
pos = (300,730);
}
);
layerId = "0F1A0AC1-B8D5-4257-ADED-894CB2B827EF";
shapes = (
{
closed = 1;
nodes = (
(250,0,l),
(298,350,l),
(302,350,l),
(350,0,l),
(519,0,l),
(580,730,l),
(440,730,l),
(411,210,l),
(406,210,l),
(355,630,l),
(245,630,l),
(194,210,l),
(189,210,l),
(160,730,l),
(20,730,l),
(81,0,l)
);
}
);
vertWidth = 1000;
width = 600;
},
{
anchors = (
{
name = bottom;
pos = (300,0);
},
{
name = top;
pos = (300,730);
}
);
layerId = "72F02222-BF87-41FD-9A7E-0ABB550ED2DB";
shapes = (
{
closed = 1;
nodes = (
(226,0,l),
(298,543,l),
(302,543,l),
(374,0,l),
(490,0,l),
(575,730,l),
(493,730,l),
(433,98,l),
(429,98,l),
(362,630,l),
(238,630,l),
(171,98,l),
(167,98,l),
(107,730,l),
(25,730,l),
(110,0,l)
);
}
);
vertWidth = 1000;
width = 600;
},
{
anchors = (
{
name = bottom;
pos = (300,0);
},
{
name = top;
pos = (300,730);
}
);
layerId = "D0C1F23C-2F9F-4D30-8C4D-098ED54EEF3D";
shapes = (
{
closed = 1;
nodes = (
(162,0,l),
(298,612,l),
(302,612,l),
(438,0,l),
(474,0,l),
(570,730,l),
(550,730,l),
(457,25,l),
(453,25,l),
(318,630,l),
(282,630,l),
(147,25,l),
(143,25,l),
(50,730,l),
(30,730,l),
(126,0,l)
);
}
);
width = 600;
}
);
metricRight = "=|";
unicode = 87;
},
{
color = 6;
glyphname = X;
kernLeft = X;
kernRight = X;
lastChange = "2021-05-05 04:42:54 +0000";
layers = (
{
layerId = "D65C9A1E-0FCA-4B2D-8EDF-9F36CA9182A1";
shapes = (
{
closed = 1;
nodes = (
(77,0,l),
(248,340,l),
(252,340,l),
(423,0,l),
(445,0,l),
(261,365,l),
(445,730,l),
(423,730,l),
(252,390,l),
(248,390,l),
(77,730,l),
(55,730,l),
(239,365,l),
(55,0,l)
);
}
);
width = 500;
},
{
layerId = "E27A6A66-A1F8-4E1B-8224-7C0FE77551F2";
shapes = (
{
closed = 1;
nodes = (
(126,0,l),
(248,310,l),
(252,310,l),
(374,0,l),
(460,0,l),
(307,367,l),
(460,730,l),
(375,730,l),
(252,424,l),
(248,424,l),
(125,730,l),
(40,730,l),
(193,367,l),
(40,0,l)
);
}
);
vertWidth = 1000;
width = 500;
},
{
layerId = "FC9CFCDA-9E80-4E73-BA51-8504D15957FA";
shapes = (
{
closed = 1;
nodes = (
(175,0,l),
(248,279,l),
(252,279,l),
(325,0,l),
(475,0,l),
(350,369,l),
(475,730,l),
(327,730,l),
(252,459,l),
(248,459,l),
(173,730,l),
(25,730,l),
(150,369,l),
(25,0,l)
);
}
);
vertWidth = 1000;
width = 500;
},
{
layerId = "0F1A0AC1-B8D5-4257-ADED-894CB2B827EF";
shapes = (
{
closed = 1;
nodes = (
(190,0,l),
(298,279,l),
(302,279,l),
(410,0,l),
(560,0,l),
(400,369,l),
(558,730,l),
(410,730,l),
(302,459,l),
(298,459,l),
(190,730,l),
(42,730,l),
(200,369,l),
(40,0,l)
);
}
);
vertWidth = 1000;
width = 600;
},
{
layerId = "72F02222-BF87-41FD-9A7E-0ABB550ED2DB";
shapes = (
{
closed = 1;
nodes = (
(146,0,l),
(298,310,l),
(302,310,l),
(454,0,l),
(540,0,l),
(357,367,l),
(540,730,l),
(455,730,l),
(302,424,l),
(298,424,l),
(145,730,l),
(60,730,l),
(243,367,l),
(60,0,l)
);
}
);
vertWidth = 1000;
width = 600;
},
{
layerId = "D0C1F23C-2F9F-4D30-8C4D-098ED54EEF3D";
shapes = (
{
closed = 1;
nodes = (
(102,0,l),
(298,341,l),
(302,341,l),
(498,0,l),
(520,0,l),
(311,365,l),
(520,730,l),
(498,730,l),
(302,389,l),
(298,389,l),
(102,730,l),
(80,730,l),
(289,365,l),
(80,0,l)
);
}
);
width = 600;
}
);
metricRight = "=|";
unicode = 88;
},
{
color = 6;
glyphname = Y;
kernLeft = Y;
kernRight = Y;
lastChange = "2021-05-05 04:42:54 +0000";
layers = (
{
anchors = (
{
name = bottom;
pos = (250,0);
},
{
name = top;
pos = (250,730);
},
{
name = topleft;
pos = (20,730);
}
);
layerId = "D65C9A1E-0FCA-4B2D-8EDF-9F36CA9182A1";
shapes = (
{
closed = 1;
nodes = (
(260,0,l),
(260,294,l),
(475,730,l),
(453,730,l),
(252,322,l),
(248,322,l),
(47,730,l),
(25,730,l),
(240,294,l),
(240,0,l)
);
}
);
width = 500;
},
{
anchors = (
{
name = bottom;
pos = (250,0);
},
{
name = top;
pos = (250,730);
},
{
name = topleft;
pos = (20,730);
}
);
layerId = "E27A6A66-A1F8-4E1B-8224-7C0FE77551F2";
shapes = (
{
closed = 1;
nodes = (
(291,0,l),
(291,285,l),
(485,730,l),
(402,730,l),
(252,371,l),
(248,371,l),
(98,730,l),
(15,730,l),
(209,285,l),
(209,0,l)
);
}
);
vertWidth = 1000;
width = 500;
},
{
anchors = (
{
name = bottom;
pos = (250,0);
},
{
name = top;
pos = (250,730);
},
{
name = topleft;
pos = (20,730);
}
);
layerId = "FC9CFCDA-9E80-4E73-BA51-8504D15957FA";
shapes = (
{
closed = 1;
nodes = (
(322,0,l),
(322,275,l),
(495,730,l),
(351,730,l),
(252,420,l),
(248,420,l),
(149,730,l),
(5,730,l),
(178,275,l),
(178,0,l)
);
}
);
vertWidth = 1000;
width = 500;
},
{
anchors = (
{
name = bottom;
pos = (300,0);
},
{
name = top;
pos = (300,730);
},
{
name = topleft;
pos = (35,730);
}
);
layerId = "0F1A0AC1-B8D5-4257-ADED-894CB2B827EF";
shapes = (
{
closed = 1;
nodes = (
(372,0,l),
(372,275,l),
(580,730,l),
(436,730,l),
(302,420,l),
(298,420,l),
(164,730,l),
(20,730,l),
(228,275,l),
(228,0,l)
);
}
);
vertWidth = 1000;
width = 600;
},
{
anchors = (
{
name = bottom;
pos = (300,0);
},
{
name = top;
pos = (300,730);
},
{
name = topleft;
pos = (40,730);
}
);
layerId = "72F02222-BF87-41FD-9A7E-0ABB550ED2DB";
shapes = (
{
closed = 1;
nodes = (
(341,0,l),
(341,285,l),
(565,730,l),
(482,730,l),
(302,371,l),
(298,371,l),
(118,730,l),
(35,730,l),
(259,285,l),
(259,0,l)
);
}
);
vertWidth = 1000;
width = 600;
},
{
anchors = (
{
name = bottom;
pos = (300,0);
},
{
name = top;
pos = (300,730);
},
{
name = topleft;
pos = (45,730);
}
);
layerId = "D0C1F23C-2F9F-4D30-8C4D-098ED54EEF3D";
shapes = (
{
closed = 1;
nodes = (
(310,0,l),
(310,294,l),
(550,730,l),
(526,730,l),
(302,321,l),
(298,321,l),
(74,730,l),
(50,730,l),
(290,294,l),
(290,0,l)
);
}
);
width = 600;
}
);
metricRight = "=|";
unicode = 89;
},
{
color = 6;
glyphname = Z;
kernLeft = Z;
kernRight = Z;
lastChange = "2021-05-05 04:42:54 +0000";
layers = (
{
anchors = (
{
name = bottom;
pos = (250,0);
},
{
name = center;
pos = (250,365);
},
{
name = top;
pos = (250,730);
}
);
layerId = "D65C9A1E-0FCA-4B2D-8EDF-9F36CA9182A1";
shapes = (
{
closed = 1;
nodes = (
(420,0,l),
(420,20,l),
(103,20,l),
(103,24,l),
(420,710,l),
(420,730,l),
(80,730,l),
(80,710,l),
(397,710,l),
(397,706,l),
(80,20,l),
(80,0,l)
);
}
);
width = 500;
},
{
anchors = (
{
name = bottom;
pos = (250,0);
},
{
name = center;
pos = (250,365);
},
{
name = top;
pos = (250,730);
}
);
layerId = "E27A6A66-A1F8-4E1B-8224-7C0FE77551F2";
shapes = (
{
closed = 1;
nodes = (
(430,0,l),
(430,70,l),
(160,70,l),
(160,74,l),
(430,660,l),
(430,730,l),
(70,730,l),
(70,660,l),
(340,660,l),
(340,656,l),
(70,70,l),
(70,0,l)
);
}
);
vertWidth = 1000;
width = 500;
},
{
anchors = (
{
name = bottom;
pos = (250,0);
},
{
name = center;
pos = (250,365);
},
{
name = top;
pos = (250,730);
}
);
layerId = "FC9CFCDA-9E80-4E73-BA51-8504D15957FA";
shapes = (
{
closed = 1;
nodes = (
(440,0,l),
(440,120,l),
(218,120,l),
(218,124,l),
(440,610,l),
(440,730,l),
(60,730,l),
(60,610,l),
(282,610,l),
(282,606,l),
(60,120,l),
(60,0,l)
);
}
);
vertWidth = 1000;
width = 500;
},
{
anchors = (
{
name = bottom;
pos = (300,0);
},
{
name = center;
pos = (300,365);
},
{
name = top;
pos = (300,730);
}
);
layerId = "0F1A0AC1-B8D5-4257-ADED-894CB2B827EF";
shapes = (
{
closed = 1;
nodes = (
(525,0,l),
(525,120,l),
(232,120,l),
(232,124,l),
(525,610,l),
(525,730,l),
(75,730,l),
(75,610,l),
(368,610,l),
(368,606,l),
(75,120,l),
(75,0,l)
);
}
);
vertWidth = 1000;
width = 600;
},
{
anchors = (
{
name = bottom;
pos = (300,0);
},
{
name = center;
pos = (300,365);
},
{
name = top;
pos = (300,730);
}
);
layerId = "72F02222-BF87-41FD-9A7E-0ABB550ED2DB";
shapes = (
{
closed = 1;
nodes = (
(510,0,l),
(510,70,l),
(180,70,l),
(180,74,l),
(510,660,l),
(510,730,l),
(90,730,l),
(90,660,l),
(420,660,l),
(420,656,l),
(90,70,l),
(90,0,l)
);
}
);
vertWidth = 1000;
width = 600;
},
{
anchors = (
{
name = bottom;
pos = (300,0);
},
{
name = center;
pos = (300,365);
},
{
name = top;
pos = (300,730);
}
);
layerId = "D0C1F23C-2F9F-4D30-8C4D-098ED54EEF3D";
shapes = (
{
closed = 1;
nodes = (
(495,0,l),
(495,20,l),
(129,20,l),
(129,24,l),
(495,710,l),
(495,730,l),
(105,730,l),
(105,710,l),
(471,710,l),
(471,706,l),
(105,20,l),
(105,0,l)
);
}
);
width = 600;
}
);
metricRight = "=|";
unicode = 90;
},
{
color = 9;
export = 0;
glyphname = S.001;
kernLeft = S;
kernRight = S;
lastChange = "2021-05-05 04:42:54 +0000";
layers = (
{
anchors = (
{
name = bottom;
pos = (250,0);
},
{
name = cedi;
pos = (200,0);
},
{
name = top;
pos = (250,730);
}
);
layerId = "D65C9A1E-0FCA-4B2D-8EDF-9F36CA9182A1";
shapes = (
{
closed = 1;
nodes = (
(353,-10,o),
(430,59,o),
(430,173,cs),
(430,301,o),
(336,350,o),
(249,395,cs),
(170,437,o),
(100,479,o),
(100,580,cs),
(100,670,o),
(160,720,o),
(273,720,cs),
(314,720,o),
(362,713,o),
(411,701,c),
(396,713,l),
(396,520,l),
(416,520,l),
(416,720,l),
(366,733,o),
(316,740,o),
(273,740,cs),
(150,740,o),
(80,682,o),
(80,580,cs),
(80,467,o),
(160,419,o),
(239,377,cs),
(326,332,o),
(410,289,o),
(410,173,cs),
(410,70,o),
(342,10,o),
(225,10,cs),
(177,10,o),
(133,20,o),
(85,38,c),
(85,18,l),
(133,-1,o),
(179,-10,o),
(225,-10,cs)
);
}
);
width = 500;
},
{
anchors = (
{
name = bottom;
pos = (250,0);
},
{
name = cedi;
pos = (220,0);
},
{
name = top;
pos = (250,730);
}
);
layerId = "FC9CFCDA-9E80-4E73-BA51-8504D15957FA";
shapes = (
{
closed = 1;
nodes = (
(381,-10,o),
(455,51,o),
(455,181,cs),
(455,279,o),
(414,335,o),
(294,405,cs),
(213,452,o),
(189,487,o),
(189,538,cs),
(189,593,o),
(220,614,o),
(299,614,cs),
(316,614,o),
(339,613,o),
(359,610,c),
(310,671,l),
(310,500,l),
(450,500,l),
(450,725,l),
(401,735,o),
(350,740,o),
(303,740,cs),
(134,740,o),
(45,676,o),
(45,540,cs),
(45,437,o),
(85,372,o),
(208,299,cs),
(285,254,o),
(311,225,o),
(311,185,cs),
(311,140,o),
(275,116,o),
(210,116,cs),
(162,116,o),
(103,129,o),
(55,149,c),
(55,15,l),
(105,-1,o),
(164,-10,o),
(224,-10,cs)
);
}
);
vertWidth = 1000;
width = 500;
},
{
anchors = (
{
name = bottom;
pos = (300,0);
},
{
name = cedi;
pos = (260,0);
},
{
name = top;
pos = (300,730);
}
);
layerId = "0F1A0AC1-B8D5-4257-ADED-894CB2B827EF";
shapes = (
{
closed = 1;
nodes = (
(455,-10,o),
(540,53,o),
(540,187,cs),
(540,289,o),
(491,343,o),
(337,410,cs),
(236,453,o),
(204,489,o),
(204,538,cs),
(204,590,o),
(245,614,o),
(336,614,cs),
(362,614,o),
(395,612,o),
(417,610,c),
(390,671,l),
(390,500,l),
(530,500,l),
(530,725,l),
(475,735,o),
(409,740,o),
(352,740,cs),
(151,740,o),
(60,677,o),
(60,537,cs),
(60,428,o),
(112,364,o),
(271,294,cs),
(366,251,o),
(396,224,o),
(396,185,cs),
(396,137,o),
(355,116,o),
(261,116,cs),
(196,116,o),
(140,126,o),
(75,149,c),
(75,15,l),
(133,-1,o),
(204,-10,o),
(272,-10,cs)
);
}
);
vertWidth = 1000;
width = 600;
},
{
anchors = (
{
name = bottom;
pos = (300,0);
},
{
name = cedi;
pos = (260,0);
},
{
name = top;
pos = (300,730);
}
);
layerId = "72F02222-BF87-41FD-9A7E-0ABB550ED2DB";
shapes = (
{
closed = 1;
nodes = (
(440,-10,o),
(527,54,o),
(527,180,cs),
(527,279,o),
(474,333,o),
(317,402,cs),
(196,453,o),
(159,494,o),
(159,559,cs),
(159,634,o),
(214,668,o),
(329,668,cs),
(369,668,o),
(405,664,o),
(454,656,c),
(433,692,l),
(433,510,l),
(513,510,l),
(513,723,l),
(455,734,o),
(391,740,o),
(337,740,cs),
(164,740,o),
(77,679,o),
(77,558,cs),
(77,458,o),
(132,401,o),
(279,336,cs),
(405,281,o),
(445,244,o),
(445,179,cs),
(445,99,o),
(386,62,o),
(266,62,cs),
(203,62,o),
(150,72,o),
(87,94,c),
(87,16,l),
(146,-1,o),
(209,-10,o),
(272,-10,cs)
);
}
);
vertWidth = 1000;
width = 600;
},
{
anchors = (
{
name = bottom;
pos = (300,0);
},
{
name = cedi;
pos = (250,0);
},
{
name = top;
pos = (300,730);
}
);
layerId = "D0C1F23C-2F9F-4D30-8C4D-098ED54EEF3D";
shapes = (
{
closed = 1;
nodes = (
(427,-10,o),
(515,55,o),
(515,173,cs),
(515,268,o),
(459,324,o),
(296,395,cs),
(157,456,o),
(115,504,o),
(115,580,cs),
(115,672,o),
(185,720,o),
(321,720,cs),
(372,720,o),
(432,713,o),
(492,700,c),
(476,713,l),
(476,520,l),
(496,520,l),
(496,720,l),
(435,733,o),
(373,740,o),
(321,740,cs),
(174,740,o),
(95,684,o),
(95,580,cs),
(95,489,o),
(152,436,o),
(288,377,cs),
(444,309,o),
(495,259,o),
(495,173,cs),
(495,67,o),
(417,10,o),
(271,10,cs),
(210,10,o),
(160,20,o),
(100,40,c),
(100,18,l),
(160,-2,o),
(216,-10,o),
(271,-10,cs)
);
}
);
width = 600;
},
{
anchors = (
{
name = bottom;
pos = (250,0);
},
{
name = cedi;
pos = (215,0);
},
{
name = top;
pos = (250,730);
}
);
layerId = "E27A6A66-A1F8-4E1B-8224-7C0FE77551F2";
shapes = (
{
closed = 1;
nodes = (
(369,-10,o),
(442,52,o),
(442,177,cs),
(442,273,o),
(400,327,o),
(272,399,cs),
(173,454,o),
(144,496,o),
(144,559,cs),
(144,633,o),
(190,668,o),
(286,668,cs),
(319,668,o),
(349,664,o),
(385,656,c),
(353,692,l),
(353,510,l),
(433,510,l),
(433,723,l),
(381,735,o),
(335,740,o),
(288,740,cs),
(132,740,o),
(62,684,o),
(62,560,cs),
(62,465,o),
(99,409,o),
(223,339,cs),
(328,281,o),
(360,243,o),
(360,179,cs),
(360,97,o),
(308,62,o),
(217,62,cs),
(166,62,o),
(119,73,o),
(70,93,c),
(70,16,l),
(120,-2,o),
(172,-10,o),
(224,-10,cs)
);
}
);
vertWidth = 1000;
width = 500;
}
);
},
{
color = 6;
glyphname = a;
kernLeft = a;
kernRight = h;
lastChange = "2021-05-05 04:42:54 +0000";
layers = (
{
anchors = (
{
name = bottom;
pos = (250,0);
},
{
name = ogonek;
pos = (380,22);
},
{
name = top;
pos = (250,520);
}
);
layerId = "D65C9A1E-0FCA-4B2D-8EDF-9F36CA9182A1";
shapes = (
{
closed = 1;
nodes = (
(309,-10,o),
(372,3,o),
(410,22,c),
(410,340,ls),
(410,486,o),
(374,530,o),
(255,530,cs),
(193,530,o),
(129,518,o),
(85,498,c),
(85,476,l),
(125,497,o),
(189,510,o),
(255,510,cs),
(362,510,o),
(390,476,o),
(390,340,cs),
(390,22,l),
(401,40,l),
(366,22,o),
(306,10,o),
(255,10,cs),
(147,10,o),
(80,65,o),
(80,153,cs),
(80,247,o),
(160,294,o),
(325,294,cs),
(400,294,l),
(400,314,l),
(325,314,ls),
(149,314,o),
(60,260,o),
(60,153,cs),
(60,54,o),
(136,-10,o),
(255,-10,cs)
);
}
);
width = 500;
},
{
anchors = (
{
name = bottom;
pos = (250,0);
},
{
name = ogonek;
pos = (384,22);
},
{
name = top;
pos = (250,520);
}
);
layerId = "E27A6A66-A1F8-4E1B-8224-7C0FE77551F2";
shapes = (
{
closed = 1;
nodes = (
(319,-10,o),
(386,2,o),
(428,22,c),
(428,340,ls),
(428,486,o),
(386,530,o),
(249.991,530,cs),
(185,530,o),
(121,520,o),
(75,501,c),
(75,432,l),
(134,453,o),
(184,462,o),
(242,462,cs),
(332,462,o),
(350,440,o),
(350,338,cs),
(350,40,l),
(372,86,l),
(344,68,o),
(301,57,o),
(258,57,cs),
(177,57,o),
(127,97,o),
(127,161,cs),
(127,229,o),
(183,262,o),
(299,262,cs),
(388,262,l),
(388,327,l),
(298,327,ls),
(133,327,o),
(47,270,o),
(47,160,cs),
(47,54,o),
(127,-10,o),
(261,-10,cs)
);
}
);
vertWidth = 1000;
width = 500;
},
{
anchors = (
{
name = bottom;
pos = (250,0);
},
{
name = ogonek;
pos = (383,22);
},
{
name = top;
pos = (250,520);
}
);
layerId = "FC9CFCDA-9E80-4E73-BA51-8504D15957FA";
shapes = (
{
closed = 1;
nodes = (
(331,-10,o),
(400,2,o),
(445,22,c),
(445,340,ls),
(445,486,o),
(398,530,o),
(245,530,cs),
(176,530,o),
(113,521,o),
(65,504,c),
(65,388,l),
(143,409,o),
(179,414,o),
(230,414,cs),
(298,414,o),
(307,405,o),
(307,336,cs),
(307,58,l),
(343,131,l),
(319,112,o),
(294,104,o),
(261,104,cs),
(205,104,o),
(173,127,o),
(173,168,cs),
(173,210,o),
(206,230,o),
(273,230,cs),
(376,230,l),
(376,340,l),
(271,340,ls),
(118,340,o),
(35,279,o),
(35,167,cs),
(35,54,o),
(119,-10,o),
(267,-10,cs)
);
}
);
vertWidth = 1000;
width = 500;
},
{
anchors = (
{
name = bottom;
pos = (300,0);
},
{
name = ogonek;
pos = (455,22);
},
{
name = top;
pos = (300,520);
}
);
layerId = "0F1A0AC1-B8D5-4257-ADED-894CB2B827EF";
shapes = (
{
closed = 1;
nodes = (
(385,-10,o),
(465,2,o),
(518,22,c),
(518,340,ls),
(518,486,o),
(465,530,o),
(292,530,cs),
(215,530,o),
(146,521,o),
(91,504,c),
(91,388,l),
(177,407,o),
(229,414,o),
(286,414,cs),
(364,414,o),
(380,401,o),
(380,336,cs),
(380,58,l),
(400,131,l),
(370,112,o),
(334,104,o),
(296,104,cs),
(232,104,o),
(196,127,o),
(196,168,cs),
(196,210,o),
(233,230,o),
(311,230,cs),
(441,230,l),
(441,340,l),
(317,340,ls),
(146,340,o),
(58,281,o),
(58,167,cs),
(58,52,o),
(147,-10,o),
(312,-10,cs)
);
}
);
vertWidth = 1000;
width = 600;
},
{
anchors = (
{
name = bottom;
pos = (300,0);
},
{
name = ogonek;
pos = (457,22);
},
{
name = top;
pos = (300,520);
}
);
layerId = "72F02222-BF87-41FD-9A7E-0ABB550ED2DB";
shapes = (
{
closed = 1;
nodes = (
(375,-10,o),
(453,3,o),
(501,22,c),
(501,340,ls),
(501,486,o),
(453,530,o),
(292.998,530,cs),
(217,530,o),
(153,520,o),
(101,501,c),
(101,431,l),
(171,453,o),
(225,462,o),
(290,462,cs),
(397,462,o),
(423,438,o),
(423,338,cs),
(423,43,l),
(438,86,l),
(404,68,o),
(347,57,o),
(296,57,cs),
(203,57,o),
(151,94,o),
(151,160,cs),
(151,230,o),
(209,260,o),
(343,260,cs),
(457,260,l),
(457,327,l),
(346,327,ls),
(158,327,o),
(71,274,o),
(71,160,cs),
(71,50,o),
(153,-10,o),
(304,-10,cs)
);
}
);
vertWidth = 1000;
width = 600;
},
{
anchors = (
{
name = bottom;
pos = (300,0);
},
{
name = ogonek;
pos = (454,22);
},
{
name = top;
pos = (300,520);
}
);
layerId = "D0C1F23C-2F9F-4D30-8C4D-098ED54EEF3D";
shapes = (
{
closed = 1;
nodes = (
(361,-10,o),
(437,3,o),
(484,22,c),
(484,340,ls),
(484,486,o),
(440,530,o),
(294,530,cs),
(221,530,o),
(161,519,o),
(112,498,c),
(112,475,l),
(160,498,o),
(220,510,o),
(294,510,cs),
(429,510,o),
(464,475,o),
(464,340,cs),
(464,27,l),
(477,41,l),
(432,22,o),
(358,10,o),
(296,10,cs),
(170,10,o),
(104,60,o),
(104,153,cs),
(104,252,o),
(180,294,o),
(376,294,cs),
(474,294,l),
(474,314,l),
(376,314,ls),
(171,314,o),
(84,266,o),
(84,153,cs),
(84,48,o),
(159,-10,o),
(296,-10,cs)
);
}
);
width = 600;
}
);
unicode = 97;
},
{
color = 10;
glyphname = ae;
kernLeft = a;
kernRight = o;
lastChange = "2021-05-05 04:42:54 +0000";
layers = (
{
anchors = (
{
name = bottom;
pos = (250,0);
},
{
name = top;
pos = (250,520);
}
);
layerId = "D65C9A1E-0FCA-4B2D-8EDF-9F36CA9182A1";
shapes = (
{
closed = 1;
nodes = (
(207,-10,o),
(243,22,o),
(256,84,c),
(260,84,l),
(281,18,o),
(317,-10,o),
(381,-10,cs),
(408,-10,o),
(438,-5,o),
(462,5,c),
(462,27,l),
(439,16,o),
(408,10,o),
(381,10,cs),
(294,10,o),
(262,73,o),
(262,240,cs),
(262,280,ls),
(262,453,o),
(287,510,o),
(361,510,cs),
(435,510,o),
(460,453,o),
(460,280,cs),
(460,262,l),
(470,272,l),
(252,272,l),
(252,252,l),
(480,252,l),
(480,280,ls),
(480,463,o),
(450,530,o),
(361,530,cs),
(306,530,o),
(274,503,o),
(257,441,c),
(253,441,l),
(238,507,o),
(201,530,o),
(135,530,cs),
(100,530,o),
(73,523,o),
(50,510,c),
(50,485,l),
(73,503,o),
(100,510,o),
(135,510,cs),
(216,510,o),
(242,475,o),
(242,340,cs),
(242,153,l),
(242,66,o),
(220,10,o),
(148,10,cs),
(79,10,o),
(40,62,o),
(40,153,cs),
(40,251,o),
(87,294,o),
(194,294,cs),
(252,294,l),
(252,314,l),
(194,314,ls),
(76,314,o),
(20,263,o),
(20,153,cs),
(20,51,o),
(67,-10,o),
(148,-10,cs)
);
}
);
width = 500;
},
{
anchors = (
{
name = bottom;
pos = (250,0);
},
{
name = top;
pos = (250,520);
}
);
layerId = "E27A6A66-A1F8-4E1B-8224-7C0FE77551F2";
shapes = (
{
closed = 1;
nodes = (
(212,-10,o),
(250,9,o),
(272,49,c),
(276,49,l),
(297,9,o),
(330,-10,o),
(379.998,-10,cs),
(408,-10,o),
(440,-4,o),
(467,6,c),
(467,75,l),
(439,63,o),
(414,58,o),
(386,58,cs),
(308,58,o),
(287,97,o),
(287,243,cs),
(287,277,ls),
(287,415,o),
(304,462,o),
(353,462,cs),
(402,462,o),
(419,415,o),
(419,277,cs),
(419,268,l),
(430,291,l),
(268,291,l),
(268,226,l),
(484,226,l),
(484,280,ls),
(484,458,o),
(447,530,o),
(357,530,cs),
(311,530,o),
(282,511,o),
(263,468,c),
(259,468,l),
(240,512,o),
(207,530,o),
(143,530,cs),
(105,530,o),
(75,524,o),
(49,512,c),
(49,441,l),
(81,457,o),
(103,462,o),
(135,462,cs),
(202,462,o),
(217,439,o),
(217,338,cs),
(217,84,l),
(206,66,o),
(189,57,o),
(165,57,cs),
(115,57,o),
(85,96,o),
(85,161,cs),
(85,230,o),
(118,261,o),
(191,261,cs),
(237,261,l),
(237,328,l),
(185,328,ls),
(72,328,o),
(15,271,o),
(15,160,cs),
(15,52,o),
(68,-10,o),
(161,-10,cs)
);
}
);
vertWidth = 1000;
width = 500;
},
{
anchors = (
{
name = bottom;
pos = (250,0);
},
{
name = top;
pos = (250,520);
}
);
layerId = "FC9CFCDA-9E80-4E73-BA51-8504D15957FA";
shapes = (
{
closed = 1;
nodes = (
(214,-10,o),
(257,-1,o),
(287,15,c),
(291,15,l),
(313,-1,o),
(344,-10,o),
(379,-10,cs),
(408,-10,o),
(441,-4,o),
(471,6,c),
(471,124,l),
(437,112,o),
(421,108,o),
(391,108,cs),
(323,108,o),
(312,127,o),
(312,246,cs),
(312,274,ls),
(312,378,o),
(320,412,o),
(346,412,cs),
(372,412,o),
(380,378,o),
(380,274,cs),
(380,264,l),
(391,309,l),
(283,309,l),
(283,199,l),
(490,199,l),
(490,280,ls),
(490,453,o),
(448,530,o),
(354,530,cs),
(318,530,o),
(289,518,o),
(268,495,c),
(264,495,l),
(242,519,o),
(207,530,o),
(151,530,cs),
(110,530,o),
(78,525,o),
(48,514,c),
(48,398,l),
(92,412,o),
(107,414,o),
(135,414,cs),
(185,414,o),
(192,405,o),
(192,336,cs),
(192,106,l),
(190,105,o),
(184,104,o),
(180,104,cs),
(147,104,o),
(128,127,o),
(128,168,cs),
(128,210,o),
(148,230,o),
(188,230,cs),
(222,230,l),
(222,340,l),
(177,340,ls),
(69,340,o),
(10,279,o),
(10,167,cs),
(10,54,o),
(69,-10,o),
(174,-10,cs)
);
}
);
vertWidth = 1000;
width = 500;
},
{
anchors = (
{
name = bottom;
pos = (300,0);
},
{
name = top;
pos = (300,520);
}
);
layerId = "0F1A0AC1-B8D5-4257-ADED-894CB2B827EF";
shapes = (
{
closed = 1;
nodes = (
(262,-10,o),
(308,-1,o),
(341,15,c),
(345,15,l),
(370,-1,o),
(404,-10,o),
(442,-10,cs),
(474,-10,o),
(511,-4,o),
(544,6,c),
(544,124,l),
(505,112,o),
(487,108,o),
(453,108,cs),
(375,108,o),
(362,127,o),
(362,246,cs),
(362,274,ls),
(362,378,o),
(373,412,o),
(408,412,cs),
(444,412,o),
(455,378,o),
(455,274,cs),
(455,264,l),
(470,309,l),
(336,309,l),
(336,199,l),
(565,199,l),
(565,280,ls),
(565,453,o),
(519,530,o),
(415,530,cs),
(375,530,o),
(342,518,o),
(319,495,c),
(315,495,l),
(291,519,o),
(253,530,o),
(191,530,cs),
(145,530,o),
(109,525,o),
(75,514,c),
(75,398,l),
(124,411,o),
(143,414,o),
(177,414,cs),
(234,414,o),
(242,404,o),
(242,336,cs),
(242,106,l),
(238,105,o),
(230,104,o),
(226,104,cs),
(180,104,o),
(153,127,o),
(153,168,cs),
(153,210,o),
(181,230,o),
(236,230,cs),
(269,230,l),
(269,340,l),
(219,340,ls),
(100,340,o),
(35,279,o),
(35,167,cs),
(35,54,o),
(101,-10,o),
(218,-10,cs)
);
}
);
vertWidth = 1000;
width = 600;
},
{
anchors = (
{
name = bottom;
pos = (300,0);
},
{
name = top;
pos = (300,520);
}
);
layerId = "72F02222-BF87-41FD-9A7E-0ABB550ED2DB";
shapes = (
{
closed = 1;
nodes = (
(259,-10,o),
(300,9,o),
(324,49,c),
(328,49,l),
(351,9,o),
(388,-10,o),
(442,-10,cs),
(472,-10,o),
(507,-4,o),
(536,6,c),
(536,75,l),
(506,63,o),
(480,58,o),
(449,58,cs),
(361,58,o),
(337,98,o),
(337,243,cs),
(337,277,ls),
(337,414,o),
(357,462,o),
(413,462,cs),
(470,462,o),
(490,414,o),
(490,277,cs),
(490,268,l),
(503,291,l),
(320,291,l),
(320,226,l),
(555,226,l),
(555,280,ls),
(555,457,o),
(514,530,o),
(416,530,cs),
(366,530,o),
(335,511,o),
(314,468,c),
(310,468,l),
(289,512,o),
(252,530,o),
(182,530,cs),
(140,530,o),
(108,524,o),
(80,512,c),
(80,441,l),
(116,457,o),
(141,462,o),
(177,462,cs),
(251,462,o),
(267,439,o),
(267,338,cs),
(267,84,l),
(254,66,o),
(234,57,o),
(206,57,cs),
(148,57,o),
(114,96,o),
(114,161,cs),
(114,230,o),
(153,261,o),
(237,261,cs),
(286,261,l),
(286,328,l),
(229,328,ls),
(106,328,o),
(44,271,o),
(44,160,cs),
(44,52,o),
(102,-10,o),
(203,-10,cs)
);
}
);
vertWidth = 1000;
width = 600;
},
{
anchors = (
{
name = bottom;
pos = (300,0);
},
{
name = top;
pos = (300,520);
}
);
layerId = "D0C1F23C-2F9F-4D30-8C4D-098ED54EEF3D";
shapes = (
{
closed = 1;
nodes = (
(255,-10,o),
(292,22,o),
(306,87,c),
(310,87,l),
(332,20,o),
(373,-10,o),
(441,-10,cs),
(471,-10,o),
(501,-4,o),
(526,6,c),
(526,27,l),
(502,16,o),
(470,10,o),
(441,10,cs),
(347,10,o),
(312,73,o),
(312,240,cs),
(312,280,ls),
(312,453,o),
(338,510,o),
(418,510,cs),
(498,510,o),
(525,453,o),
(525,280,cs),
(525,262,l),
(534,272,l),
(302,272,l),
(302,252,l),
(545,252,l),
(545,280,ls),
(545,462,o),
(512,530,o),
(418,530,cs),
(359,530,o),
(325,504,o),
(307,439,c),
(303,439,l),
(288,506,o),
(251,530,o),
(179,530,cs),
(142,530,o),
(112,523,o),
(86,510,c),
(86,485,l),
(111,502,o),
(140,510,o),
(179,510,cs),
(267,510,o),
(292,472,o),
(292,340,cs),
(292,153,ls),
(292,66,o),
(269,10,o),
(192,10,cs),
(119,10,o),
(76,60,o),
(76,153,cs),
(76,252,o),
(125,294,o),
(240,294,cs),
(302,294,l),
(302,314,l),
(240,314,ls),
(114,314,o),
(56,264,o),
(56,153,cs),
(56,51,o),
(106,-10,o),
(192,-10,cs)
);
}
);
width = 600;
}
);
unicode = 230;
},
{
color = 6;
glyphname = b;
kernLeft = b;
kernRight = o;
lastChange = "2021-05-05 04:42:54 +0000";
layers = (
{
layerId = "D65C9A1E-0FCA-4B2D-8EDF-9F36CA9182A1";
shapes = (
{
closed = 1;
nodes = (
(385,-10,o),
(438,65,o),
(438,270,cs),
(438,462,o),
(391,530,o),
(257,530,cs),
(196,530,o),
(140,516,o),
(97,490,c),
(107,473,l),
(147,497,o),
(199,510,o),
(257,510,cs),
(378,510,o),
(418,452,o),
(418,270,cs),
(418,75,o),
(372,10,o),
(239,10,cs),
(186,10,o),
(136,21,o),
(97,40,c),
(108,22,l),
(108,730,l),
(88,730,l),
(88,22,l),
(126,3,o),
(178,-10,o),
(239,-10,cs)
);
}
);
width = 500;
},
{
layerId = "E27A6A66-A1F8-4E1B-8224-7C0FE77551F2";
shapes = (
{
closed = 1;
nodes = (
(393,-10,o),
(452,67,o),
(452,270,cs),
(452,461,o),
(403,530,o),
(266,530,cs),
(209,530,o),
(155,518,o),
(111,493,c),
(136,427,l),
(178,449,o),
(217,460,o),
(260,460,cs),
(347,460,o),
(374,415,o),
(374,269,cs),
(374,112,o),
(342,60,o),
(244,60,cs),
(201,60,o),
(163,70,o),
(132,89,c),
(150,46,l),
(150,730,l),
(72,730,l),
(72,22,l),
(113,3,o),
(171,-10,o),
(236,-10,cs)
);
}
);
vertWidth = 1000;
width = 500;
},
{
layerId = "FC9CFCDA-9E80-4E73-BA51-8504D15957FA";
shapes = (
{
closed = 1;
nodes = (
(401,-10,o),
(466,68,o),
(466,270,cs),
(466,459,o),
(414,530,o),
(274,530,cs),
(221,530,o),
(169,520,o),
(124,496,c),
(163,380,l),
(208,402,o),
(234,410,o),
(260,410,cs),
(312,410,o),
(328,377,o),
(328,267,cs),
(328,143,o),
(310,108,o),
(246,108,cs),
(212,108,o),
(184,118,o),
(164,135,c),
(194,72,l),
(194,730,l),
(56,730,l),
(56,22,l),
(100,3,o),
(164,-10,o),
(233,-10,cs)
);
}
);
vertWidth = 1000;
width = 500;
},
{
layerId = "0F1A0AC1-B8D5-4257-ADED-894CB2B827EF";
shapes = (
{
closed = 1;
nodes = (
(471,-10,o),
(546,68,o),
(546,270,cs),
(546,459,o),
(486,530,o),
(326,530,cs),
(265,530,o),
(206,520,o),
(154,496,c),
(178,380,l),
(240,402,o),
(277,410,o),
(313,410,cs),
(385,410,o),
(408,377,o),
(408,267,cs),
(408,143,o),
(382,108,o),
(294,108,cs),
(246,108,o),
(207,118,o),
(179,135,c),
(214,72,l),
(214,730,l),
(76,730,l),
(76,22,l),
(126,3,o),
(200,-10,o),
(279,-10,cs)
);
}
);
vertWidth = 1000;
width = 600;
},
{
layerId = "72F02222-BF87-41FD-9A7E-0ABB550ED2DB";
shapes = (
{
closed = 1;
nodes = (
(463,-10,o),
(530,67,o),
(530,270,cs),
(530,460,o),
(473,530,o),
(317,530,cs),
(250,530,o),
(189,518,o),
(138,492,c),
(156,425,l),
(211,449,o),
(259,460,o),
(311,460,cs),
(417,460,o),
(452,414,o),
(452,268,cs),
(452,109,o),
(413,59,o),
(292,59,cs),
(237,59,o),
(189,70,o),
(152,88,c),
(173,47,l),
(173,730,l),
(95,730,l),
(95,22,l),
(142,3,o),
(208,-10,o),
(282.992,-10,cs)
);
}
);
vertWidth = 1000;
width = 600;
},
{
layerId = "D0C1F23C-2F9F-4D30-8C4D-098ED54EEF3D";
shapes = (
{
closed = 1;
nodes = (
(454,-10,o),
(514,65,o),
(514,270,cs),
(514,462,o),
(460,530,o),
(307,530,cs),
(235,530,o),
(171,515,o),
(121,488,c),
(131,470,l),
(179,496,o),
(239,510,o),
(307,510,cs),
(448,510,o),
(494,452,o),
(494,270,cs),
(494,75,o),
(442,10,o),
(287,10,cs),
(225,10,o),
(168,21,o),
(122,40,c),
(134,22,l),
(134,730,l),
(114,730,l),
(114,22,l),
(158,3,o),
(217,-10,o),
(287,-10,cs)
);
}
);
width = 600;
}
);
unicode = 98;
},
{
color = 6;
glyphname = c;
kernLeft = o;
kernRight = c;
lastChange = "2021-05-05 04:42:54 +0000";
layers = (
{
anchors = (
{
name = bottom;
pos = (260,0);
},
{
name = cedi;
pos = (208,0);
},
{
name = top;
pos = (260,520);
}
);
layerId = "D65C9A1E-0FCA-4B2D-8EDF-9F36CA9182A1";
shapes = (
{
closed = 1;
nodes = (
(325,-10,o),
(363,-4,o),
(396,6,c),
(396,27,l),
(363,15,o),
(324,10,o),
(287,10,cs),
(158,10,o),
(96,84,o),
(96,240,cs),
(96,280,ls),
(96,436,o),
(158,510,o),
(288,510,cs),
(320,510,o),
(354,505,o),
(381,498,c),
(376,508,l),
(376,320,l),
(396,320,l),
(396,514,l),
(366,524,o),
(326,530,o),
(288,530,cs),
(147,530,o),
(76,447,o),
(76,280,cs),
(76,240,ls),
(76,73,o),
(146,-10,o),
(287,-10,cs)
);
}
);
width = 500;
},
{
anchors = (
{
name = bottom;
pos = (260,0);
},
{
name = cedi;
pos = (208,0);
},
{
name = top;
pos = (260,520);
}
);
layerId = "E27A6A66-A1F8-4E1B-8224-7C0FE77551F2";
shapes = (
{
closed = 1;
nodes = (
(334,-10,o),
(375,-4,o),
(411,6,c),
(411,77,l),
(372,65,o),
(337,60,o),
(300,60,cs),
(184,60,o),
(141,110,o),
(141,245,cs),
(141,275,ls),
(141,404,o),
(184,460,o),
(283,460,cs),
(312,460,o),
(342,455,o),
(371,445,c),
(333,502,l),
(333,305,l),
(411,305,l),
(411,514,l),
(378,524,o),
(335,530,o),
(293,530,cs),
(139,530,o),
(61,447,o),
(61,280,cs),
(61,240,ls),
(61,73,o),
(138,-10,o),
(292,-10,cs)
);
}
);
vertWidth = 1000;
width = 500;
},
{
anchors = (
{
name = bottom;
pos = (260,0);
},
{
name = cedi;
pos = (208,0);
},
{
name = top;
pos = (260,520);
}
);
layerId = "FC9CFCDA-9E80-4E73-BA51-8504D15957FA";
shapes = (
{
closed = 1;
nodes = (
(343,-10,o),
(387,-4,o),
(426,6,c),
(426,128,l),
(380,116,o),
(353,112,o),
(313,112,cs),
(210,112,o),
(186,138,o),
(186,250,cs),
(186,270,ls),
(186,372,o),
(210,408,o),
(277,408,cs),
(306,408,o),
(336,401,o),
(360,390,c),
(288,495,l),
(288,290,l),
(426,290,l),
(426,514,l),
(390,524,o),
(343,530,o),
(298,530,cs),
(130,530,o),
(46,447,o),
(46,280,cs),
(46,240,ls),
(46,73,o),
(129,-10,o),
(297,-10,cs)
);
}
);
vertWidth = 1000;
width = 500;
},
{
anchors = (
{
name = bottom;
pos = (314,0);
},
{
name = cedi;
pos = (268,0);
},
{
name = top;
pos = (314,520);
}
);
layerId = "0F1A0AC1-B8D5-4257-ADED-894CB2B827EF";
shapes = (
{
closed = 1;
nodes = (
(410,-10,o),
(460,-5,o),
(506,6,c),
(506,128,l),
(449,116,o),
(414,112,o),
(365,112,cs),
(238,112,o),
(206,140,o),
(206,250,cs),
(206,270,ls),
(206,369,o),
(238,408,o),
(319,408,cs),
(353,408,o),
(393,401,o),
(424,390,c),
(368,495,l),
(368,290,l),
(506,290,l),
(506,514,l),
(464,524,o),
(410,530,o),
(358,530,cs),
(163,530,o),
(66,447,o),
(66,280,cs),
(66,240,ls),
(66,73,o),
(164,-10,o),
(361,-10,cs)
);
}
);
vertWidth = 1000;
width = 600;
},
{
anchors = (
{
name = bottom;
pos = (314,0);
},
{
name = cedi;
pos = (268,0);
},
{
name = top;
pos = (314,520);
}
);
layerId = "72F02222-BF87-41FD-9A7E-0ABB550ED2DB";
shapes = (
{
closed = 1;
nodes = (
(399,-10,o),
(449,-5,o),
(491,6,c),
(491,76,l),
(443,65,o),
(401,60,o),
(356,60,cs),
(214,60,o),
(161,111,o),
(161,245,cs),
(161,275,ls),
(161,402,o),
(215,460,o),
(333,460,cs),
(374,460,o),
(414,453,o),
(447,443,c),
(413,501,l),
(413,305,l),
(491,305,l),
(491,514,l),
(452,524,o),
(402,530,o),
(353.009,530,cs),
(171,530,o),
(81,447,o),
(81,280,cs),
(81,240,ls),
(81,73,o),
(171,-10,o),
(354,-10,cs)
);
}
);
vertWidth = 1000;
width = 600;
},
{
anchors = (
{
name = bottom;
pos = (314,0);
},
{
name = cedi;
pos = (268,0);
},
{
name = top;
pos = (314,520);
}
);
layerId = "D0C1F23C-2F9F-4D30-8C4D-098ED54EEF3D";
shapes = (
{
closed = 1;
nodes = (
(392,-10,o),
(437,-4,o),
(476,6,c),
(476,26,l),
(436,16,o),
(391,10,o),
(347,10,cs),
(190,10,o),
(116,84,o),
(116,240,cs),
(116,280,ls),
(116,436,o),
(191,510,o),
(348,510,cs),
(391,510,o),
(436,504,o),
(471,495,c),
(456,508,l),
(456,320,l),
(476,320,l),
(476,514,l),
(440,524,o),
(393,530,o),
(348,530,cs),
(180,530,o),
(96,447,o),
(96,280,cs),
(96,240,ls),
(96,73,o),
(179,-10,o),
(347,-10,cs)
);
}
);
width = 600;
}
);
unicode = 99;
},
{
color = 10;
glyphname = ccedilla;
kernLeft = o;
kernRight = c;
lastChange = "2021-11-23 11:09:19 +0000";
layers = (
{
layerId = "D65C9A1E-0FCA-4B2D-8EDF-9F36CA9182A1";
shapes = (
{
closed = 1;
nodes = (
(328,-220,o),
(340,-173,o),
(340,-145,cs),
(340,-81.047,o),
(284.828,-33.32,o),
(194.947,23.027,c),
(178,15,l),
(270,-48,o),
(320,-92,o),
(320,-145,cs),
(320,-191,o),
(278,-200,o),
(243,-200,cs),
(223,-200,o),
(201,-196,o),
(185,-190,c),
(185,-212,l),
(202,-217,o),
(223,-220,o),
(243,-220,cs)
);
},
{
ref = c;
}
);
width = 500;
},
{
layerId = "E27A6A66-A1F8-4E1B-8224-7C0FE77551F2";
shapes = (
{
closed = 1;
nodes = (
(299,-218,o),
(341,-186,o),
(341,-130,cs),
(341,-70.009,o),
(303.204,-8.506,o),
(233.526,38.736,c),
(164,18,l),
(230,-27,o),
(267,-75,o),
(267,-117,cs),
(267,-144,o),
(247,-153,o),
(220,-153,cs),
(201,-153,o),
(184,-150,o),
(169,-145,c),
(169,-211,l),
(186,-216,o),
(205,-218,o),
(226,-218,cs)
);
},
{
ref = c;
}
);
width = 500;
},
{
layerId = "FC9CFCDA-9E80-4E73-BA51-8504D15957FA";
shapes = (
{
closed = 1;
nodes = (
(305,-218,o),
(363,-176,o),
(363,-102,cs),
(363,-45.411,o),
(332.732,3.779,o),
(269.99,55.5,c),
(146,24,l),
(204,-12,o),
(237,-49,o),
(237,-81,cs),
(237,-103,o),
(222,-115,o),
(194,-115,cs),
(179,-115,o),
(164,-114,o),
(150,-113,c),
(150,-216,l),
(166,-217,o),
(184,-218,o),
(204,-218,cs)
);
},
{
ref = c;
}
);
width = 500;
},
{
layerId = "0F1A0AC1-B8D5-4257-ADED-894CB2B827EF";
shapes = (
{
closed = 1;
nodes = (
(364,-218,o),
(422,-176,o),
(422,-102,cs),
(422,-49.11,o),
(392.206,-2.179,o),
(330.463,46.874,c),
(205,15,l),
(263,-18,o),
(296,-51,o),
(296,-81,cs),
(296,-103,o),
(281,-115,o),
(253,-115,cs),
(238,-115,o),
(223,-114,o),
(209,-113,c),
(209,-216,l),
(225,-217,o),
(243,-218,o),
(263,-218,cs)
);
},
{
ref = c;
}
);
width = 600;
},
{
layerId = "72F02222-BF87-41FD-9A7E-0ABB550ED2DB";
shapes = (
{
closed = 1;
nodes = (
(359,-218,o),
(401,-186,o),
(401,-130,cs),
(401,-73.555,o),
(363.295,-16.355,o),
(293.778,29.811,c),
(224,9,l),
(290,-33,o),
(327,-78,o),
(327,-117,cs),
(327,-144,o),
(307,-153,o),
(280,-153,cs),
(261,-153,o),
(244,-150,o),
(229,-145,c),
(229,-211,l),
(246,-216,o),
(265,-218,o),
(286,-218,cs)
);
},
{
ref = c;
}
);
width = 600;
},
{
layerId = "D0C1F23C-2F9F-4D30-8C4D-098ED54EEF3D";
shapes = (
{
closed = 1;
nodes = (
(388,-220,o),
(400,-173,o),
(400,-145,cs),
(400,-84.658,o),
(344.844,-39.728,o),
(254.987,13.898,c),
(238,5,l),
(330,-54,o),
(380,-95,o),
(380,-145,cs),
(380,-191,o),
(338,-200,o),
(303,-200,cs),
(283,-200,o),
(261,-196,o),
(245,-190,c),
(245,-212,l),
(262,-217,o),
(283,-220,o),
(303,-220,cs)
);
},
{
ref = c;
}
);
width = 600;
}
);
unicode = 231;
},
{
color = 10;
glyphname = eth;
kernLeft = o;
kernRight = o;
lastChange = "2021-05-05 04:42:54 +0000";
layers = (
{
layerId = "D65C9A1E-0FCA-4B2D-8EDF-9F36CA9182A1";
shapes = (
{
closed = 1;
nodes = (
(377,-10,o),
(421,59,o),
(421,260,cs),
(421,566,o),
(328,727,o),
(126,770,c),
(126,749,l),
(315,708,o),
(401,554,o),
(401,260,cs),
(401,74,o),
(362,10,o),
(251,10,cs),
(132,10,o),
(91,69,o),
(91,240,cs),
(91,398,o),
(131,450,o),
(252,450,cs),
(307,450,o),
(358,440,o),
(399,420,c),
(395,444,l),
(354,461,o),
(305,470,o),
(252,470,cs),
(119,470,o),
(71,409,o),
(71,240,cs),
(71,58,o),
(120,-10,o),
(251,-10,cs)
);
},
{
closed = 1;
nodes = (
(434,694,l),
(434,716,l),
(64,547,l),
(64,525,l)
);
}
);
width = 500;
},
{
layerId = "E27A6A66-A1F8-4E1B-8224-7C0FE77551F2";
shapes = (
{
closed = 1;
nodes = (
(380,-10,o),
(438,75,o),
(439,260,cs),
(440,566,o),
(335,727,o),
(108,770,c),
(108,702,l),
(281,663,o),
(359,527,o),
(359,268,cs),
(359,125,o),
(327,60,o),
(256,60,cs),
(166,60,o),
(136,106,o),
(136,244,cs),
(136,371,o),
(163,410,o),
(250,410,cs),
(293,410,o),
(332,399,o),
(374,377,c),
(399,443,l),
(355,468,o),
(301,480,o),
(244,480,cs),
(107,480,o),
(58,418,o),
(58,245,cs),
(58,60,o),
(112,-10,o),
(254,-10,cs)
);
},
{
closed = 1;
nodes = (
(435,669,l),
(435,741,l),
(65,572,l),
(65,500,l)
);
}
);
vertWidth = 1000;
width = 500;
},
{
layerId = "FC9CFCDA-9E80-4E73-BA51-8504D15957FA";
shapes = (
{
closed = 1;
nodes = (
(392,-10,o),
(454,75,o),
(454,260,cs),
(454,566,o),
(339,727,o),
(89,770,c),
(89,655,l),
(246,617,o),
(316,497,o),
(316,265,cs),
(316,157,o),
(297,108,o),
(254,108,cs),
(198,108,o),
(182,135,o),
(182,232,cs),
(182,315,o),
(198,340,o),
(250,340,cs),
(276,340,o),
(302,332,o),
(347,310,c),
(386,426,l),
(341,450,o),
(289,460,o),
(236,460,cs),
(96,460,o),
(44,399,o),
(44,235,cs),
(44,58,o),
(103,-10,o),
(257,-10,cs)
);
},
{
closed = 1;
nodes = (
(434,645,l),
(434,765,l),
(64,596,l),
(64,476,l)
);
}
);
vertWidth = 1000;
width = 500;
},
{
layerId = "0F1A0AC1-B8D5-4257-ADED-894CB2B827EF";
shapes = (
{
closed = 1;
nodes = (
(455,-10,o),
(526,75,o),
(526,260,cs),
(526,566,o),
(392,727,o),
(101,770,c),
(101,655,l),
(299,617,o),
(388,497,o),
(388,265,cs),
(388,157,o),
(359,108,o),
(296,108,cs),
(226,108,o),
(194,147,o),
(194,232,cs),
(194,315,o),
(217,340,o),
(292,340,cs),
(326,340,o),
(360,332,o),
(419,310,c),
(458,426,l),
(404,450,o),
(342,460,o),
(278,460,cs),
(116,460,o),
(56,399,o),
(56,235,cs),
(56,67,o),
(132,-10,o),
(299,-10,cs)
);
},
{
closed = 1;
nodes = (
(506,645,l),
(506,765,l),
(76,596,l),
(76,476,l)
);
}
);
vertWidth = 1000;
width = 600;
},
{
layerId = "72F02222-BF87-41FD-9A7E-0ABB550ED2DB";
shapes = (
{
closed = 1;
nodes = (
(443,-10,o),
(510,75,o),
(511,260,cs),
(512,566,o),
(389,727,o),
(122,770,c),
(122,702,l),
(335,663,o),
(431,527,o),
(431,268,cs),
(431,125,o),
(390,60,o),
(300,60,cs),
(197,60,o),
(150,118,o),
(150,244,cs),
(150,371,o),
(184,410,o),
(294,410,cs),
(347,410,o),
(395,399,o),
(446,377,c),
(471,443,l),
(419,468,o),
(355,480,o),
(288,480,cs),
(129,480,o),
(72,418,o),
(72,245,cs),
(72,70,o),
(143,-10,o),
(298,-10,cs)
);
},
{
closed = 1;
nodes = (
(507,669,l),
(507,741,l),
(79,572,l),
(79,500,l)
);
}
);
vertWidth = 1000;
width = 600;
},
{
layerId = "D0C1F23C-2F9F-4D30-8C4D-098ED54EEF3D";
shapes = (
{
closed = 1;
nodes = (
(434,-10,o),
(497,75,o),
(497,260,cs),
(497,566,o),
(385,727,o),
(142,770,c),
(142,749,l),
(372,708,o),
(477,554,o),
(477,260,cs),
(477,89,o),
(420,10,o),
(297,10,cs),
(167,10,o),
(107,82,o),
(107,240,cs),
(107,398,o),
(157,450,o),
(308,450,cs),
(370,450,o),
(428,437,o),
(475,410,c),
(471,434,l),
(424,458,o),
(368,470,o),
(308,470,cs),
(146,470,o),
(87,409,o),
(87,240,cs),
(87,69,o),
(153,-10,o),
(297,-10,cs)
);
},
{
closed = 1;
nodes = (
(510,694,l),
(510,716,l),
(80,547,l),
(80,525,l)
);
}
);
width = 600;
}
);
unicode = 240;
},
{
color = 10;
glyphname = dcaron;
kernLeft = o;
kernRight = Y;
lastChange = "2021-05-05 04:42:54 +0000";
layers = (
{
layerId = "D65C9A1E-0FCA-4B2D-8EDF-9F36CA9182A1";
shapes = (
{
closed = 1;
nodes = (
(248,-10,o),
(294,3,o),
(326,22,c),
(326,730,l),
(306,730,l),
(306,22,l),
(316,39,l),
(284,21,o),
(241,10,o),
(196,10,cs),
(85,10,o),
(45,74,o),
(45,270,cs),
(45,453,o),
(80,510,o),
(181,510,cs),
(230,510,o),
(274,497,o),
(308,474,c),
(319,490,l),
(282,516,o),
(233,530,o),
(181,530,cs),
(66,530,o),
(25,462,o),
(25,270,cs),
(25,65,o),
(71,-10,o),
(196,-10,cs)
);
},
{
closed = 1;
nodes = (
(379,510,l),
(500,730,l),
(477,730,l),
(356,510,l)
);
}
);
width = 500;
},
{
layerId = "E27A6A66-A1F8-4E1B-8224-7C0FE77551F2";
shapes = (
{
closed = 1;
nodes = (
(251,-10,o),
(300,3,o),
(334,22,c),
(334,730,l),
(254,730,l),
(254,46,l),
(288,88,l),
(265,71,o),
(235,60,o),
(199,60,cs),
(121,60,o),
(95,112,o),
(95,268,cs),
(95,413,o),
(118,460,o),
(187,460,cs),
(220,460,o),
(251,449,o),
(284,427,c),
(302,493,l),
(265,518,o),
(218,530,o),
(171,530,cs),
(57,530,o),
(15,460,o),
(15,270,cs),
(15,66,o),
(64,-10,o),
(196,-10,cs)
);
},
{
closed = 1;
nodes = (
(422,510,l),
(500,730,l),
(410,730,l),
(352,510,l)
);
}
);
vertWidth = 1000;
width = 500;
},
{
layerId = "FC9CFCDA-9E80-4E73-BA51-8504D15957FA";
shapes = (
{
closed = 1;
nodes = (
(253,-10,o),
(305,3,o),
(341,22,c),
(341,730,l),
(207,730,l),
(207,70,l),
(254,135,l),
(240,118,o),
(219,108,o),
(196,108,cs),
(152,108,o),
(139,144,o),
(139,267,cs),
(139,377,o),
(150,410,o),
(187,410,cs),
(205,410,o),
(222,402,o),
(254,380,c),
(285,496,l),
(248,520,o),
(204,530,o),
(162,530,cs),
(49,530,o),
(5,457,o),
(5,270,cs),
(5,66,o),
(57,-10,o),
(196,-10,cs)
);
},
{
closed = 1;
nodes = (
(442,510,l),
(520,730,l),
(404,730,l),
(348,510,l)
);
}
);
width = 500;
},
{
layerId = "0F1A0AC1-B8D5-4257-ADED-894CB2B827EF";
shapes = (
{
closed = 1;
nodes = (
(332,-10,o),
(396,3,o),
(440,22,c),
(440,730,l),
(302,730,l),
(302,72,l),
(332,135,l),
(312,118,o),
(284,108,o),
(250,108,cs),
(186,108,o),
(168,143,o),
(168,267,cs),
(168,377,o),
(184,410,o),
(236,410,cs),
(262,410,o),
(288,402,o),
(333,380,c),
(372,496,l),
(327,520,o),
(275,530,o),
(222,530,cs),
(82,530,o),
(30,459,o),
(30,270,cs),
(30,68,o),
(95,-10,o),
(263,-10,cs)
);
},
{
closed = 1;
nodes = (
(542,510,l),
(620,730,l),
(504,730,l),
(448,510,l)
);
}
);
width = 600;
},
{
layerId = "72F02222-BF87-41FD-9A7E-0ABB550ED2DB";
shapes = (
{
closed = 1;
nodes = (
(331,-10,o),
(389,3,o),
(430,22,c),
(430,730,l),
(352,730,l),
(352,46,l),
(370,89,l),
(339,70,o),
(301,60,o),
(258,60,cs),
(160,60,o),
(128,112,o),
(128,269,cs),
(128,415,o),
(155,460,o),
(242,460,cs),
(285,460,o),
(324,449,o),
(366,427,c),
(391,493,l),
(347,518,o),
(293,530,o),
(236,530,cs),
(99,530,o),
(50,461,o),
(50,270,cs),
(50,67,o),
(109,-10,o),
(266,-10,cs)
);
},
{
closed = 1;
nodes = (
(522,510,l),
(600,730,l),
(510,730,l),
(452,510,l)
);
}
);
vertWidth = 1000;
width = 600;
},
{
layerId = "D0C1F23C-2F9F-4D30-8C4D-098ED54EEF3D";
shapes = (
{
closed = 1;
nodes = (
(330,-10,o),
(382,3,o),
(420,22,c),
(420,730,l),
(400,730,l),
(400,22,l),
(411,40,l),
(372,21,o),
(322,10,o),
(269,10,cs),
(136,10,o),
(90,75,o),
(90,270,cs),
(90,452,o),
(130,510,o),
(251,510,cs),
(309,510,o),
(361,497,o),
(401,473,c),
(411,490,l),
(368,516,o),
(312,530,o),
(251,530,cs),
(117,530,o),
(70,462,o),
(70,270,cs),
(70,65,o),
(123,-10,o),
(269,-10,cs)
);
},
{
closed = 1;
nodes = (
(479,510,l),
(600,730,l),
(577,730,l),
(456,510,l)
);
}
);
width = 600;
}
);
unicode = 271;
},
{
color = 10;
glyphname = dcroat;
kernLeft = o;
kernRight = W;
lastChange = "2021-05-05 04:42:54 +0000";
layers = (
{
layerId = "D65C9A1E-0FCA-4B2D-8EDF-9F36CA9182A1";
shapes = (
{
closed = 1;
nodes = (
(485,617,l),
(485,637,l),
(105,637,l),
(105,617,l)
);
},
{
pos = (-10,0);
ref = d;
}
);
width = 500;
},
{
layerId = "E27A6A66-A1F8-4E1B-8224-7C0FE77551F2";
shapes = (
{
closed = 1;
nodes = (
(495,589,l),
(495,655,l),
(95,655,l),
(95,589,l)
);
},
{
alignment = -1;
pos = (-10,0);
ref = d;
}
);
vertWidth = 1000;
width = 500;
},
{
layerId = "FC9CFCDA-9E80-4E73-BA51-8504D15957FA";
shapes = (
{
closed = 1;
nodes = (
(495,561,l),
(495,673,l),
(75,673,l),
(75,561,l)
);
},
{
pos = (-10,0);
ref = d;
}
);
vertWidth = 1000;
width = 500;
},
{
layerId = "0F1A0AC1-B8D5-4257-ADED-894CB2B827EF";
shapes = (
{
closed = 1;
nodes = (
(580,561,l),
(580,673,l),
(90,673,l),
(90,561,l)
);
},
{
pos = (-15,0);
ref = d;
}
);
vertWidth = 1000;
width = 600;
},
{
layerId = "72F02222-BF87-41FD-9A7E-0ABB550ED2DB";
shapes = (
{
closed = 1;
nodes = (
(570,589,l),
(570,655,l),
(100,655,l),
(100,589,l)
);
},
{
alignment = -1;
pos = (-15,0);
ref = d;
}
);
vertWidth = 1000;
width = 600;
},
{
layerId = "D0C1F23C-2F9F-4D30-8C4D-098ED54EEF3D";
shapes = (
{
closed = 1;
nodes = (
(560,617,l),
(560,637,l),
(110,637,l),
(110,617,l)
);
},
{
pos = (-15,0);
ref = d;
}
);
width = 600;
}
);
unicode = 273;
},
{
color = 10;
glyphname = dzcaron;
kernLeft = o;
kernRight = z;
lastChange = "2021-05-05 04:42:54 +0000";
layers = (
{
layerId = "D65C9A1E-0FCA-4B2D-8EDF-9F36CA9182A1";
shapes = (
{
closed = 1;
nodes = (
(194,-10,o),
(230,3,o),
(256,22,c),
(256,730,l),
(236,730,l),
(236,492,l),
(236,492,l),
(236,22,l),
(244,38,l),
(219,20,o),
(187,10,o),
(152,10,cs),
(67,10,o),
(36,74,o),
(36,270,cs),
(36,453,o),
(63,510,o),
(140,510,cs),
(178,510,o),
(214,498,o),
(241,475,c),
(254,490,l),
(223,516,o),
(182,530,o),
(140,530,cs),
(48,530,o),
(16,462,o),
(16,270,cs),
(16,65,o),
(52,-10,o),
(152,-10,cs)
);
},
{
closed = 1;
nodes = (
(495,0,l),
(495,20,l),
(308,20,l),
(308,24,l),
(495,500,l),
(495,520,l),
(285,520,l),
(285,500,l),
(472,500,l),
(472,496,l),
(285,20,l),
(285,0,l)
);
},
{
closed = 1;
nodes = (
(397,570,l),
(500,790,l),
(478,790,l),
(389,599,l),
(385,599,l),
(296,790,l),
(274,790,l),
(377,570,l)
);
}
);
width = 500;
},
{
layerId = "E27A6A66-A1F8-4E1B-8224-7C0FE77551F2";
shapes = (
{
closed = 1;
nodes = (
(193,-10,o),
(232,3,o),
(258,22,c),
(258,730,l),
(180,730,l),
(180,476,l),
(180,476,l),
(180,46,l),
(198,66,l),
(188,61,o),
(176,59,o),
(165,59,cs),
(110,59,o),
(91,112,o),
(91,268,cs),
(91,412,o),
(107,460,o),
(156,460,cs),
(179,460,o),
(202,450,o),
(226,427,c),
(236,493,l),
(207,518,o),
(169,530,o),
(133,530,cs),
(45,530,o),
(13,460,o),
(13,270,cs),
(13,66,o),
(50,-10,o),
(151,-10,cs)
);
},
{
closed = 1;
nodes = (
(492,0,l),
(492,70,l),
(368,70,l),
(368,74,l),
(492,450,l),
(492,520,l),
(288,520,l),
(288,450,l),
(412,450,l),
(412,446,l),
(288,70,l),
(288,0,l)
);
},
{
closed = 1;
nodes = (
(429,570,l),
(500,790,l),
(424,790,l),
(385,630,l),
(381,630,l),
(342,790,l),
(266,790,l),
(337,570,l)
);
}
);
vertWidth = 1000;
width = 500;
},
{
layerId = "FC9CFCDA-9E80-4E73-BA51-8504D15957FA";
shapes = (
{
closed = 1;
nodes = (
(194,-10,o),
(233,3,o),
(260,22,c),
(260,730,l),
(152,730,l),
(152,461,l),
(162,461,l),
(162,70,l),
(198,135,l),
(186,118,o),
(171,108,o),
(153,108,cs),
(119,108,o),
(108,147,o),
(108,267,cs),
(108,376,o),
(117,410,o),
(145,410,cs),
(159,410,o),
(173,402,o),
(198,380,c),
(219,496,l),
(191,520,o),
(158,530,o),
(127,530,cs),
(43,530,o),
(10,457,o),
(10,270,cs),
(10,66,o),
(48,-10,o),
(151,-10,cs)
);
},
{
closed = 1;
nodes = (
(490,0,l),
(490,118,l),
(396,118,l),
(396,122,l),
(490,402,l),
(490,520,l),
(290,520,l),
(290,402,l),
(384,402,l),
(384,398,l),
(290,118,l),
(290,0,l)
);
},
{
closed = 1;
nodes = (
(441,570,l),
(500,790,l),
(408,790,l),
(381,650,l),
(377,650,l),
(350,790,l),
(258,790,l),
(317,570,l)
);
}
);
vertWidth = 1000;
width = 500;
},
{
layerId = "0F1A0AC1-B8D5-4257-ADED-894CB2B827EF";
shapes = (
{
closed = 1;
nodes = (
(235,-10,o),
(278,3,o),
(308,22,c),
(308,730,l),
(189,730,l),
(189,461,l),
(200,461,l),
(200,70,l),
(240,135,l),
(226,118,o),
(210,108,o),
(190,108,cs),
(152,108,o),
(140,147,o),
(140,267,cs),
(140,376,o),
(150,410,o),
(181,410,cs),
(197,410,o),
(212,402,o),
(240,380,c),
(263,496,l),
(232,520,o),
(195,530,o),
(161,530,cs),
(68,530,o),
(32,457,o),
(32,270,cs),
(32,66,o),
(74,-10,o),
(188,-10,cs)
);
},
{
closed = 1;
nodes = (
(562,0,l),
(562,118,l),
(458,118,l),
(458,122,l),
(562,402,l),
(562,520,l),
(341,520,l),
(341,402,l),
(445,402,l),
(445,398,l),
(341,118,l),
(341,0,l)
);
},
{
closed = 1;
nodes = (
(507,570,l),
(572,790,l),
(471,790,l),
(441,650,l),
(437,650,l),
(407,790,l),
(306,790,l),
(371,570,l)
);
}
);
vertWidth = 1000;
width = 600;
},
{
layerId = "72F02222-BF87-41FD-9A7E-0ABB550ED2DB";
shapes = (
{
closed = 1;
nodes = (
(234,-10,o),
(277,2,o),
(307,22,c),
(307,730,l),
(229,730,l),
(229,476,l),
(229,476,l),
(229,46,l),
(238,66,l),
(228,61,o),
(216,59,o),
(203,59,cs),
(143,59,o),
(123,112,o),
(123,268,cs),
(123,414,o),
(140,460,o),
(193,460,cs),
(218,460,o),
(243,449,o),
(268,427,c),
(284,493,l),
(255,517,o),
(215,530,o),
(174,530,cs),
(80,530,o),
(45,460,o),
(45,270,cs),
(45,65,o),
(84,-10,o),
(191,-10,cs)
);
},
{
closed = 1;
nodes = (
(558,0,l),
(558,70,l),
(418,70,l),
(418,74,l),
(558,450,l),
(558,520,l),
(339,520,l),
(339,450,l),
(479,450,l),
(479,446,l),
(339,70,l),
(339,0,l)
);
},
{
closed = 1;
nodes = (
(489,570,l),
(565,790,l),
(483,790,l),
(442,630,l),
(438,630,l),
(397,790,l),
(315,790,l),
(391,570,l)
);
}
);
vertWidth = 1000;
width = 600;
},
{
layerId = "D0C1F23C-2F9F-4D30-8C4D-098ED54EEF3D";
shapes = (
{
closed = 1;
nodes = (
(243,-10,o),
(280,3,o),
(306,22,c),
(306,730,l),
(286,730,l),
(286,492,l),
(286,492,l),
(286,22,l),
(294,38,l),
(269,20,o),
(236,10,o),
(200,10,cs),
(111,10,o),
(78,74,o),
(78,270,cs),
(78,453,o),
(106,510,o),
(186,510,cs),
(226,510,o),
(263,497,o),
(291,474,c),
(304,490,l),
(272,516,o),
(229,530,o),
(186,530,cs),
(91,530,o),
(58,462,o),
(58,270,cs),
(58,65,o),
(96,-10,o),
(200,-10,cs)
);
},
{
closed = 1;
nodes = (
(553,0,l),
(553,20,l),
(359,20,l),
(359,24,l),
(553,500,l),
(553,520,l),
(336,520,l),
(336,500,l),
(530,500,l),
(530,496,l),
(336,20,l),
(336,0,l)
);
},
{
closed = 1;
nodes = (
(452,570,l),
(558,790,l),
(536,790,l),
(444,599,l),
(440,599,l),
(348,790,l),
(326,790,l),
(432,570,l)
);
}
);
width = 600;
}
);
unicode = 454;
},
{
color = 6;
glyphname = e;
kernLeft = o;
kernRight = o;
lastChange = "2021-05-05 04:42:54 +0000";
layers = (
{
anchors = (
{
name = bottom;
pos = (250,0);
},
{
name = ogonek;
pos = (374,6);
},
{
name = top;
pos = (250,520);
}
);
layerId = "D65C9A1E-0FCA-4B2D-8EDF-9F36CA9182A1";
shapes = (
{
closed = 1;
nodes = (
(322,-10,o),
(367,-4,o),
(404,6,c),
(404,27,l),
(368,16,o),
(323,10,o),
(283,10,cs),
(150,10,o),
(90,81,o),
(90,240,cs),
(90,280,ls),
(90,442,o),
(139,510,o),
(250,510,cs),
(361,510,o),
(410,442,o),
(410,280,cs),
(410,262,l),
(420,272,l),
(80,272,l),
(80,252,l),
(430,252,l),
(430,280,ls),
(430,452,o),
(374,530,o),
(250,530,cs),
(126,530,o),
(70,452,o),
(70,280,cs),
(70,240,ls),
(70,70,o),
(139,-10,o),
(283,-10,cs)
);
}
);
width = 500;
},
{
anchors = (
{
name = bottom;
pos = (250,0);
},
{
name = ogonek;
pos = (373,6);
},
{
name = top;
pos = (250,520);
}
);
layerId = "E27A6A66-A1F8-4E1B-8224-7C0FE77551F2";
shapes = (
{
closed = 1;
nodes = (
(329,-10,o),
(377,-4,o),
(417,6,c),
(417,75,l),
(370,63,o),
(331,58,o),
(292,58,cs),
(173,58,o),
(133,105,o),
(133,243,cs),
(133,277,ls),
(133,408,o),
(167,462,o),
(250,462,cs),
(333,462,o),
(367,408,o),
(367,277,cs),
(367,268,l),
(385,291,l),
(94,291,l),
(94,226,l),
(445,226,l),
(445,280,ls),
(445,452,o),
(384,530,o),
(250,530,cs),
(116,530,o),
(55,452,o),
(55,280,cs),
(55,240,ls),
(55,70,o),
(130,-10,o),
(286,-10,cs)
);
}
);
vertWidth = 1000;
width = 500;
},
{
anchors = (
{
name = bottom;
pos = (250,0);
},
{
name = ogonek;
pos = (368,6);
},
{
name = top;
pos = (250,520);
}
);
layerId = "FC9CFCDA-9E80-4E73-BA51-8504D15957FA";
shapes = (
{
closed = 1;
nodes = (
(334,-10,o),
(386,-4,o),
(430,6,c),
(430,124,l),
(372,111,o),
(338,108,o),
(300,108,cs),
(196,108,o),
(176,130,o),
(176,246,cs),
(176,274,ls),
(176,376,o),
(196,412,o),
(251,412,cs),
(306,412,o),
(326,376,o),
(326,274,c),
(326,274,l),
(350,309,l),
(108,309,l),
(108,199,l),
(460,199,l),
(460,280,ls),
(460,452,o),
(395,530,o),
(250,530,cs),
(105,530,o),
(40,452,o),
(40,280,cs),
(40,240,ls),
(40,70,o),
(120,-10,o),
(288,-10,cs)
);
}
);
vertWidth = 1000;
width = 500;
},
{
anchors = (
{
name = bottom;
pos = (300,0);
},
{
name = ogonek;
pos = (442,6);
},
{
name = top;
pos = (300,520);
}
);
layerId = "0F1A0AC1-B8D5-4257-ADED-894CB2B827EF";
shapes = (
{
closed = 1;
nodes = (
(396,-10,o),
(455,-4,o),
(505,6,c),
(505,124,l),
(436,111,o),
(395,108,o),
(349,108,cs),
(223,108,o),
(199,130,o),
(199,246,cs),
(199,274,ls),
(199,375,o),
(226,412,o),
(301,412,cs),
(376,412,o),
(403,375,o),
(403,274,c),
(403,274,l),
(436,309,l),
(138,309,l),
(138,199,l),
(540,199,l),
(540,280,ls),
(540,452,o),
(465,530,o),
(300,530,cs),
(135,530,o),
(60,452,o),
(60,280,cs),
(60,240,ls),
(60,70,o),
(152,-10,o),
(344,-10,cs)
);
}
);
vertWidth = 1000;
width = 600;
},
{
anchors = (
{
name = bottom;
pos = (300,0);
},
{
name = ogonek;
pos = (449,6);
},
{
name = top;
pos = (300,520);
}
);
layerId = "72F02222-BF87-41FD-9A7E-0ABB550ED2DB";
shapes = (
{
closed = 1;
nodes = (
(392,-10,o),
(446,-4,o),
(493,6,c),
(493,74,l),
(437,63,o),
(389,58,o),
(343,58,cs),
(201,58,o),
(153,105,o),
(153,243,cs),
(153,277,ls),
(153,409,o),
(195,462,o),
(300,462,cs),
(405,462,o),
(447,409,o),
(447,277,cs),
(447,268,l),
(471,291,l),
(119,291,l),
(119,226,l),
(525,226,l),
(525,280,ls),
(525,452,o),
(455,530,o),
(300,530,cs),
(145,530,o),
(75,452,o),
(75,280,cs),
(75,240,ls),
(75,70,o),
(161,-10,o),
(342,-10,cs)
);
}
);
vertWidth = 1000;
width = 600;
},
{
anchors = (
{
name = bottom;
pos = (300,0);
},
{
name = ogonek;
pos = (450,6);
},
{
name = top;
pos = (300,520);
}
);
layerId = "D0C1F23C-2F9F-4D30-8C4D-098ED54EEF3D";
shapes = (
{
closed = 1;
nodes = (
(385,-10,o),
(437,-4,o),
(480,6,c),
(480,26,l),
(439,17,o),
(385,10,o),
(339,10,cs),
(182,10,o),
(110,82,o),
(110,240,cs),
(110,280,ls),
(110,441,o),
(167,510,o),
(300,510,cs),
(433,510,o),
(490,441,o),
(490,280,cs),
(490,262,l),
(500,272,l),
(100,272,l),
(100,252,l),
(510,252,l),
(510,280,ls),
(510,452,o),
(445,530,o),
(300,530,cs),
(155,530,o),
(90,452,o),
(90,280,cs),
(90,240,ls),
(90,70,o),
(171,-10,o),
(339,-10,cs)
);
}
);
width = 600;
}
);
unicode = 101;
},
{
color = 6;
glyphname = f;
kernLeft = f;
kernRight = f;
lastChange = "2021-05-05 04:42:54 +0000";
layers = (
{
layerId = "D65C9A1E-0FCA-4B2D-8EDF-9F36CA9182A1";
shapes = (
{
closed = 1;
nodes = (
(234,0,l),
(234,480,l),
(460,480,l),
(460,500,l),
(234,500,l),
(234,620,ls),
(234,711,o),
(271,750,o),
(358,750,cs),
(392,750,o),
(422,744,o),
(460,729,c),
(460,750,l),
(419,765,o),
(390,770,o),
(358,770,cs),
(260,770,o),
(214,722,o),
(214,620,cs),
(214,500,l),
(40,500,l),
(40,480,l),
(214,480,l),
(214,0,l)
);
}
);
width = 500;
},
{
layerId = "E27A6A66-A1F8-4E1B-8224-7C0FE77551F2";
shapes = (
{
closed = 1;
nodes = (
(266,0,l),
(266,430,l),
(465,430,l),
(465,500,l),
(266,500,l),
(266,594,ls),
(266,670,o),
(296,700,o),
(367,700,cs),
(393,700,o),
(428,696,o),
(465,683,c),
(465,754,l),
(428,765,o),
(389,770,o),
(355,770,cs),
(242,770,o),
(186,713,o),
(186,597,cs),
(186,500,l),
(35,500,l),
(35,430,l),
(186,430,l),
(186,0,l)
);
}
);
vertWidth = 1000;
width = 500;
},
{
layerId = "FC9CFCDA-9E80-4E73-BA51-8504D15957FA";
shapes = (
{
closed = 1;
nodes = (
(298,0,l),
(298,382,l),
(470,382,l),
(470,500,l),
(298,500,l),
(298,568,ls),
(298,626,o),
(320,648,o),
(375,648,cs),
(399,648,o),
(432,644,o),
(470,633,c),
(470,756,l),
(436,764,o),
(390,770,o),
(352,770,cs),
(224,770,o),
(158,703,o),
(158,573,cs),
(158,500,l),
(30,500,l),
(30,382,l),
(158,382,l),
(158,0,l)
);
}
);
vertWidth = 1000;
width = 500;
},
{
layerId = "0F1A0AC1-B8D5-4257-ADED-894CB2B827EF";
shapes = (
{
closed = 1;
nodes = (
(345,0,l),
(345,382,l),
(550,382,l),
(550,500,l),
(345,500,l),
(345,568,ls),
(345,626,o),
(371,648,o),
(437,648,cs),
(465,648,o),
(505,644,o),
(550,633,c),
(550,756,l),
(512,764,o),
(462,770,o),
(420,770,cs),
(278,770,o),
(205,703,o),
(205,573,cs),
(205,500,l),
(50,500,l),
(50,382,l),
(205,382,l),
(205,0,l)
);
}
);
vertWidth = 1000;
width = 600;
},
{
layerId = "72F02222-BF87-41FD-9A7E-0ABB550ED2DB";
shapes = (
{
closed = 1;
nodes = (
(313,0,l),
(313,430,l),
(545,430,l),
(545,500,l),
(313,500,l),
(313,594,ls),
(313,669,o),
(347,700,o),
(431,700,cs),
(468,700,o),
(509,694,o),
(545,683,c),
(545,754,l),
(507,764,o),
(462,770,o),
(421,770,cs),
(295,770,o),
(233,713,o),
(233,597,cs),
(233,500,l),
(55,500,l),
(55,430,l),
(233,430,l),
(233,0,l)
);
}
);
vertWidth = 1000;
width = 600;
},
{
layerId = "D0C1F23C-2F9F-4D30-8C4D-098ED54EEF3D";
shapes = (
{
closed = 1;
nodes = (
(281,0,l),
(281,480,l),
(540,480,l),
(540,500,l),
(281,500,l),
(281,620,ls),
(281,711,o),
(324,750,o),
(424,750,cs),
(462,750,o),
(494,745,o),
(540,729,c),
(540,750,l),
(493,765,o),
(460,770,o),
(424,770,cs),
(313,770,o),
(261,722,o),
(261,620,cs),
(261,500,l),
(60,500,l),
(60,480,l),
(261,480,l),
(261,0,l)
);
}
);
width = 600;
}
);
unicode = 102;
},
{
color = 6;
glyphname = g;
kernLeft = o;
kernRight = g;
lastChange = "2021-05-05 04:42:54 +0000";
layers = (
{
anchors = (
{
name = bottom;
pos = (250,-140);
},
{
name = top;
pos = (250,520);
}
);
layerId = "D65C9A1E-0FCA-4B2D-8EDF-9F36CA9182A1";
shapes = (
{
closed = 1;
nodes = (
(92,-220,l),
(303,-220,o),
(412,-131,o),
(412,40,cs),
(412,498,l),
(371,519,o),
(320,530,o),
(258,530,cs),
(111,530,o),
(62,469,o),
(62,284,cs),
(62,87,o),
(112,20,o),
(261,20,cs),
(325,20,o),
(372,32,o),
(410,49,c),
(402,67,l),
(361,49,o),
(316,40,o),
(261,40,cs),
(125,40,o),
(82,97,o),
(82,284,cs),
(82,458,o),
(123,510,o),
(258,510,cs),
(316,510,o),
(364,500,o),
(403,480,c),
(392,498,l),
(392,40,ls),
(392,-119,o),
(292,-200,o),
(92,-200,c)
);
}
);
width = 500;
},
{
anchors = (
{
name = bottom;
pos = (250,-140);
},
{
name = top;
pos = (250,520);
}
);
layerId = "E27A6A66-A1F8-4E1B-8224-7C0FE77551F2";
shapes = (
{
closed = 1;
nodes = (
(83,-220,l),
(315,-220,o),
(428,-134,o),
(428,43,cs),
(428,498,l),
(384,519,o),
(329,530,o),
(263,530,cs),
(104,530,o),
(48,466,o),
(48,284,cs),
(48,91,o),
(106,20,o),
(264,20,cs),
(317,20,o),
(357,28,o),
(393,40,c),
(372,110,l),
(332,96,o),
(299,89,o),
(259,89,cs),
(157,89,o),
(126,134,o),
(126,283,cs),
(126,419,o),
(156,460,o),
(254,460,cs),
(295,460,o),
(331,453,o),
(370,435,c),
(350,480,l),
(350,38,ls),
(350,-91,o),
(266,-150,o),
(83,-150,c)
);
}
);
vertWidth = 1000;
width = 500;
},
{
anchors = (
{
name = bottom;
pos = (250,-140);
},
{
name = top;
pos = (250,520);
}
);
layerId = "FC9CFCDA-9E80-4E73-BA51-8504D15957FA";
shapes = (
{
closed = 1;
nodes = (
(74,-220,l),
(327,-220,o),
(444,-136,o),
(444,45,cs),
(444,498,l),
(396,519,o),
(335,530,o),
(268,530,cs),
(97,530,o),
(34,464,o),
(34,284,cs),
(34,94,o),
(99,20,o),
(267,20,cs),
(305,20,o),
(342,24,o),
(375,30,c),
(341,152,l),
(302,142,o),
(278,138,o),
(256,138,cs),
(190,138,o),
(172,170,o),
(172,281,cs),
(172,380,o),
(190,410,o),
(250,410,cs),
(273,410,o),
(297,405,o),
(337,390,c),
(306,462,l),
(306,35,ls),
(306,-60,o),
(240,-98,o),
(74,-98,c)
);
}
);
width = 500;
},
{
anchors = (
{
name = bottom;
pos = (300,-140);
},
{
name = top;
pos = (300,520);
}
);
layerId = "0F1A0AC1-B8D5-4257-ADED-894CB2B827EF";
shapes = (
{
closed = 1;
nodes = (
(100,-220,l),
(390,-220,o),
(524,-136,o),
(524,45,cs),
(524,498,l),
(468,519,o),
(400,530,o),
(320,530,cs),
(124,530,o),
(54,465,o),
(54,284,cs),
(54,96,o),
(131,20,o),
(321,20,cs),
(365,20,o),
(407,24,o),
(445,30,c),
(432,152,l),
(376,142,o),
(343,138,o),
(311,138,cs),
(220,138,o),
(192,171,o),
(192,281,cs),
(192,381,o),
(216,410,o),
(298,410,cs),
(332,410,o),
(368,405,o),
(426,390,c),
(386,462,l),
(386,35,ls),
(386,-60,o),
(304,-98,o),
(100,-98,c)
);
}
);
width = 600;
},
{
anchors = (
{
name = bottom;
pos = (300,-140);
},
{
name = top;
pos = (300,520);
}
);
layerId = "72F02222-BF87-41FD-9A7E-0ABB550ED2DB";
shapes = (
{
closed = 1;
nodes = (
(110,-220,l),
(376,-220,o),
(505,-134,o),
(505,43,cs),
(505,498,l),
(453,519,o),
(390,530,o),
(314,530,cs),
(132,530,o),
(70,467,o),
(70,284,cs),
(70,92,o),
(136,20,o),
(313,20,cs),
(372,20,o),
(422,28,o),
(464,39,c),
(453,110,l),
(402,96,o),
(360,89,o),
(312,89,cs),
(188,89,o),
(148,136,o),
(148,282,cs),
(148,419,o),
(183,460,o),
(300,460,cs),
(352,460,o),
(399,452,o),
(451,435,c),
(427,480,l),
(427,37,ls),
(427,-90,o),
(326,-149,o),
(110,-149,c)
);
}
);
vertWidth = 1000;
width = 600;
},
{
anchors = (
{
name = bottom;
pos = (300,-140);
},
{
name = top;
pos = (300,520);
}
);
layerId = "D0C1F23C-2F9F-4D30-8C4D-098ED54EEF3D";
shapes = (
{
closed = 1;
nodes = (
(120,-220,l),
(361,-220,o),
(486,-131,o),
(486,40,cs),
(486,498,l),
(438,519,o),
(379,530,o),
(307,530,cs),
(139,530,o),
(86,471,o),
(86,284,cs),
(86,89,o),
(146,20,o),
(316,20,cs),
(387,20,o),
(441,32,o),
(484,49,c),
(477,68,l),
(430,49,o),
(377,40,o),
(316,40,cs),
(158,40,o),
(106,100,o),
(106,284,cs),
(106,460,o),
(151,510,o),
(307,510,cs),
(375,510,o),
(432,500,o),
(478,480,c),
(466,498,l),
(466,40,ls),
(466,-119,o),
(350,-200,o),
(120,-200,c)
);
}
);
width = 600;
}
);
unicode = 103;
},
{
color = 6;
glyphname = h;
kernLeft = b;
kernRight = h;
lastChange = "2021-05-05 04:42:54 +0000";
layers = (
{
anchors = (
{
name = bottom;
pos = (220,0);
},
{
name = center;
pos = (220,430);
},
{
name = top;
pos = (220,730);
}
);
layerId = "D65C9A1E-0FCA-4B2D-8EDF-9F36CA9182A1";
shapes = (
{
closed = 1;
nodes = (
(400,0,l),
(420,0,l),
(420,340,ls),
(420,486,o),
(378,530,o),
(242,530,cs),
(182,530,o),
(134,522,o),
(91,503,c),
(89,480,l),
(132,501,o),
(179,510,o),
(242,510,cs),
(367,510,o),
(400,475,o),
(400,340,cs)
);
},
{
closed = 1;
nodes = (
(100,0,l),
(100,730,l),
(80,730,l),
(80,0,l)
);
}
);
width = 500;
},
{
anchors = (
{
name = bottom;
pos = (250,0);
},
{
name = center;
pos = (250,430);
},
{
name = top;
pos = (220,730);
}
);
layerId = "E27A6A66-A1F8-4E1B-8224-7C0FE77551F2";
shapes = (
{
closed = 1;
nodes = (
(359,0,l),
(437,0,l),
(437,340,ls),
(437,486,o),
(394,530,o),
(253,530,cs),
(190,530,o),
(148,522,o),
(103,500,c),
(119,430,l),
(166,453,o),
(198,460,o),
(244,460,cs),
(335,460,o),
(359,434,o),
(359,336,cs)
);
},
{
closed = 1;
nodes = (
(141,0,l),
(141,730,l),
(63,730,l),
(63,0,l)
);
}
);
vertWidth = 1000;
width = 500;
},
{
anchors = (
{
name = bottom;
pos = (250,0);
},
{
name = center;
pos = (250,430);
},
{
name = top;
pos = (220,730);
}
);
layerId = "FC9CFCDA-9E80-4E73-BA51-8504D15957FA";
shapes = (
{
closed = 1;
nodes = (
(316,0,l),
(454,0,l),
(454,340,ls),
(454,486,o),
(410,530,o),
(264,530,cs),
(198,530,o),
(161,521,o),
(114,496,c),
(147,380,l),
(198,405,o),
(214,410,o),
(244,410,cs),
(300,410,o),
(316,393,o),
(316,332,cs)
);
},
{
closed = 1;
nodes = (
(184,0,l),
(184,730,l),
(46,730,l),
(46,0,l)
);
}
);
vertWidth = 1000;
width = 500;
},
{
anchors = (
{
name = bottom;
pos = (300,0);
},
{
name = center;
pos = (300,430);
},
{
name = top;
pos = (270,730);
}
);
layerId = "0F1A0AC1-B8D5-4257-ADED-894CB2B827EF";
shapes = (
{
closed = 1;
nodes = (
(392,0,l),
(530,0,l),
(530,340,ls),
(530,486,o),
(480,530,o),
(316,530,cs),
(241,530,o),
(200,521,o),
(147,496,c),
(156,380,l),
(228,405,o),
(248,410,o),
(291,410,cs),
(370,410,o),
(392,393,o),
(392,332,cs)
);
},
{
closed = 1;
nodes = (
(208,0,l),
(208,730,l),
(70,730,l),
(70,0,l)
);
}
);
vertWidth = 1000;
width = 600;
},
{
anchors = (
{
name = bottom;
pos = (285,0);
},
{
name = center;
pos = (285,430);
},
{
name = top;
pos = (270,730);
}
);
layerId = "72F02222-BF87-41FD-9A7E-0ABB550ED2DB";
shapes = (
{
closed = 1;
nodes = (
(437,0,l),
(515,0,l),
(515,340,ls),
(515,486,o),
(466,530,o),
(304,530,cs),
(230,530,o),
(178,521,o),
(125,497,c),
(133,430,l),
(194,453,o),
(233,460,o),
(292,460,cs),
(406,460,o),
(437,433,o),
(437,336,cs)
);
},
{
closed = 1;
nodes = (
(163,0,l),
(163,730,l),
(85,730,l),
(85,0,l)
);
}
);
vertWidth = 1000;
width = 600;
},
{
anchors = (
{
name = bottom;
pos = (270,0);
},
{
name = center;
pos = (270,430);
},
{
name = top;
pos = (270,730);
}
);
layerId = "D0C1F23C-2F9F-4D30-8C4D-098ED54EEF3D";
shapes = (
{
closed = 1;
nodes = (
(480,0,l),
(500,0,l),
(500,340,ls),
(500,486,o),
(451,530,o),
(291,530,cs),
(215,530,o),
(155,520,o),
(103,499,c),
(110,480,l),
(160,501,o),
(218,510,o),
(291,510,cs),
(440,510,o),
(480,474,o),
(480,340,cs)
);
},
{
closed = 1;
nodes = (
(120,0,l),
(120,730,l),
(100,730,l),
(100,0,l)
);
}
);
width = 600;
}
);
unicode = 104;
},
{
color = 10;
glyphname = hbar;
kernLeft = W;
kernRight = h;
lastChange = "2021-05-05 04:42:54 +0000";
layers = (
{
layerId = "D65C9A1E-0FCA-4B2D-8EDF-9F36CA9182A1";
shapes = (
{
closed = 1;
nodes = (
(405,617,l),
(405,637,l),
(5,637,l),
(5,617,l)
);
},
{
ref = h;
}
);
width = 500;
},
{
layerId = "E27A6A66-A1F8-4E1B-8224-7C0FE77551F2";
shapes = (
{
closed = 1;
nodes = (
(415,589,l),
(415,655,l),
(5,655,l),
(5,589,l)
);
},
{
ref = h;
}
);
width = 500;
},
{
layerId = "FC9CFCDA-9E80-4E73-BA51-8504D15957FA";
shapes = (
{
closed = 1;
nodes = (
(425,561,l),
(425,673,l),
(5,673,l),
(5,561,l)
);
},
{
ref = h;
}
);
width = 500;
},
{
layerId = "0F1A0AC1-B8D5-4257-ADED-894CB2B827EF";
shapes = (
{
closed = 1;
nodes = (
(485,561,l),
(485,673,l),
(5,673,l),
(5,561,l)
);
},
{
ref = h;
}
);
width = 600;
},
{
layerId = "72F02222-BF87-41FD-9A7E-0ABB550ED2DB";
shapes = (
{
closed = 1;
nodes = (
(475,589,l),
(475,655,l),
(5,655,l),
(5,589,l)
);
},
{
ref = h;
}
);
width = 600;
},
{
layerId = "D0C1F23C-2F9F-4D30-8C4D-098ED54EEF3D";
shapes = (
{
closed = 1;
nodes = (
(465,617,l),
(465,637,l),
(5,637,l),
(5,617,l)
);
},
{
ref = h;
}
);
width = 600;
}
);
unicode = 295;
},
{
color = 6;
glyphname = i;
kernLeft = l;
kernRight = l;
lastChange = "2021-05-05 04:42:54 +0000";
layers = (
{
anchors = (
{
name = bottom;
pos = (296,0);
}
);
layerId = "D65C9A1E-0FCA-4B2D-8EDF-9F36CA9182A1";
shapes = (
{
closed = 1;
nodes = (
(306,0,l),
(306,520,l),
(86,520,l),
(86,500,l),
(286,500,l),
(286,0,l)
);
},
{
closed = 1;
nodes = (
(309,658,o),
(326,674,o),
(326,699,cs),
(326,724,o),
(309,740,o),
(284,740,cs),
(259,740,o),
(242,724,o),
(242,699,cs),
(242,674,o),
(259,658,o),
(284,658,cs)
);
}
);
width = 500;
},
{
anchors = (
{
name = bottom;
pos = (300,0);
}
);
layerId = "E27A6A66-A1F8-4E1B-8224-7C0FE77551F2";
shapes = (
{
closed = 1;
nodes = (
(340,0,l),
(340,520,l),
(80,520,l),
(80,450,l),
(260,450,l),
(260,0,l)
);
},
{
closed = 1;
nodes = (
(327,614,o),
(355,640,o),
(355,682,cs),
(355,724,o),
(327,750,o),
(284,750,cs),
(241,750,o),
(213,724,o),
(213,682,cs),
(213,640,o),
(241,614,o),
(284,614,cs)
);
}
);
vertWidth = 1000;
width = 500;
},
{
anchors = (
{
name = bottom;
pos = (304,0);
}
);
layerId = "FC9CFCDA-9E80-4E73-BA51-8504D15957FA";
shapes = (
{
closed = 1;
nodes = (
(374,0,l),
(374,520,l),
(74,520,l),
(74,402,l),
(234,402,l),
(234,0,l)
);
},
{
closed = 1;
nodes = (
(347,580,o),
(384,614,o),
(384,670,cs),
(384,726,o),
(347,760,o),
(289,760,cs),
(231,760,o),
(194,726,o),
(194,670,cs),
(194,614,o),
(231,580,o),
(289,580,cs)
);
}
);
vertWidth = 1000;
width = 500;
},
{
anchors = (
{
name = bottom;
pos = (354,0);
}
);
layerId = "0F1A0AC1-B8D5-4257-ADED-894CB2B827EF";
shapes = (
{
closed = 1;
nodes = (
(424,0,l),
(424,520,l),
(84,520,l),
(84,402,l),
(284,402,l),
(284,0,l)
);
},
{
closed = 1;
nodes = (
(397,580,o),
(434,614,o),
(434,670,cs),
(434,726,o),
(397,760,o),
(339,760,cs),
(281,760,o),
(244,726,o),
(244,670,cs),
(244,614,o),
(281,580,o),
(339,580,cs)
);
}
);
vertWidth = 1000;
width = 600;
},
{
anchors = (
{
name = bottom;
pos = (350,0);
}
);
layerId = "72F02222-BF87-41FD-9A7E-0ABB550ED2DB";
shapes = (
{
closed = 1;
nodes = (
(390,0,l),
(390,520,l),
(90,520,l),
(90,450,l),
(310,450,l),
(310,0,l)
);
},
{
closed = 1;
nodes = (
(377,614,o),
(405,640,o),
(405,682,cs),
(405,724,o),
(377,750,o),
(334,750,cs),
(291,750,o),
(263,724,o),
(263,682,cs),
(263,640,o),
(291,614,o),
(334,614,cs)
);
}
);
vertWidth = 1000;
width = 600;
},
{
anchors = (
{
name = bottom;
pos = (346,0);
}
);
layerId = "D0C1F23C-2F9F-4D30-8C4D-098ED54EEF3D";
shapes = (
{
closed = 1;
nodes = (
(356,0,l),
(356,520,l),
(96,520,l),
(96,500,l),
(336,500,l),
(336,0,l)
);
},
{
closed = 1;
nodes = (
(359,658,o),
(376,674,o),
(376,699,cs),
(376,724,o),
(359,740,o),
(334,740,cs),
(309,740,o),
(292,724,o),
(292,699,cs),
(292,674,o),
(309,658,o),
(334,658,cs)
);
}
);
width = 600;
}
);
unicode = 105;
},
